<?xml version="1.0" encoding="utf-8"?>
<!-- Generator: Adobe Illustrator 25.4.1, SVG Export Plug-In . SVG Version: 6.00 Build 0)  -->
<svg version="1.1" id="Calque_1" xmlns="http://www.w3.org/2000/svg" xmlns:xlink="http://www.w3.org/1999/xlink" x="0px" y="0px"
	 viewBox="0 0 25 25" style="enable-background:new 0 0 25 25;" xml:space="preserve">
<style type="text/css">
	.st0{fill:#525967;}
	.st1{fill:#454B57;}
	.st2{fill:#0ACF83;}
	.st3{fill:#A259FF;}
	.st4{fill:#F24E1E;}
	.st5{fill:#FF7262;}
	.st6{fill:#1ABCFE;}
	.st7{fill:none;}
</style>
<g>
	<path class="st0" d="M3.6,0h17.7c2,0,3.6,1.6,3.6,3.6v17.7c0,2-1.6,3.6-3.6,3.6H3.6c-2,0-3.6-1.6-3.6-3.6V3.6C0,1.6,1.6,0,3.6,0z"
		/>
	<path class="st1" d="M21.4,1.1c1.4,0,2.6,1.1,2.6,2.6v17.7c0,1.4-1.1,2.6-2.6,2.6H3.6c-1.4,0-2.6-1.1-2.6-2.6V3.6
		c0-1.4,1.1-2.6,2.6-2.6l0,0H21.4 M21.4,0H3.6C1.6,0,0,1.6,0,3.6v17.7c0,2,1.6,3.6,3.6,3.6h17.7c2,0,3.6-1.6,3.6-3.6V3.6
		C25,1.6,23.4,0,21.4,0z"/>
	<path class="st2" d="M9.4,21.8c1.7,0,3.1-1.4,3.1-3.1v-3.1H9.4c-1.7,0-3.1,1.4-3.1,3.1S7.7,21.8,9.4,21.8
		C9.4,21.8,9.4,21.8,9.4,21.8z"/>
	<path class="st3" d="M6.3,12.5c0-1.7,1.4-3.1,3.1-3.1h3.1v6.2H9.4C7.7,15.6,6.3,14.2,6.3,12.5z"/>
	<path class="st4" d="M6.3,6.3c0-1.7,1.4-3.1,3.1-3.1h3.1v6.2H9.4C7.7,9.4,6.3,8,6.3,6.3z"/>
	<path class="st5" d="M12.5,3.2h3.1c1.7,0,3.1,1.4,3.1,3.1s-1.4,3.1-3.1,3.1c0,0,0,0,0,0h-3.1V3.2z"/>
	<path class="st6" d="M18.7,12.5c0,1.7-1.4,3.1-3.1,3.1s-3.1-1.4-3.1-3.1s1.4-3.1,3.1-3.1l0,0C17.3,9.4,18.7,10.8,18.7,12.5z"/>
</g>
<path class="st7" d="M0,0h25v25H0V0z"/>
</svg>
