<?xml version="1.0" standalone="no"?>
<!DOCTYPE svg PUBLIC "-//W3C//DTD SVG 20010904//EN"
 "http://www.w3.org/TR/2001/REC-SVG-20010904/DTD/svg10.dtd">
<svg version="1.0" xmlns="http://www.w3.org/2000/svg"
 width="600.000000pt" height="600.000000pt" viewBox="0 0 600.000000 600.000000"
 preserveAspectRatio="xMidYMid meet">
<metadata>
Created by potrace 1.14, written by Peter Selinger 2001-2017
</metadata>
<g transform="translate(0.000000,600.000000) scale(0.100000,-0.100000)"
fill="#000000" stroke="none">
<path d="M2164 5674 c-146 -37 -375 -148 -584 -281 -156 -100 -393 -277 -478
-356 -197 -185 -240 -227 -288 -277 -155 -163 -303 -371 -382 -540 -70 -147
-88 -204 -118 -366 -8 -42 -8 -222 0 -269 25 -152 79 -250 200 -370 158 -155
376 -263 686 -339 54 -14 274 -56 315 -61 28 -3 61 -8 75 -10 14 -2 45 -7 70
-10 320 -39 577 -123 730 -238 171 -128 249 -277 236 -447 -13 -174 -55 -291
-153 -429 -66 -92 -236 -261 -263 -261 -6 0 -10 -4 -10 -8 0 -4 -25 -23 -55
-41 -235 -142 -511 -209 -677 -164 -51 14 -66 25 -148 109 -50 52 -94 94 -98
94 -28 0 -106 -111 -123 -175 -44 -160 2 -265 151 -344 120 -64 386 -99 550
-71 262 44 606 228 775 415 169 187 295 428 319 609 4 27 9 53 11 56 17 27 26
411 13 506 -46 317 -332 583 -740 690 -82 21 -76 20 -198 44 -58 12 -112 23
-120 25 -8 1 -37 6 -63 9 -26 4 -71 11 -100 17 -29 5 -68 12 -87 15 -19 3 -38
8 -41 10 -4 2 -24 6 -45 10 -80 12 -264 65 -404 116 -95 34 -253 108 -258 120
-2 4 -9 8 -14 8 -6 0 -36 19 -67 42 -123 91 -165 157 -165 258 0 79 20 142 89
282 88 179 206 351 390 568 62 73 253 258 310 300 33 25 62 48 65 51 14 18
210 130 325 185 148 72 230 101 307 110 98 11 136 -23 146 -128 13 -138 6
-482 -13 -643 -6 -43 -6 -46 -29 -210 -29 -202 -27 -235 9 -235 25 0 72 56 93
111 16 44 81 297 97 380 2 9 15 76 29 150 15 74 28 144 31 156 5 21 7 21 43 9
20 -6 43 -11 50 -10 6 1 16 2 21 3 6 0 36 36 68 79 116 155 234 254 343 286
44 13 83 15 224 9 94 -3 181 -6 194 -6 12 1 23 -2 23 -6 3 -14 7 -73 14 -186
4 -66 8 -136 10 -155 2 -19 7 -75 10 -125 4 -49 8 -106 10 -125 2 -19 7 -69
10 -110 3 -41 7 -91 10 -110 2 -19 6 -57 9 -85 14 -129 15 -139 42 -345 2 -19
6 -48 9 -65 3 -16 7 -48 10 -70 3 -22 10 -65 15 -95 5 -30 12 -73 16 -95 3
-22 7 -42 9 -45 2 -3 6 -26 10 -50 5 -36 47 -253 71 -365 2 -11 6 -32 9 -47 3
-16 12 -56 19 -90 8 -35 17 -76 19 -93 3 -16 14 -84 26 -150 26 -155 48 -303
56 -385 3 -36 8 -76 10 -90 3 -14 7 -50 10 -80 2 -30 6 -71 9 -90 8 -60 15
-123 21 -180 3 -30 10 -77 15 -105 5 -27 11 -63 13 -80 8 -56 29 -120 48 -146
18 -26 60 -47 87 -43 6 1 16 2 21 3 12 1 37 69 51 136 11 48 14 226 6 290 -2
17 -7 75 -10 130 -16 237 -25 359 -31 413 -16 139 -23 208 -30 282 -3 36 -8
81 -10 100 -2 19 -7 60 -10 90 -3 30 -10 78 -15 105 -5 28 -12 66 -14 85 -3
19 -8 44 -10 55 -16 75 -78 403 -82 433 -2 20 -6 48 -9 61 -2 13 -7 45 -11 70
-3 25 -8 57 -10 71 -6 38 -33 240 -38 285 -3 22 -10 78 -15 125 -6 47 -13 114
-16 150 -3 36 -8 72 -10 80 -2 8 -6 49 -10 90 -3 41 -8 95 -11 120 -2 25 -7
74 -9 110 -5 73 -16 210 -18 225 -3 14 34 7 128 -22 369 -116 765 -349 1059
-623 257 -240 410 -467 456 -674 26 -116 8 -355 -42 -551 -153 -613 -642
-1310 -1268 -1811 -266 -213 -643 -458 -902 -587 -262 -130 -628 -260 -794
-282 l-32 -5 1 73 c2 111 -36 170 -103 160 -28 -4 -42 -19 -75 -84 -52 -100
-76 -201 -76 -308 1 -165 60 -214 254 -207 56 2 116 7 132 11 94 20 255 69
330 100 232 95 368 160 569 273 483 271 923 598 1242 923 469 480 787 939 947
1369 39 104 93 285 102 340 3 19 10 58 15 85 9 51 20 133 26 195 2 19 3 96 4
170 1 205 -30 341 -120 525 -113 233 -297 462 -530 658 -47 40 -87 74 -90 77
-9 10 -153 115 -220 161 -415 286 -930 503 -1385 584 -16 3 -82 8 -145 11
-143 7 -229 -13 -375 -86 -112 -56 -193 -113 -277 -197 -58 -56 -58 -56 -58
-27 -2 102 -39 229 -79 270 -52 53 -152 68 -267 38z"/>
</g>
</svg>
