<svg id="icones_interets" xmlns="http://www.w3.org/2000/svg" width="904.151" height="172.972" viewBox="0 0 904.151 172.972">
  <g id="Groupe_76" data-name="Groupe 76">
    <path id="Tracé_84" data-name="Tracé 84" d="M442.74,30.8H29.954c-13.042,0-19.889,6.2-19.889,18.585v7.5H5.5V51.017c0-16.629,8.151-25.106,24.128-25.106H442.74c8.151,0,12.39-3.587,12.39-10.76V7h4.565v8.477q0,10.76,12.716,10.76H885.523c16.3,0,24.128,8.477,24.128,25.106v5.869h-4.565v-7.5c0-12.39-6.521-18.585-19.889-18.585H472.411a25.274,25.274,0,0,1-9.782-1.63,10.933,10.933,0,0,1-4.891-5.869,12.545,12.545,0,0,1-4.891,5.869,40.125,40.125,0,0,1-10.108,1.3" transform="translate(-5.5 -7)" fill="#070b1d"/>
  </g>
  <g id="Groupe_77" data-name="Groupe 77" transform="translate(219.598 60.185)">
    <path id="Tracé_85" data-name="Tracé 85" d="M229.708,32.306l1.545,17.661.572-6.576,28.521,5.033h28.861l-3.666,40.993a28.514,28.514,0,0,1-9.321,18.745,28.886,28.886,0,0,1-19.428,7.531c-.815,0-1.641-.035-2.455-.1a28.972,28.972,0,0,1-25.853-23.842,28.469,28.469,0,0,1-8.026,8.018,29.562,29.562,0,0,1-13.246,4.737c-.829.071-1.655.106-2.47.106a28.886,28.886,0,0,1-19.428-7.532,28.516,28.516,0,0,1-9.321-18.748l-3.666-40.989h28.861Zm.736,27.113-2.2-25.2L201.33,38.97H174.109l3.507,39.217a26.893,26.893,0,0,0,8.792,17.682,27.259,27.259,0,0,0,18.333,7.109c.769,0,1.548-.033,2.317-.1a27.913,27.913,0,0,0,12.5-4.473,26.636,26.636,0,0,0,8.7-9.45l1.269-2.343.259,2.652a27.363,27.363,0,0,0,24.7,24.7c.761.065,1.54.1,2.309.1a27.259,27.259,0,0,0,18.333-7.109,26.891,26.891,0,0,0,8.792-17.679l3.508-39.221H260.2l-26.908-4.749-1.227,14.112Z" transform="translate(152.022 -9.979)" fill="#070b1d"/>
    <path id="Tracé_86" data-name="Tracé 86" d="M89.642,111.587c-5.276,0-9.612-1.261-12.538-3.648a11.5,11.5,0,0,1-4.253-9.231A11.636,11.636,0,0,1,77.1,89.6c2.972-2.469,7.31-3.775,12.544-3.775a23.96,23.96,0,0,1,6.024.7l-.324-46.267,58.043-6.039V92.839a11.636,11.636,0,0,1-4.248,9.1c-2.972,2.469-7.31,3.775-12.544,3.775-5.276,0-9.612-1.261-12.538-3.648a11.5,11.5,0,0,1-4.253-9.231,11.636,11.636,0,0,1,4.248-9.1c2.972-2.469,7.31-3.775,12.544-3.775a23.953,23.953,0,0,1,6.032.7V48.421l-36.192,3.744V98.708a11.636,11.636,0,0,1-4.248,9.1C99.214,110.282,94.876,111.587,89.642,111.587Zm0-24.128c-4.849,0-8.826,1.175-11.5,3.4a9.9,9.9,0,0,0-3.659,7.85c0,7.044,5.668,11.249,15.162,11.249,4.849,0,8.826-1.175,11.5-3.4a9.9,9.9,0,0,0,3.659-7.85V50.695l39.453-4.081V82.884l-1.073-.358a20.973,20.973,0,0,0-6.589-.936c-4.849,0-8.826,1.175-11.5,3.4a9.9,9.9,0,0,0-3.659,7.85c0,7.044,5.668,11.249,15.162,11.249,4.849,0,8.826-1.175,11.5-3.4a9.9,9.9,0,0,0,3.659-7.85V36.031l-54.772,5.7.329,47.025-1.081-.36A20.972,20.972,0,0,0,89.642,87.459Z" transform="translate(-72.85 -5.647)" fill="#070b1d"/>
    <path id="Tracé_87" data-name="Tracé 87" d="M291.555,123.78h-.326c-3.869,0-7.983-.772-8.569-2.891-10.19-5.15-31.762-6.239-48.164-6.239a2.365,2.365,0,0,1-2.445-2.445V37.538a2.365,2.365,0,0,1,2.445-2.445h3.424V32a2.365,2.365,0,0,1,2.445-2.445h.326c15.471,0,28.066,1.633,37.435,4.854,7.211,2.479,11.236,5.492,13.429,7.79,2.194-2.3,6.219-5.311,13.429-7.79,9.369-3.221,21.964-4.854,37.435-4.854h.326A2.365,2.365,0,0,1,345.191,32v3.1h3.424a2.365,2.365,0,0,1,2.445,2.445V112.2c0,1.116-.594,2.445-3.424,2.445-16.454,0-38.109,1.095-48.259,6.287C298.572,122.582,295.347,123.78,291.555,123.78ZM234.5,36.723a.735.735,0,0,0-.815.815V112.2a.735.735,0,0,0,.815.815c13.779,0,25.219.73,34,2.171,6.627,1.087,11.771,2.582,15.289,4.445l.434.23v.491c0,.644,2.343,1.793,7.01,1.793h.326c3.864,0,6.209-1.3,6.382-1.991l.088-.353.321-.17c3.518-1.863,8.662-3.358,15.289-4.445,8.782-1.44,20.222-2.171,34-2.171,1.793,0,1.793-.53,1.793-.815V37.538a.735.735,0,0,0-.815-.815h-5.054V32a.735.735,0,0,0-.815-.815h-.326c-15.29,0-27.707,1.6-36.905,4.765-7.6,2.614-11.452,5.789-13.34,7.993l-.619.722-.619-.722c-1.889-2.2-5.736-5.379-13.34-7.993-9.2-3.162-21.615-4.765-36.905-4.765h-.326a.735.735,0,0,0-.815.815v4.728Zm59.179,77.095V47.128l.086-.172c.45-.9,2.474-4.07,9.625-7.071,8.458-3.55,20.709-5.491,36.412-5.769l.83-.015v68.8l-.805.01c-14.544.18-34.13,2.051-44.848,9.949Zm1.63-66.29v63.118a48.106,48.106,0,0,1,14.057-5.873c8.029-2.12,18-3.29,29.635-3.48V35.761c-15.1.327-26.862,2.219-34.98,5.626C297.7,44.04,295.736,46.8,295.3,47.528Zm-5.217,66.29-1.3-.957c-10.718-7.9-30.3-9.769-44.848-9.949l-.805-.01V34.434l.822.007c15.76.138,28.057,2.081,36.551,5.774,6.417,2.79,8.755,5.833,9.463,7.012l.116.194Zm-45.322-12.524c11.639.19,21.606,1.36,29.635,3.48a48.107,48.107,0,0,1,14.057,5.873V47.88c-1.5-2.292-9.587-11.359-43.691-11.8Z" transform="translate(287.03 -16.209)" fill="#070b1d"/>
    <path id="Tracé_88" data-name="Tracé 88" d="M194.181,25.458l5.706,9.89-72.234,41.6H211v54.614a6.692,6.692,0,0,1-6.684,6.684H130.627a6.692,6.692,0,0,1-6.684-6.684V79.7a2.212,2.212,0,0,1-1.3-1.937,1.705,1.705,0,0,1,.462-1.1l-4.341-7.68Zm3.478,9.292-4.076-7.065-72.609,41.9,3.976,7.035ZM209.37,78.578h-83.8v8.151h83.8Zm0,11.412h-83.8v41.572a5,5,0,0,0,5.054,5.054h73.688a5,5,0,0,0,5.054-5.054Z" transform="translate(30.933 -25.458)" fill="#070b1d"/>
  </g>
  <path id="Tracé_89" data-name="Tracé 89" d="M199.479,48.973h-7.173l5.217-7.173H204.7Zm-14.346,0H177.96l5.217-7.173h7.173Zm-14.346,0h-7.173L168.83,41.8H176Zm-14.346,0h-7.173l5.217-7.173h7.173Zm-14.346,0H134.92l5.217-7.173h7.173Zm-14.02,0H120.9l5.217-7.173h7.173Z" transform="translate(255.368 71.667)" fill="#070b1d"/>
  <path id="Tracé_90" data-name="Tracé 90" d="M122.078,64.322l5.869-3.261-.978,8.477L121.1,72.8Zm12.064-6.847,5.869-3.261-.978,8.477-5.869,3.261ZM145.88,50.3l5.869-3.261-.978,8.477L144.9,58.779Zm12.064-6.847,5.869-3.261-.978,8.477-5.869,3.261Zm12.064-6.847,5.869-3.261-.978,8.477-5.869,3.261Zm12.064-6.847,5.869-3.261-.978,8.477-5.869,3.261Z" transform="translate(255.82 37.081)" fill="#070b1d"/>
  <path id="Tracé_91" data-name="Tracé 91" d="M130.75,48.248l18.978,11.908L130.75,72.063Zm15.91,11.908L132.38,51.2v17.92Z" transform="translate(277.634 86.243)" fill="#070b1d"/>
  <g id="Groupe_78" data-name="Groupe 78" transform="translate(45.159 85.555)">
    <path id="Tracé_92" data-name="Tracé 92" d="M210.331,44.281a55.721,55.721,0,0,0-8.8,1.3c-.326-2.934,2.608-6.2,8.151-6.521,5.543-.652,9.13,2.282,9.13,5.217.326-.326-3.913-.326-8.477,0m-35.214,3.587c-.326-2.935,2.608-6.2,8.151-6.521,5.543-.652,9.13,2.282,9.13,5.217,0,0-3.913,0-8.8.326a35.558,35.558,0,0,0-8.477.978" transform="translate(332.714 -20.281)" fill="#070b1d"/>
    <path id="Tracé_93" data-name="Tracé 93" d="M226.9,51.5c-5.543-.652-8.477-3.913-8.151-6.521a55.722,55.722,0,0,0,8.8,1.3c4.891.326,8.8.326,8.8.326-.652,2.608-3.913,5.543-9.456,4.891m-34.888-8.8a55.722,55.722,0,0,0,8.8,1.3c4.891.326,8.8.326,8.8.326-.326,2.934-3.587,5.543-9.13,5.217-5.869-.652-8.8-4.239-8.477-6.847" transform="translate(370.917 -11.853)" fill="#070b1d"/>
    <path id="Tracé_94" data-name="Tracé 94" d="M256.353,68.247a79.861,79.861,0,0,1-13.694,0,64.687,64.687,0,0,1-13.368-2.608c.652-5.869,5.869-11.738,14.672-11.086,8.477.978,13.042,7.825,12.39,13.694M192.773,60.1c-8.8.652-14.02-4.891-14.672-11.086A64.686,64.686,0,0,1,191.468,46.4a79.862,79.862,0,0,1,13.694,0c.652,6.2-3.587,12.716-12.39,13.694" transform="translate(339.512 -4.142)" fill="#070b1d"/>
    <path id="Tracé_95" data-name="Tracé 95" d="M60.922,33.75a41.452,41.452,0,0,1,41.572,40.908c0,13.521-6.236,14.652-12.082,14.652-.831,0-1.687-.025-2.514-.05s-1.685-.05-2.516-.05c-2.955,0-6,.286-8.257,2.362-2.373,2.157-2.275,5.762-2.172,9.578.108,4.02.221,8.176-2.582,11.055-2.216,2.277-5.961,3.384-11.448,3.384a41.643,41.643,0,0,1-29.387-11.972,40.478,40.478,0,0,1,0-57.9A41.643,41.643,0,0,1,60.922,33.75Zm29.49,53.93c2.679,0,5.423-.244,7.348-2.014,2.089-1.92,3.1-5.517,3.1-11A40.087,40.087,0,0,0,32.678,46.884a38.847,38.847,0,0,0,0,55.571,40.022,40.022,0,0,0,28.244,11.5c5.024,0,8.387-.946,10.28-2.891,2.322-2.386,2.224-6.023,2.12-9.874-.108-4.016-.22-8.169,2.7-10.825,2.671-2.457,6.229-2.789,9.357-2.789.855,0,1.724.026,2.564.05C88.761,87.655,89.605,87.68,90.412,87.68ZM60.922,41.9a7.962,7.962,0,1,1-7.988,7.988A7.813,7.813,0,0,1,60.922,41.9Zm0,14.346a6.358,6.358,0,1,0,0-12.716,6.219,6.219,0,0,0-6.358,6.358A6.443,6.443,0,0,0,60.922,56.248ZM39.135,53.953a8.893,8.893,0,0,1,4.244,1.09l.077.048a8.537,8.537,0,0,1,2.857,11.166,7.78,7.78,0,0,1-6.97,4.024A8.893,8.893,0,0,1,35.1,69.19a7.641,7.641,0,0,1-3.784-4.965,8.713,8.713,0,0,1,.851-6.249A7.78,7.78,0,0,1,39.135,53.953Zm3.423,2.5a7.256,7.256,0,0,0-3.423-.869A6.173,6.173,0,0,0,33.6,58.757a7.087,7.087,0,0,0-.7,5.081,6.029,6.029,0,0,0,2.981,3.92,7.258,7.258,0,0,0,3.463.891,6.173,6.173,0,0,0,5.538-3.174A6.925,6.925,0,0,0,42.559,56.453Zm39.749-2.5a8.238,8.238,0,0,1,7.016,3.977l.041.073a8.44,8.44,0,0,1-2.918,11.171l-.029.017a8.75,8.75,0,0,1-4.169,1.09A8.238,8.238,0,0,1,75.233,66.3l-.028-.047a8.282,8.282,0,0,1,2.886-11.186l.047-.028A8.75,8.75,0,0,1,82.308,53.953Zm5.618,4.816a6.632,6.632,0,0,0-5.618-3.186,7.111,7.111,0,0,0-3.364.878A6.542,6.542,0,0,0,82.249,68.65a7.113,7.113,0,0,0,3.374-.883A6.741,6.741,0,0,0,87.926,58.769ZM74.507,77.05a5.085,5.085,0,0,1,4.374,2.059l.051.088c1.229,2.458-.349,5.8-3.594,7.6a8.715,8.715,0,0,1-4.2,1.146,5.085,5.085,0,0,1-4.374-2.059,3.693,3.693,0,0,1-.467-2.994,7.925,7.925,0,0,1,4.01-4.692A8.715,8.715,0,0,1,74.507,77.05ZM77.5,79.97a3.528,3.528,0,0,0-2.988-1.29,7.085,7.085,0,0,0-3.408.941,6.391,6.391,0,0,0-3.217,3.651,2.08,2.08,0,0,0,.239,1.706,3.5,3.5,0,0,0,3.017,1.333,7.084,7.084,0,0,0,3.408-.941C77.164,83.915,78.174,81.42,77.5,79.97Zm-38.227-.911a8.238,8.238,0,0,1,7.016,3.977l.028.047a8.537,8.537,0,0,1-2.857,11.166l-.077.048a8.75,8.75,0,0,1-4.169,1.09,8.237,8.237,0,0,1-7.016-3.977l-.028-.047a8.282,8.282,0,0,1,2.886-11.186l.047-.028A8.75,8.75,0,0,1,39.269,79.059ZM44.9,83.888a6.633,6.633,0,0,0-5.626-3.2,7.111,7.111,0,0,0-3.364.878A6.542,6.542,0,0,0,39.21,93.757a7.109,7.109,0,0,0,3.349-.869A6.926,6.926,0,0,0,44.9,83.888Zm16.027,7.9a8.052,8.052,0,1,1-5.63,2.358A7.924,7.924,0,0,1,60.922,91.788Zm0,14.346a6.358,6.358,0,1,0-6.358-6.358A6.443,6.443,0,0,0,60.922,106.134Z" transform="translate(-19.35 -32.085)" fill="#070b1d"/>
    <path id="Tracé_96" data-name="Tracé 96" d="M47.024,114.292h0a25.473,25.473,0,0,1-6.965-.85l-2.073-.691L40,111.915c6.31-2.611,7.054-4.749,8.085-7.707a20.194,20.194,0,0,1,1.949-4.329,5.255,5.255,0,0,1,4.869-3.269,11.252,11.252,0,0,1,2.533.368l.208.048a7.193,7.193,0,0,1,1.207-3.036l.031-.048C75.028,70.906,86.009,56.548,92.379,48.558c12.213-15.319,13.755-15.319,14.335-15.319a1,1,0,0,1,.606.2c.716.537.674,1.542-1.5,5.8-1.568,3.072-4.092,7.47-7.3,12.72-5.367,8.782-15.233,24.2-31.761,47.787a5.373,5.373,0,0,1-2.585,2.473c.21,1.639-.837,3.421-1.963,5C59.089,113.371,51.362,114.292,47.024,114.292Zm-4.116-1.911a29.889,29.889,0,0,0,4.115.281h0c3.975,0,11.047-.809,13.756-6.227l.029-.057.037-.052c1.548-2.167,2.016-3.476,1.564-4.379l-.59-1.18H63.14c.732,0,1.484-.635,2.236-1.887l.031-.048c15.835-22.6,25.509-37.64,30.836-46.281,5.9-9.573,8.522-14.609,9.445-16.843-1.783,1.622-5.612,5.779-12.567,14.537-6.3,7.93-17.113,22.106-32.883,44.609-.994,1.661-1.079,2.316-.889,2.885l.358,1.073H58.575a7.078,7.078,0,0,1-1.5-.244,9.8,9.8,0,0,0-2.167-.327c-.956,0-2.351.249-3.428,2.4l-.038.067a18.51,18.51,0,0,0-1.812,4.034C48.678,107.474,47.841,109.876,42.908,112.381Z" transform="translate(22.776 -33.239)" fill="#070b1d"/>
  </g>
</svg>
