<?xml version="1.0" encoding="utf-8"?>
<!-- Generator: Adobe Illustrator 25.4.1, SVG Export Plug-In . SVG Version: 6.00 Build 0)  -->
<svg version="1.1" id="Calque_1" xmlns="http://www.w3.org/2000/svg" xmlns:xlink="http://www.w3.org/1999/xlink" x="0px" y="0px"
	 viewBox="0 0 1088 800" style="enable-background:new 0 0 1088 800;" xml:space="preserve">
<style type="text/css">
	.st0{fill:none;stroke:#F23D47;stroke-miterlimit:10;}
	.st1{fill:none;stroke:#F23D47;stroke-width:2;stroke-miterlimit:10;}
	.st2{fill:#1D1D1B;}
	.st3{fill:none;stroke:#F23D47;stroke-width:0.5;stroke-miterlimit:10;}
</style>
<g>
	<path class="st0" d="M57.7,660.6c0,0,11-32.8,1.7-65.5"/>
	<path class="st1" d="M304,646.7c0,0,9.4,11.9,9.4,33.8s-9.4,33.8-9.4,33.8L49.7,658.8"/>
	<polyline class="st1" points="90.7,576.4 49.7,593 304,646.7 540.4,533.5 	"/>
	<path class="st1" d="M304,714.2l237-119.8c0,0,4.1-8.3,4.4-29.1c0.3-20.5-5-31.8-5-31.8l-42.6-7.5"/>
	<g>
		<path class="st0" d="M87,589c0,0,9.4-30.7,1.4-61.3"/>
		<path class="st1" d="M298,574.2c-2.9-3.2,8,14.4,8,31.6c0,20.5-8,31.6-8,31.6L82.8,588.7"/>
		<path class="st1" d="M298,637.4l203.1-112.1c0,0,3.5-7.8,3.8-27.3c0.3-19.2-4.3-29.7-4.3-29.7L301.5,444L80.1,524L298,574.2
			l202.6-105.9"/>
	</g>
</g>
<path class="st1" d="M813.1,399.1l-340,42.3c-15.5,0-24.6-9.3-28.1-28.1l-44.5-262.6c-3.4-17.3,12.6-28.1,28.1-28.1h340
	c15.5,0,23.3,5.8,28.1,28.1L841.1,371C841.1,386.5,828.6,399.1,813.1,399.1z"/>
<path class="st1" d="M467.4,462.5c0-12.4-7.3-18.2,22.4-22.4l335.9-43c12.2,0,22.1,10.3,22.1,10.3l165.9,114.2
	c8.3,8,9.3,16.6-10.7,20.6l-347.5,66.3c-24.8,1.3-23.8-2.1-34.7-11L506.4,496.8"/>
<path class="st1" d="M815.6,384.5L479.3,426c-12.6,1.2-14.2-3.8-17.3-25.4l-37.2-232.8c-2.8-16.9,1.2-25.4,15.2-25.4h322.5
	c14,0,21.2,0,25.8,17L828,360.4C830.3,372.9,828.3,382.5,815.6,384.5z"/>
<path class="st1" d="M898.8,479.7l-306.7,51.1c-22.4,1.2-21.5-1.9-31.4-9.9l-66.6-54.5c0-11.2,1.1-13.1,16-16L825,407.3
	c11,0,20,9.3,20,9.3l63.5,44.6C916,468.4,916.9,476.1,898.8,479.7z"/>
<path class="st1" d="M868,542.8l-103.6,18c-9.4,1.7-9.7-0.7-14-4.4l-29.6-24.2c-4-4.4-1.9-6.9,3.1-7.8l105.3-17.8
	c4.7-0.2,7.3,2.8,7.3,2.8l35.7,25.3C875.6,537.8,876,541.2,868,542.8z"/>
<g>
	<path class="st2" d="M406.1,902.8h-12.4c-1.1,0-2-0.9-2-2V894c0-1.1,0.9-2,2-2h12.4c1.1,0,2,0.9,2,2v6.9
		C408.1,901.9,407.2,902.8,406.1,902.8z"/>
	<path class="st2" d="M427.8,902.8h-12.4c-1.1,0-2-0.9-2-2V894c0-1.1,0.9-2,2-2h12.4c1.1,0,2,0.9,2,2v6.9
		C429.8,901.9,428.9,902.8,427.8,902.8z"/>
	<path class="st2" d="M449.4,902.8H437c-1.1,0-2-0.9-2-2V894c0-1.1,0.9-2,2-2h12.4c1.1,0,2,0.9,2,2v6.9
		C451.4,901.9,450.5,902.8,449.4,902.8z"/>
	<path class="st2" d="M471.1,902.8h-12.4c-1.1,0-2-0.9-2-2V894c0-1.1,0.9-2,2-2h12.4c1.1,0,2,0.9,2,2v6.9
		C473.1,901.9,472.2,902.8,471.1,902.8z"/>
	<path class="st2" d="M492.8,902.8h-12.4c-1.1,0-2-0.9-2-2V894c0-1.1,0.9-2,2-2h12.4c1.1,0,2,0.9,2,2v6.9
		C494.8,901.9,493.9,902.8,492.8,902.8z"/>
	<path class="st2" d="M514.5,902.8H502c-1.1,0-2-0.9-2-2V894c0-1.1,0.9-2,2-2h12.4c1.1,0,2,0.9,2,2v6.9
		C516.5,901.9,515.6,902.8,514.5,902.8z"/>
	<path class="st2" d="M536.1,902.8h-12.4c-1.1,0-2-0.9-2-2V894c0-1.1,0.9-2,2-2h12.4c1.1,0,2,0.9,2,2v6.9
		C538.1,901.9,537.2,902.8,536.1,902.8z"/>
	<path class="st2" d="M557.8,902.8h-12.4c-1.1,0-2-0.9-2-2V894c0-1.1,0.9-2,2-2h12.4c1.1,0,2,0.9,2,2v6.9
		C559.8,901.9,558.9,902.8,557.8,902.8z"/>
	<path class="st2" d="M579.5,902.8h-12.4c-1.1,0-2-0.9-2-2V894c0-1.1,0.9-2,2-2h12.4c1.1,0,2,0.9,2,2v6.9
		C581.5,901.9,580.6,902.8,579.5,902.8z"/>
	<path class="st2" d="M601.2,902.8h-12.4c-1.1,0-2-0.9-2-2V894c0-1.1,0.9-2,2-2h12.4c1.1,0,2,0.9,2,2v6.9
		C603.2,901.9,602.3,902.8,601.2,902.8z"/>
	<path class="st2" d="M622.9,902.8h-12.4c-1.1,0-2-0.9-2-2V894c0-1.1,0.9-2,2-2h12.4c1.1,0,2,0.9,2,2v6.9
		C624.9,901.9,624,902.8,622.9,902.8z"/>
	<path class="st2" d="M644.5,902.8h-12.4c-1.1,0-2-0.9-2-2V894c0-1.1,0.9-2,2-2h12.4c1.1,0,2,0.9,2,2v6.9
		C646.5,901.9,645.6,902.8,644.5,902.8z"/>
	<path class="st2" d="M666.2,902.8h-12.4c-1.1,0-2-0.9-2-2V894c0-1.1,0.9-2,2-2h12.4c1.1,0,2,0.9,2,2v6.9
		C668.2,901.9,667.3,902.8,666.2,902.8z"/>
	<path class="st2" d="M687.9,902.8h-12.4c-1.1,0-2-0.9-2-2V894c0-1.1,0.9-2,2-2h12.4c1.1,0,2,0.9,2,2v6.9
		C689.9,901.9,689,902.8,687.9,902.8z"/>
	<path class="st2" d="M709.6,902.8h-12.4c-1.1,0-2-0.9-2-2V894c0-1.1,0.9-2,2-2h12.4c1.1,0,2,0.9,2,2v6.9
		C711.6,901.9,710.7,902.8,709.6,902.8z"/>
	<path class="st2" d="M681.2,978.9h-6.5c-1.1,0-2-0.9-2-2v-3.6c0-1.1,0.9-2,2-2h6.5c1.1,0,2,0.9,2,2v3.6
		C683.2,978.1,682.3,978.9,681.2,978.9z"/>
	<path class="st2" d="M695,978.9h-6.5c-1.1,0-2-0.9-2-2v-3.6c0-1.1,0.9-2,2-2h6.5c1.1,0,2,0.9,2,2v3.6
		C697,978.1,696.1,978.9,695,978.9z"/>
	<path class="st2" d="M695,969.4h-6.5c-1.1,0-2-0.9-2-2v-3.6c0-1.1,0.9-2,2-2h6.5c1.1,0,2,0.9,2,2v3.6
		C697,968.5,696.1,969.4,695,969.4z"/>
	<path class="st2" d="M708.8,978.9h-6.5c-1.1,0-2-0.9-2-2v-3.6c0-1.1,0.9-2,2-2h6.5c1.1,0,2,0.9,2,2v3.6
		C710.8,978.1,709.9,978.9,708.8,978.9z"/>
	<path class="st2" d="M406.9,921.9h-13.2c-1.1,0-2-0.9-2-2v-11.2c0-1.1,0.9-2,2-2h13.2c1.1,0,2,0.9,2,2v11.2
		C408.9,921,408,921.9,406.9,921.9z"/>
	<path class="st2" d="M429.6,921.9h-13.2c-1.1,0-2-0.9-2-2v-11.2c0-1.1,0.9-2,2-2h13.2c1.1,0,2,0.9,2,2v11.2
		C431.6,921,430.7,921.9,429.6,921.9z"/>
	<path class="st2" d="M452.3,921.9h-13.2c-1.1,0-2-0.9-2-2v-11.2c0-1.1,0.9-2,2-2h13.2c1.1,0,2,0.9,2,2v11.2
		C454.3,921,453.4,921.9,452.3,921.9z"/>
	<path class="st2" d="M475.1,921.9h-13.2c-1.1,0-2-0.9-2-2v-11.2c0-1.1,0.9-2,2-2h13.2c1.1,0,2,0.9,2,2v11.2
		C477.1,921,476.2,921.9,475.1,921.9z"/>
	<path class="st2" d="M497.8,921.9h-13.2c-1.1,0-2-0.9-2-2v-11.2c0-1.1,0.9-2,2-2h13.2c1.1,0,2,0.9,2,2v11.2
		C499.8,921,498.9,921.9,497.8,921.9z"/>
	<path class="st2" d="M520.5,921.9h-13.2c-1.1,0-2-0.9-2-2v-11.2c0-1.1,0.9-2,2-2h13.2c1.1,0,2,0.9,2,2v11.2
		C522.5,921,521.6,921.9,520.5,921.9z"/>
	<path class="st2" d="M543.3,921.9H530c-1.1,0-2-0.9-2-2v-11.2c0-1.1,0.9-2,2-2h13.2c1.1,0,2,0.9,2,2v11.2
		C545.3,921,544.4,921.9,543.3,921.9z"/>
	<path class="st2" d="M566,921.9h-13.2c-1.1,0-2-0.9-2-2v-11.2c0-1.1,0.9-2,2-2H566c1.1,0,2,0.9,2,2v11.2
		C568,921,567.1,921.9,566,921.9z"/>
	<path class="st2" d="M588.7,921.9h-13.2c-1.1,0-2-0.9-2-2v-11.2c0-1.1,0.9-2,2-2h13.2c1.1,0,2,0.9,2,2v11.2
		C590.7,921,589.8,921.9,588.7,921.9z"/>
	<path class="st2" d="M611.5,921.9h-13.2c-1.1,0-2-0.9-2-2v-11.2c0-1.1,0.9-2,2-2h13.2c1.1,0,2,0.9,2,2v11.2
		C613.5,921,612.6,921.9,611.5,921.9z"/>
	<path class="st2" d="M634.2,921.9H621c-1.1,0-2-0.9-2-2v-11.2c0-1.1,0.9-2,2-2h13.2c1.1,0,2,0.9,2,2v11.2
		C636.2,921,635.3,921.9,634.2,921.9z"/>
	<path class="st2" d="M656.9,921.9h-13.2c-1.1,0-2-0.9-2-2v-11.2c0-1.1,0.9-2,2-2h13.2c1.1,0,2,0.9,2,2v11.2
		C658.9,921,658,921.9,656.9,921.9z"/>
	<path class="st2" d="M679.7,921.9h-13.2c-1.1,0-2-0.9-2-2v-11.2c0-1.1,0.9-2,2-2h13.2c1.1,0,2,0.9,2,2v11.2
		C681.7,921,680.8,921.9,679.7,921.9z"/>
	<path class="st2" d="M709.6,921.9h-22.1c-1.1,0-2-0.9-2-2v-11.2c0-1.1,0.9-2,2-2h22.1c1.1,0,2,0.9,2,2v11.2
		C711.6,921,710.7,921.9,709.6,921.9z"/>
	<path class="st2" d="M657.8,925.7h13.2c1.1,0,2,0.9,2,2v11.2c0,1.1-0.9,2-2,2h-13.2c-1.1,0-2-0.9-2-2v-11.2
		C655.8,926.6,656.7,925.7,657.8,925.7z"/>
	<path class="st2" d="M635.1,925.7h13.2c1.1,0,2,0.9,2,2v11.2c0,1.1-0.9,2-2,2h-13.2c-1.1,0-2-0.9-2-2v-11.2
		C633.1,926.6,634,925.7,635.1,925.7z"/>
	<path class="st2" d="M612.4,925.7h13.2c1.1,0,2,0.9,2,2v11.2c0,1.1-0.9,2-2,2h-13.2c-1.1,0-2-0.9-2-2v-11.2
		C610.4,926.6,611.3,925.7,612.4,925.7z"/>
	<path class="st2" d="M589.6,925.7h13.2c1.1,0,2,0.9,2,2v11.2c0,1.1-0.9,2-2,2h-13.2c-1.1,0-2-0.9-2-2v-11.2
		C587.6,926.6,588.5,925.7,589.6,925.7z"/>
	<path class="st2" d="M566.9,925.7h13.2c1.1,0,2,0.9,2,2v11.2c0,1.1-0.9,2-2,2h-13.2c-1.1,0-2-0.9-2-2v-11.2
		C564.9,926.6,565.8,925.7,566.9,925.7z"/>
	<path class="st2" d="M544.2,925.7h13.2c1.1,0,2,0.9,2,2v11.2c0,1.1-0.9,2-2,2h-13.2c-1.1,0-2-0.9-2-2v-11.2
		C542.2,926.6,543.1,925.7,544.2,925.7z"/>
	<path class="st2" d="M521.4,925.7h13.2c1.1,0,2,0.9,2,2v11.2c0,1.1-0.9,2-2,2h-13.2c-1.1,0-2-0.9-2-2v-11.2
		C519.4,926.6,520.3,925.7,521.4,925.7z"/>
	<path class="st2" d="M498.7,925.7h13.2c1.1,0,2,0.9,2,2v11.2c0,1.1-0.9,2-2,2h-13.2c-1.1,0-2-0.9-2-2v-11.2
		C496.7,926.6,497.6,925.7,498.7,925.7z"/>
	<path class="st2" d="M476,925.7h13.2c1.1,0,2,0.9,2,2v11.2c0,1.1-0.9,2-2,2H476c-1.1,0-2-0.9-2-2v-11.2
		C474,926.6,474.9,925.7,476,925.7z"/>
	<path class="st2" d="M453.2,925.7h13.2c1.1,0,2,0.9,2,2v11.2c0,1.1-0.9,2-2,2h-13.2c-1.1,0-2-0.9-2-2v-11.2
		C451.2,926.6,452.1,925.7,453.2,925.7z"/>
	<path class="st2" d="M430.5,925.7h13.2c1.1,0,2,0.9,2,2v11.2c0,1.1-0.9,2-2,2h-13.2c-1.1,0-2-0.9-2-2v-11.2
		C428.5,926.6,429.4,925.7,430.5,925.7z"/>
	<path class="st2" d="M393.6,925.7H421c1.1,0,2,0.9,2,2v11.2c0,1.1-0.9,2-2,2h-27.3c-1.1,0-2-0.9-2-2v-11.2
		C391.6,926.6,392.5,925.7,393.6,925.7z"/>
	<path class="st2" d="M680.9,925.7h27.9c1.1,0,2,0.9,2,2v11.2c0,1.1-0.9,2-2,2h-27.9c-1.1,0-2-0.9-2-2v-11.2
		C678.9,926.6,679.8,925.7,680.9,925.7z"/>
	<path class="st2" d="M646.5,944.7h13.2c1.1,0,2,0.9,2,2v11.2c0,1.1-0.9,2-2,2h-13.2c-1.1,0-2-0.9-2-2v-11.2
		C644.5,945.6,645.4,944.7,646.5,944.7z"/>
	<path class="st2" d="M623.7,944.7H637c1.1,0,2,0.9,2,2v11.2c0,1.1-0.9,2-2,2h-13.2c-1.1,0-2-0.9-2-2v-11.2
		C621.7,945.6,622.6,944.7,623.7,944.7z"/>
	<path class="st2" d="M601,944.7h13.2c1.1,0,2,0.9,2,2v11.2c0,1.1-0.9,2-2,2H601c-1.1,0-2-0.9-2-2v-11.2
		C599,945.6,599.9,944.7,601,944.7z"/>
	<path class="st2" d="M578.3,944.7h13.2c1.1,0,2,0.9,2,2v11.2c0,1.1-0.9,2-2,2h-13.2c-1.1,0-2-0.9-2-2v-11.2
		C576.3,945.6,577.2,944.7,578.3,944.7z"/>
	<path class="st2" d="M555.5,944.7h13.2c1.1,0,2,0.9,2,2v11.2c0,1.1-0.9,2-2,2h-13.2c-1.1,0-2-0.9-2-2v-11.2
		C553.5,945.6,554.4,944.7,555.5,944.7z"/>
	<path class="st2" d="M532.8,944.7H546c1.1,0,2,0.9,2,2v11.2c0,1.1-0.9,2-2,2h-13.2c-1.1,0-2-0.9-2-2v-11.2
		C530.8,945.6,531.7,944.7,532.8,944.7z"/>
	<path class="st2" d="M510.1,944.7h13.2c1.1,0,2,0.9,2,2v11.2c0,1.1-0.9,2-2,2h-13.2c-1.1,0-2-0.9-2-2v-11.2
		C508.1,945.6,509,944.7,510.1,944.7z"/>
	<path class="st2" d="M487.3,944.7h13.2c1.1,0,2,0.9,2,2v11.2c0,1.1-0.9,2-2,2h-13.2c-1.1,0-2-0.9-2-2v-11.2
		C485.3,945.6,486.2,944.7,487.3,944.7z"/>
	<path class="st2" d="M464.6,944.7h13.2c1.1,0,2,0.9,2,2v11.2c0,1.1-0.9,2-2,2h-13.2c-1.1,0-2-0.9-2-2v-11.2
		C462.6,945.6,463.5,944.7,464.6,944.7z"/>
	<path class="st2" d="M441.9,944.7h13.2c1.1,0,2,0.9,2,2v11.2c0,1.1-0.9,2-2,2h-13.2c-1.1,0-2-0.9-2-2v-11.2
		C439.9,945.6,440.8,944.7,441.9,944.7z"/>
	<path class="st2" d="M439.1,963.7h13.2c1.1,0,2,0.9,2,2v11.2c0,1.1-0.9,2-2,2h-13.2c-1.1,0-2-0.9-2-2v-11.2
		C437.1,964.6,438,963.7,439.1,963.7z"/>
	<path class="st2" d="M652,963.7h13.2c1.1,0,2,0.9,2,2v11.2c0,1.1-0.9,2-2,2H652c-1.1,0-2-0.9-2-2v-11.2
		C650,964.6,650.9,963.7,652,963.7z"/>
	<path class="st2" d="M460.8,963.7h18.7c1.1,0,2,0.9,2,2v11.2c0,1.1-0.9,2-2,2h-18.7c-1.1,0-2-0.9-2-2v-11.2
		C458.8,964.6,459.7,963.7,460.8,963.7z"/>
	<path class="st2" d="M623.7,963.7h18.7c1.1,0,2,0.9,2,2v11.2c0,1.1-0.9,2-2,2h-18.7c-1.1,0-2-0.9-2-2v-11.2
		C621.7,964.6,622.6,963.7,623.7,963.7z"/>
	<path class="st2" d="M488.6,963.7h125.7c1.1,0,2,0.9,2,2v11.2c0,1.1-0.9,2-2,2H488.6c-1.1,0-2-0.9-2-2v-11.2
		C486.6,964.6,487.5,963.7,488.6,963.7z"/>
	<path class="st2" d="M416.4,963.7h13.2c1.1,0,2,0.9,2,2v11.2c0,1.1-0.9,2-2,2h-13.2c-1.1,0-2-0.9-2-2v-11.2
		C414.4,964.6,415.3,963.7,416.4,963.7z"/>
	<path class="st2" d="M393.6,963.7h13.2c1.1,0,2,0.9,2,2v11.2c0,1.1-0.9,2-2,2h-13.2c-1.1,0-2-0.9-2-2v-11.2
		C391.6,964.6,392.5,963.7,393.6,963.7z"/>
	<path class="st2" d="M393.6,944.7H433c1.1,0,2,0.9,2,2v11.2c0,1.1-0.9,2-2,2h-39.4c-1.1,0-2-0.9-2-2v-11.2
		C391.6,945.6,392.5,944.7,393.6,944.7z"/>
	<path class="st2" d="M670.2,944.7h38.6c1.1,0,2,0.9,2,2v11.2c0,1.1-0.9,2-2,2h-38.6c-1.1,0-2-0.9-2-2v-11.2
		C668.2,945.6,669.1,944.7,670.2,944.7z"/>
</g>
<g>
	<g>
		<path class="st3" d="M518.1,468.2c5-0.8,7.5-1.2,12.6-2c3.6-0.6-5.7-6.2-6-6.7c-1.5-2.5-13.7,0.7-16.4,0.9c-3.4,0.3,5.7,6.3,6,6.7
			C514.8,467.8,517,468.4,518.1,468.2z"/>
		<path class="st3" d="M540,464.6c5-0.8,7.5-1.2,12.5-2c3.6-0.6-5.7-6.1-6-6.7c-1.5-2.5-13.7,0.7-16.3,0.9c-3.4,0.3,5.7,6.2,6,6.7
			C536.7,464.3,538.9,464.8,540,464.6z"/>
		<path class="st3" d="M561.8,461.1c5-0.8,7.5-1.2,12.5-2c3.6-0.6-5.7-6.1-6-6.6c-1.5-2.5-13.6,0.7-16.3,0.9c-3.4,0.3,5.7,6.2,6,6.7
			C558.5,460.7,560.7,461.3,561.8,461.1z"/>
		<path class="st3" d="M583.5,457.6c5-0.8,7.5-1.2,12.4-2c3.6-0.6-5.7-6.1-6-6.6c-1.5-2.5-13.6,0.7-16.2,0.9c-3.3,0.3,5.7,6.2,6,6.6
			C580.3,457.2,582.4,457.7,583.5,457.6z"/>
		<path class="st3" d="M605.2,454.1c5-0.8,7.4-1.2,12.4-2c3.6-0.6-5.7-6-6-6.6c-1.5-2.5-13.6,0.6-16.2,0.9c-3.3,0.3,5.7,6.1,6,6.6
			C601.9,453.7,604.1,454.3,605.2,454.1z"/>
		<path class="st3" d="M626.8,450.6c5-0.8,7.4-1.2,12.4-2c3.6-0.6-5.7-6-6-6.5c-1.5-2.4-13.6,0.6-16.2,0.9c-3.3,0.3,5.7,6.1,6,6.6
			C623.6,450.3,625.7,450.8,626.8,450.6z"/>
		<path class="st3" d="M648.4,447.2c5-0.8,7.4-1.2,12.4-2c3.6-0.6-5.7-6-6-6.5c-1.5-2.4-13.6,0.6-16.2,0.8c-3.3,0.3,5.7,6.1,6,6.5
			C645.2,446.9,647.3,447.4,648.4,447.2z"/>
		<path class="st3" d="M670,443.8c5-0.8,7.4-1.2,12.4-1.9c3.6-0.6-5.6-6-6-6.5c-1.5-2.4-13.6,0.6-16.2,0.8c-3.3,0.3,5.6,6.1,6,6.5
			C666.8,443.5,668.9,444,670,443.8z"/>
		<path class="st3" d="M691.6,440.4c5-0.8,7.4-1.2,12.4-1.9c3.6-0.6-5.6-5.9-5.9-6.4c-1.5-2.4-13.6,0.6-16.2,0.8
			c-3.3,0.3,5.6,6,5.9,6.5C688.4,440.1,690.5,440.6,691.6,440.4z"/>
		<path class="st3" d="M713.3,437.1c5-0.8,7.4-1.1,12.4-1.9c3.6-0.6-5.6-5.9-5.9-6.4c-1.4-2.4-13.6,0.6-16.2,0.8
			c-3.3,0.3,5.6,6,5.9,6.4C710,436.7,712.2,437.3,713.3,437.1z"/>
		<path class="st3" d="M734.9,433.8c5-0.8,7.5-1.1,12.4-1.9c3.6-0.6-5.5-5.9-5.8-6.4c-1.4-2.4-13.6,0.6-16.2,0.8
			c-3.4,0.3,5.5,6,5.9,6.4C731.7,433.4,733.8,434,734.9,433.8z"/>
		<path class="st3" d="M756.6,430.5c5-0.7,7.5-1.1,12.5-1.8c3.6-0.6-5.5-5.9-5.8-6.4c-1.4-2.4-13.6,0.5-16.3,0.7
			c-3.4,0.3,5.5,6,5.8,6.4C753.4,430.2,755.5,430.7,756.6,430.5z"/>
		<path class="st3" d="M778.4,427.3c5-0.7,7.5-1.1,12.5-1.8c3.6-0.6-5.5-5.8-5.8-6.3c-1.4-2.4-13.7,0.5-16.3,0.7
			c-3.4,0.3,5.5,5.9,5.8,6.4C775.1,427,777.3,427.5,778.4,427.3z"/>
		<path class="st3" d="M800.3,424.2c5-0.7,7.5-1.1,12.5-1.8c3.6-0.6-5.5-5.8-5.8-6.3c-1.4-2.3-13.7,0.5-16.3,0.7
			c-3.4,0.2,5.5,5.9,5.8,6.3C797,423.8,799.1,424.3,800.3,424.2z"/>
		<path class="st3" d="M825.1,411.9c-5,0.7-7.5,1.1-12.5,1.8c-3.6,0.5,5.4,5.8,5.7,6.3c1.4,2.3,13.7-0.5,16.3-0.7
			c3.4-0.2-5.5-5.9-5.8-6.3C828.4,412.3,826.3,411.7,825.1,411.9z"/>
		<path class="st3" d="M867.5,469c-4.2,1.1-10.8-0.5-3.4,5c2.3,1.7,7.9,0.3,10.3,0C877.8,473.5,868.6,468,867.5,469z"/>
		<path class="st3" d="M881.4,466.9c-4.2,1.1-10.8-0.5-3.5,5c2.3,1.7,7.9,0.3,10.4,0C891.7,471.4,882.6,465.9,881.4,466.9z"/>
		<path class="st3" d="M872.8,460.6c-4.2,1.1-10.8-0.5-3.5,5c2.3,1.7,7.9,0.3,10.4,0C883.1,465.2,874,459.7,872.8,460.6z"/>
		<path class="st3" d="M895.4,464.8c-4.2,1.1-10.9-0.5-3.5,4.9c2.3,1.7,7.9,0.3,10.4,0C905.7,469.4,896.5,463.9,895.4,464.8z"/>
		<path class="st3" d="M535.3,481.8c15.7-3.4,17.4,0.8,3.4-12c-2.5-2.3-14.5,0.9-17.2,1.1c-1,0.1-1.2,1.1-0.2,1.8
			C523.6,474.3,532.2,482.8,535.3,481.8z"/>
		<path class="st3" d="M544.5,467.2c-4.2,0.4,9.8,9.4,10,9.8c0.8,2.1,14.4-1,17.1-1.1c4-0.2-9.8-9.3-10-9.7
			C560.8,463.9,547.4,467.2,544.5,467.2z"/>
		<path class="st3" d="M567.2,465.2c13.7,11.3,11.1,9.5,27.3,6.8c1.1-0.2,1.2-1.1,0.2-1.7c-2.3-1.5-13-10.1-14-9
			C580.4,461.5,562.9,462.5,567.2,465.2z"/>
		<path class="st3" d="M589.9,461.5c13.7,11.3,11.1,9.5,27.2,6.8c1.1-0.2,1.2-1.1,0.2-1.7c-2.3-1.5-13-10.1-14-9
			C603.2,457.8,585.7,458.8,589.9,461.5z"/>
		<path class="st3" d="M612.7,457.8c13.7,11.2,11.1,9.4,27.2,6.8c1.1-0.2,1.2-1.1,0.2-1.7c-2.3-1.5-13-10-14-8.9
			C625.8,454.2,608.5,455.2,612.7,457.8z"/>
		<path class="st3" d="M635.3,454.2c13.7,11.2,11.1,9.4,27.1,6.8c1.1-0.2,1.2-1.1,0.2-1.7c-2.3-1.5-12.9-10-14-8.9
			C648.5,450.6,631.1,451.5,635.3,454.2z"/>
		<path class="st3" d="M658,450.5c13.7,11.1,11.1,9.3,27.1,6.7c1.1-0.2,1.2-1,0.2-1.7c-2.3-1.5-12.9-9.9-13.9-8.8
			C671.1,447,653.8,447.9,658,450.5z"/>
		<path class="st3" d="M707.7,453.7c4.2-0.4-9.8-9-9.9-9.4c-0.8-2.1-14.2,0.9-17,1c-4,0.2,9.8,9.1,9.9,9.4
			C691.5,456.8,704.8,453.7,707.7,453.7z"/>
		<path class="st3" d="M730.3,450.1c4.2-0.4-9.8-9-9.9-9.4c-0.8-2.1-14.2,0.9-17,1c-4,0.2,9.8,9,9.9,9.4
			C714.2,453.2,727.4,450.1,730.3,450.1z"/>
		<path class="st3" d="M753.2,445c-13.6-10.9-11-9.2-27.1-6.7c-1.1,0.2-1.2,1-0.2,1.7c2.3,1.5,12.8,9.8,13.9,8.7
			C740,448.4,757.4,447.5,753.2,445z"/>
		<path class="st3" d="M775.7,443.2c4.2-0.4-9.7-8.9-9.8-9.3c-0.7-2-14.3,0.8-17,0.9c-4,0.2,9.7,9,9.8,9.3
			C759.5,446.2,772.8,443.2,775.7,443.2z"/>
		<path class="st3" d="M798.7,438.1c-13.5-10.8-10.9-9.1-27.1-6.7c-1.1,0.2-1.2,1-0.2,1.7c2.3,1.5,12.8,9.8,13.8,8.7
			C785.5,441.5,802.9,440.6,798.7,438.1z"/>
		<path class="st3" d="M821.6,434.7c-13.5-10.7-10.9-9.1-27.1-6.7c-1.1,0.2-1.2,1-0.2,1.6c2.3,1.5,12.7,9.7,13.8,8.6
			C808.3,438.1,825.8,437.3,821.6,434.7z"/>
		<path class="st3" d="M838,421.8c0.2,0.7-27.6,2.2-22.6,4.8c4,3,6,4.5,10,7.6c2,2.8,23.6-2.1,26.1-2.2c1,0,1.2-1,0.2-1.6
			C849.5,428.9,841.2,420.9,838,421.8z"/>
		<path class="st3" d="M816.5,452.4c15.5-3,17.3,0.9,3.4-11.1c-2.4-2.1-14.4,0.7-17.1,0.9c-1,0.1-1.2,1-0.2,1.6
			C804.9,445.3,813.3,453.2,816.5,452.4z"/>
		<path class="st3" d="M807.2,452.2c-13.7-10.7-11-9-27.2-6.6c-1.1,0.2-1.2,1-0.2,1.7c2.3,1.5,12.9,9.7,13.9,8.6
			C793.9,455.6,811.4,454.7,807.2,452.2z"/>
		<path class="st3" d="M771,459.3c15.5-3.1,17.2,0.9,3.3-11.3c-2.4-2.1-14.4,0.8-17,1c-1,0.1-1.2,1-0.2,1.7
			C759.4,452.2,767.9,460.2,771,459.3z"/>
		<path class="st3" d="M761.7,459.2c-13.7-10.8-11.1-9.1-27.1-6.6c-1.1,0.2-1.2,1-0.2,1.7c2.3,1.5,12.9,9.7,13.9,8.6
			C748.6,462.7,766,461.7,761.7,459.2z"/>
		<path class="st3" d="M739.1,462.7c-13.7-10.8-11.1-9.1-27.1-6.6c-1.1,0.2-1.2,1-0.2,1.7c2.3,1.5,12.9,9.8,14,8.7
			C726,466.3,743.3,465.3,739.1,462.7z"/>
		<path class="st3" d="M716.5,466.3c-13.7-10.9-11.1-9.2-27.1-6.6c-1.1,0.2-1.2,1.1-0.2,1.7c2.3,1.5,12.9,9.8,14,8.7
			C703.4,469.9,720.7,468.9,716.5,466.3z"/>
		<path class="st3" d="M693.9,470c-13.7-10.9-11.1-9.2-27.1-6.6c-1.1,0.2-1.2,1.1-0.2,1.7c2.3,1.5,12.9,9.9,14,8.8
			C680.8,473.6,698.1,472.5,693.9,470z"/>
		<path class="st3" d="M671.3,473.7c-13.7-11-11.1-9.3-27.1-6.6c-1.1,0.2-1.2,1.1-0.2,1.7c2.3,1.5,12.9,9.9,13.9,8.8
			C658.1,477.3,675.5,476.3,671.3,473.7z"/>
		<path class="st3" d="M648.6,477.4c-13.7-11-11.1-9.3-27.2-6.7c-1.1,0.2-1.2,1.1-0.2,1.7c2.3,1.5,12.9,10,13.9,8.8
			C635.4,481.1,652.8,480,648.6,477.4z"/>
		<path class="st3" d="M625.9,481.2c-13.6-11.1-11.1-9.4-27.2-6.7c-1.1,0.2-1.2,1.1-0.2,1.7c2.3,1.5,12.9,10,13.9,8.9
			C612.7,484.9,630.1,483.8,625.9,481.2z"/>
		<path class="st3" d="M575.9,478.3c-4.2,0.4,9.8,9.3,9.9,9.6c0.8,2.1,14.3-1,17.1-1.2c4-0.2-9.8-9.2-9.9-9.6
			C592.2,475.1,578.8,478.3,575.9,478.3z"/>
		<path class="st3" d="M552.5,495.3c11.1-1.9,16.6-2.8,27.6-4.7c4.2-0.4-9.8-9.2-9.9-9.6c-0.6-2.5-29.1,3.4-31.4,3.5
			c-1,0.1-1.2,1.1-0.2,1.8C540.9,487.8,549.2,496.3,552.5,495.3z"/>
		<path class="st3" d="M854.2,434.6c-11.3,1.6-16.9,2.4-28.1,4.1c-4.2,0.3,9.7,8.7,9.8,9.1c0.5,2.3,29.7-3,32-3.1c1,0,1.2-1,0.2-1.6
			C865.7,441.7,857.4,433.8,854.2,434.6z"/>
		<path class="st3" d="M835.8,463.1c-13.7-10.6-11.1-9-27.2-6.5c-1.1,0.2-1.2,1-0.2,1.6c2.3,1.5,12.9,9.6,14,8.5
			C822.5,466.5,840,465.6,835.8,463.1z"/>
		<path class="st3" d="M799.6,470.3c15.5-3.1,17.3,0.9,3.2-11.2c-2.5-2.1-14.4,0.8-17,1c-1,0.1-1.2,1-0.2,1.6
			C787.9,463.2,796.4,471.2,799.6,470.3z"/>
		<path class="st3" d="M776.3,461.6c-15.5,3.1-17.3-0.8-3.2,11.3c2.5,2.1,14.3-0.9,17-1.1c1-0.1,1.2-1,0.2-1.6
			C788,468.7,779.5,460.7,776.3,461.6z"/>
		<path class="st3" d="M754.3,477.5c15.4-3.2,17.2,0.8,3.2-11.3c-2.5-2.1-14.3,0.9-17,1.1c-1,0.1-1.2,1-0.2,1.7
			C742.6,470.4,751.2,478.4,754.3,477.5z"/>
		<path class="st3" d="M731.7,481.2c15.4-3.2,17.2,0.8,3.2-11.4c-2.5-2.1-14.3,0.9-17,1.1c-1,0.1-1.2,1-0.2,1.7
			C720,474.1,728.5,482.1,731.7,481.2z"/>
		<path class="st3" d="M709,484.9c15.4-3.3,17.2,0.7,3.2-11.5c-2.5-2.1-14.3,0.9-17,1.1c-1,0.1-1.2,1.1-0.2,1.7
			C697.4,477.8,705.9,485.8,709,484.9z"/>
		<path class="st3" d="M686.4,488.7c15.5-3.3,17.3,0.7,3.3-11.5c-2.5-2.2-14.3,0.9-17,1.1c-1,0.1-1.2,1.1-0.2,1.7
			C674.8,481.5,683.2,489.6,686.4,488.7z"/>
		<path class="st3" d="M676.9,490.3c4.2-0.4-9.7-9-9.9-9.4c-0.8-2.1-14.2,1-17,1.2c-4,0.2,9.7,9.1,9.9,9.4
			C660.6,493.5,674,490.3,676.9,490.3z"/>
		<path class="st3" d="M640.9,496.4c15.5-3.4,17.3,0.7,3.4-11.7c-2.4-2.2-14.4,0.9-17,1.2c-1,0.1-1.2,1.1-0.2,1.7
			C629.3,489.1,637.7,497.3,640.9,496.4z"/>
		<path class="st3" d="M617.7,487.5c-15.6,3.3-17.2-0.7-3.5,11.8c2.4,2.2,14.4-1,17.1-1.2c1-0.1,1.2-1.1,0.2-1.7
			C629.3,494.7,620.9,486.5,617.7,487.5z"/>
		<path class="st3" d="M631.9,501.1c-15.6,3.4-17.1-0.6-3.7,11.8c2.4,2.2,14.5-1,17.1-1.3c1-0.1,1.2-1.1,0.3-1.7
			C643.4,508.3,635.1,500.1,631.9,501.1z"/>
		<path class="st3" d="M844.5,466.4c-15.6,3.1-17.3-0.8-3.3,11.1c2.4,2.1,14.4-0.8,17.1-1c1-0.1,1.2-1,0.2-1.6
			C856.2,473.3,847.7,465.5,844.5,466.4z"/>
		<path class="st3" d="M659.3,496.4c-7.5,1.3-11.3,1.9-18.8,3.2c-1.1,0.2-1.2,1.1-0.2,1.7c2.3,1.5,10.5,9.7,13.7,8.8
			c7.5-1.3,11.3-1.9,18.8-3.2c1.1-0.2,1.2-1.1,0.2-1.7C670.7,503.6,662.4,495.5,659.3,496.4z"/>
		<path class="st3" d="M821.7,469.9c-7.5,1.2-11.2,1.7-18.7,2.9c-1.1,0.2-1.2,1-0.2,1.6c2.3,1.5,10.8,9.4,13.9,8.5
			c7.5-1.2,11.2-1.8,18.7-3c1.1-0.2,1.2-1,0.2-1.6C833.4,476.9,824.9,469,821.7,469.9z"/>
		<path class="st3" d="M793.5,474.3C755,483.6,668,496.6,668,496.6c0,0.4,10.4,9.7,13.7,8.7c41.8-7.1,83.6-14.1,125.5-20.9
			c4.3-0.4-9.8-8.9-10-9.1C797.1,474.8,794.6,474.1,793.5,474.3z"/>
		<path class="st3" d="M609,505c-15.6,3.4-17.1-0.6-3.7,11.8c2.4,2.2,14.5-1.1,17.1-1.3c1-0.1,1.2-1.1,0.3-1.7
			C620.5,512.3,612.2,504,609,505z"/>
		<path class="st3" d="M586.1,509c-15.7,3.5-17.1-0.5-3.7,11.9c2.4,2.2,14.5-1.1,17.1-1.3c1-0.1,1.2-1.1,0.3-1.7
			C597.5,516.3,589.3,508,586.1,509z"/>
		<path class="st3" d="M595.5,491.2c-12.6,2.5-39.9,8.3-39.9,8.5c0,0.4,10.6,9.9,13.8,8.9c13.2-2.3,26.5-4.6,39.7-6.9
			c1.1-0.2,1.2-1.1,0.2-1.7C607,498.5,598.8,490.2,595.5,491.2z"/>
		<path class="st3" d="M871.2,447.3c-12.3,2.1-39.1,7.4-39.1,7.4c0,0.4,10.8,9.4,14,8.5c13-2,25.9-3.9,38.9-5.8
			c1.1-0.2,1.2-1,0.2-1.6C882.9,454.2,874.5,446.4,871.2,447.3z"/>
	</g>
</g>
</svg>
