<?xml version="1.0" encoding="utf-8"?>
<!-- Generator: Adobe Illustrator 25.4.1, SVG Export Plug-In . SVG Version: 6.00 Build 0)  -->
<svg version="1.1" id="Calque_1" xmlns="http://www.w3.org/2000/svg" xmlns:xlink="http://www.w3.org/1999/xlink" x="0px" y="0px"
	 viewBox="0 0 792 55.9" style="enable-background:new 0 0 792 55.9;" xml:space="preserve">
<style type="text/css">
	.st0{fill:none;stroke:#F23D47;stroke-width:3;}
	.st1{fill:none;stroke:#F23D47;stroke-width:4;}
</style>
<g id="separateur_logo" transform="translate(0 1.5)">
	<g id="icone_mt_seul_bold" transform="translate(795.528)">
		<path id="icone_mt_seul_bold-2" class="st0" d="M-389,49.8c12.4-6.8,17.4-22,11.4-34.8H-389V49.8z M-421.2,43.5
			c4.9,5.9,12.3,9.4,20,9.4c1.6,0,3.1-0.2,4.6-0.4V27.9l-12.3,14.8l-12.3-14.9L-421.2,43.5z M-382.2,8.2c-9.8-10.5-26.3-11-36.8-1.2
			c-2,1.8-3.6,4-5,6.4l15.1,17.8l12.3-14.5v-1.6h-11.5V8.3L-382.2,8.2L-382.2,8.2z"/>
	</g>
	<line id="Ligne_12" class="st1" x1="0" y1="28.4" x2="350" y2="28.4"/>
	<line id="Ligne_13" class="st1" x1="442" y1="28.4" x2="792" y2="28.4"/>
</g>
</svg>
