<?xml version="1.0" standalone="no"?>
<!DOCTYPE svg PUBLIC "-//W3C//DTD SVG 20010904//EN"
 "http://www.w3.org/TR/2001/REC-SVG-20010904/DTD/svg10.dtd">
<svg version="1.0" xmlns="http://www.w3.org/2000/svg"
 width="624.000000pt" height="624.000000pt" viewBox="0 0 624.000000 624.000000"
 preserveAspectRatio="xMidYMid meet">
<metadata>
Created by potrace 1.14, written by Peter Selinger 2001-2017
</metadata>
<g transform="translate(0.000000,624.000000) scale(0.100000,-0.100000)"
fill="#000000" stroke="none">
<path d="M2729 6235 c-2 -2 -40 -6 -84 -9 -44 -4 -91 -8 -105 -11 -14 -3 -41
-7 -60 -10 -92 -14 -213 -38 -285 -57 -44 -11 -87 -21 -95 -23 -32 -7 -229
-75 -305 -105 -646 -253 -1225 -761 -1553 -1360 l-41 -76 22 -24 c12 -14 58
-68 102 -120 44 -52 82 -97 85 -100 3 -3 72 -84 154 -180 81 -96 157 -186 170
-200 12 -14 44 -52 71 -85 28 -33 52 -62 55 -65 3 -3 36 -41 73 -85 38 -44 76
-89 86 -100 9 -11 68 -81 131 -155 63 -74 130 -153 149 -175 20 -22 52 -60 71
-83 19 -24 48 -58 63 -75 16 -18 43 -49 60 -71 18 -21 41 -48 52 -60 11 -12
40 -46 65 -76 25 -30 47 -57 50 -60 3 -3 41 -48 85 -100 44 -52 89 -105 100
-117 11 -13 29 -33 40 -45 11 -13 55 -64 97 -115 l77 -92 48 57 c26 31 52 62
58 68 5 6 33 37 60 69 28 32 55 63 60 69 6 6 33 38 60 71 49 59 80 95 120 140
11 12 40 46 65 76 89 106 233 274 239 279 4 3 25 27 46 54 22 27 49 59 60 71
11 12 56 64 99 116 44 52 85 99 91 104 6 6 21 24 34 40 12 17 37 46 54 65 18
19 55 62 82 95 28 33 55 65 60 71 6 6 31 35 56 65 117 136 186 216 207 239 12
13 23 29 23 34 4 30 5 323 2 332 -3 8 -181 11 -649 11 -354 0 -647 3 -651 7
-4 4 -8 123 -8 264 l0 257 1475 5 1475 5 -2 65 c-1 36 -2 75 -2 87 -1 31 -171
199 -336 332 -49 40 -98 79 -108 87 -9 8 -21 14 -26 14 -5 0 -11 4 -13 8 -4
12 -130 94 -268 176 -291 171 -746 330 -1065 371 -5 0 -41 5 -80 9 -38 5 -79
11 -90 13 -24 6 -501 14 -506 8z m361 -239 c69 -3 134 -8 145 -10 11 -2 49 -7
85 -11 36 -4 73 -9 83 -11 9 -2 25 -6 36 -8 10 -2 34 -7 52 -10 69 -11 276
-66 359 -94 178 -62 407 -166 517 -235 24 -15 47 -27 53 -27 5 0 10 -4 10 -10
0 -5 5 -10 10 -10 6 0 45 -24 87 -52 42 -29 83 -57 92 -63 9 -5 18 -12 21 -15
3 -3 32 -27 65 -52 33 -25 71 -55 84 -67 l24 -21 -1386 0 c-763 0 -1387 -3
-1388 -7 -3 -25 -4 -980 -1 -990 3 -10 143 -13 652 -13 357 0 651 -3 654 -8 3
-6 -67 -93 -193 -237 -14 -16 -49 -57 -76 -90 -28 -33 -53 -62 -56 -65 -3 -3
-50 -57 -104 -120 -53 -63 -119 -140 -145 -170 -27 -30 -58 -66 -69 -80 -22
-26 -23 -28 -81 -95 -19 -22 -53 -63 -75 -90 -22 -26 -49 -58 -60 -69 -11 -12
-38 -43 -60 -70 -22 -28 -51 -62 -65 -77 -14 -14 -36 -40 -50 -56 -14 -16 -45
-54 -70 -83 -25 -30 -54 -64 -65 -76 -11 -12 -38 -45 -60 -72 -22 -28 -45 -51
-50 -52 -13 0 -47 37 -145 155 -41 49 -83 99 -93 110 -10 11 -51 58 -90 105
-40 47 -76 90 -82 96 -5 6 -29 33 -52 60 -23 27 -51 60 -63 74 -12 14 -40 47
-63 74 -187 221 -313 369 -332 390 -6 6 -23 27 -39 46 -28 34 -82 98 -161 190
-92 106 -139 163 -159 188 -11 15 -23 29 -27 32 -6 5 -60 69 -179 210 -25 30
-55 65 -67 78 l-23 25 22 36 c12 20 27 43 35 52 7 8 13 20 13 26 0 6 3 13 8
15 4 2 23 26 41 53 131 189 386 459 559 590 7 6 18 15 25 20 80 68 287 200
423 271 207 107 523 224 674 250 14 3 33 7 42 10 10 3 29 7 43 10 14 2 51 8
83 14 31 5 78 12 103 15 26 3 58 8 70 10 13 3 87 8 164 11 77 3 142 8 143 9 2
2 9 2 15 0 7 -2 68 -6 137 -9z"/>
<path d="M4221 4530 c-7 -5 -9 -4260 -3 -4260 6 0 172 90 262 143 78 45 234
145 270 174 90 71 176 138 198 156 49 41 298 292 343 346 24 30 55 68 69 85
76 92 240 335 240 355 0 6 3 11 8 11 4 0 12 10 18 23 6 12 35 69 65 127 116
223 219 499 263 705 4 17 11 50 17 75 10 44 14 66 23 125 2 17 7 44 10 60 3
17 8 53 11 80 3 28 9 84 14 125 5 41 7 176 5 300 -3 218 -6 271 -19 355 -3 22
-8 54 -10 70 -6 54 -36 209 -51 270 -9 33 -18 70 -20 82 -6 30 -92 288 -111
333 -8 19 -19 44 -23 55 -19 46 -66 151 -81 179 l-16 30 -737 0 c-406 1 -741
-1 -745 -4z m1361 -300 c74 -174 162 -492 183 -657 2 -13 6 -40 9 -60 29 -173
34 -500 11 -693 -11 -94 -16 -125 -40 -265 -1 -11 -10 -47 -19 -81 -8 -33 -17
-69 -19 -80 -10 -51 -62 -215 -92 -289 -7 -16 -25 -61 -40 -100 -30 -74 -143
-307 -154 -315 -3 -3 -17 -25 -30 -50 -35 -64 -152 -238 -202 -298 -6 -7 -33
-41 -62 -75 -106 -130 -255 -276 -412 -406 -74 -61 -229 -168 -250 -174 -12
-2 -16 3595 -4 3603 4 3 252 5 550 5 l543 0 28 -65z"/>
<path d="M542 2216 l-1 -1075 27 -33 c70 -87 239 -259 336 -343 32 -27 63 -55
69 -60 7 -6 37 -29 67 -53 30 -23 61 -46 67 -52 27 -22 220 -148 263 -171 25
-13 47 -27 50 -30 8 -10 328 -163 380 -182 25 -9 59 -22 75 -28 17 -7 32 -13
35 -14 3 0 57 -17 120 -37 104 -33 289 -78 380 -92 19 -3 46 -8 60 -10 137
-23 255 -31 465 -30 220 0 345 8 464 29 14 2 59 9 100 15 40 6 76 12 80 14 7
5 8 3202 1 3210 -3 3 -36 -32 -72 -77 -37 -45 -79 -95 -93 -112 -54 -63 -71
-83 -105 -125 -19 -24 -40 -48 -45 -54 -6 -6 -30 -36 -55 -66 -24 -30 -55 -66
-67 -80 -24 -27 -80 -95 -398 -475 -246 -295 -287 -344 -300 -359 -6 -6 -42
-49 -80 -96 -81 -98 -106 -128 -120 -144 -5 -6 -32 -38 -60 -71 -135 -162
-124 -151 -139 -134 -7 8 -44 52 -82 99 -38 47 -79 96 -90 110 -26 29 -222
266 -244 294 -8 10 -31 37 -50 60 -19 23 -54 64 -76 92 -43 51 -331 400 -387
468 -18 21 -40 48 -51 60 -10 11 -35 41 -55 66 -20 25 -61 75 -91 111 -30 36
-71 85 -92 110 -20 24 -44 54 -55 65 -10 12 -65 78 -122 148 -57 69 -105 126
-106 126 -2 0 -3 -483 -3 -1074z m304 339 c11 -13 99 -120 195 -236 96 -117
188 -227 206 -246 17 -18 28 -33 25 -33 -4 0 -2 -4 3 -8 6 -4 32 -34 60 -67
27 -33 54 -65 60 -71 5 -6 24 -28 40 -50 17 -21 39 -48 50 -60 11 -12 27 -31
35 -41 64 -79 156 -189 160 -193 3 -3 35 -41 70 -85 36 -44 70 -85 76 -91 5
-6 26 -31 45 -54 18 -24 41 -50 49 -59 8 -9 33 -39 55 -66 22 -28 50 -61 63
-75 l23 -25 25 30 c14 17 42 50 62 74 21 24 55 64 77 90 22 26 56 67 75 91 19
24 40 48 45 54 6 6 32 38 60 71 27 33 57 69 67 80 23 27 183 219 233 280 22
26 50 60 63 73 12 14 33 39 45 55 12 16 27 34 34 41 6 7 35 42 64 77 29 35 58
69 64 75 5 7 26 31 45 55 19 24 45 54 58 67 12 13 22 25 22 28 0 3 8 14 18 25
11 11 61 71 113 134 52 62 99 116 104 118 7 3 10 -385 10 -1169 0 -784 -3
-1174 -10 -1175 -5 0 -19 -2 -30 -4 -191 -36 -572 -31 -830 11 -151 25 -460
108 -550 149 -16 7 -55 23 -85 35 -78 30 -230 105 -325 160 -220 127 -400 266
-592 457 l-143 141 0 707 0 707 23 -27 c12 -15 31 -37 43 -50z"/>
</g>
</svg>
