<?xml version="1.0" encoding="utf-8"?>
<!-- Generator: Adobe Illustrator 25.4.1, SVG Export Plug-In . SVG Version: 6.00 Build 0)  -->
<svg version="1.1" id="forme_ondule_pleine" xmlns="http://www.w3.org/2000/svg" xmlns:xlink="http://www.w3.org/1999/xlink"
	 x="0px" y="0px" viewBox="0 0 700 700" style="enable-background:new 0 0 700 700;" xml:space="preserve">
<style type="text/css">
	.st0{fill:#F23D47;}
	.st1{fill:none;stroke:#F4898F;stroke-width:10;}
</style>
<path id="Tracé_4" class="st0" d="M217.4,61.6c-98.7,24.5,5.9,109.6-85.1,156.8s-76.8,28.6-106,81.7s20.7,123,68.6,172
	s-33.9,125.1,78.4,143.6s242.5,63.4,312-30.7s109.9-91.7,149-142.6s73.8-197.4,22.1-253.2s-111.8-47.4-171.2-56.6
	S316.1,37.1,217.4,61.6z"/>
<g id="contour_ondule_photo" transform="translate(6.521 6.547)">
	<path id="Tracé_5" class="st1" d="M652.4,148c-62.9-86.7-148.2,6.7-230.3-63.6s-58.2-63.8-121.7-71.3S188.6,81.8,159.6,148
		S24,164.2,50.3,281.2S84.1,543,203.4,573.9c119.3,30.8,132.9,71.1,198.1,89.3c65.2,18.2,221.9-5.8,256-78.3
		c34.1-72.5,2.1-127.9-12.3-189.5S715.3,234.7,652.4,148z"/>
</g>
</svg>
