<?xml version="1.0" encoding="utf-8"?>
<!-- Generator: Adobe Illustrator 25.4.1, SVG Export Plug-In . SVG Version: 6.00 Build 0)  -->
<svg version="1.1" id="icones_interets" xmlns="http://www.w3.org/2000/svg" xmlns:xlink="http://www.w3.org/1999/xlink" x="0px"
	 y="0px" viewBox="0 0 904.2 173" style="enable-background:new 0 0 904.2 173;" xml:space="preserve">
<g id="Groupe_76">
	<path id="Tracé_84" d="M437.2,23.8H24.5c-13,0-19.9,6.2-19.9,18.6v7.5H0V44c0-16.6,8.2-25.1,24.1-25.1h413.1
		c8.2,0,12.4-3.6,12.4-10.8V0h4.6v8.5c0,7.2,4.2,10.8,12.7,10.8H880c16.3,0,24.1,8.5,24.1,25.1v5.9h-4.6v-7.5
		c0-12.4-6.5-18.6-19.9-18.6H466.9c-3.3,0.1-6.7-0.4-9.8-1.6c-2.3-1.3-4-3.4-4.9-5.9c-1,2.4-2.7,4.5-4.9,5.9
		C444,23.4,440.6,23.8,437.2,23.8"/>
</g>
<g id="Groupe_77" transform="translate(219.598 60.185)">
	<path id="Tracé_85" d="M381.7,22.3l1.5,17.7l0.6-6.6l28.5,5h28.9l-3.7,41c-0.6,7.2-3.9,13.9-9.3,18.7c-5.3,4.8-12.2,7.5-19.4,7.5
		c-0.8,0-1.6,0-2.5-0.1c-13-1.2-23.6-11-25.9-23.8c-2.1,3.2-4.8,5.9-8,8c-4,2.6-8.5,4.2-13.2,4.7c-0.8,0.1-1.7,0.1-2.5,0.1
		c-7.2,0-14.1-2.7-19.4-7.5c-5.4-4.8-8.7-11.5-9.3-18.7l-3.7-41h28.9L381.7,22.3z M382.5,49.4l-2.2-25.2L353.4,29h-27.2l3.5,39.2
		c0.6,6.8,3.7,13.1,8.8,17.7c5,4.6,11.6,7.1,18.3,7.1c0.8,0,1.5,0,2.3-0.1c4.5-0.5,8.8-2,12.5-4.5c3.6-2.4,6.6-5.6,8.7-9.4l1.3-2.3
		l0.3,2.7c1.2,13.1,11.6,23.5,24.7,24.7c0.8,0.1,1.5,0.1,2.3,0.1c6.8,0,13.3-2.5,18.3-7.1c5.1-4.6,8.2-10.9,8.8-17.7l3.5-39.2h-27.2
		l-26.9-4.7l-1.2,14.1L382.5,49.4z"/>
	<path id="Tracé_86" d="M16.8,105.9c-5.3,0-9.6-1.3-12.5-3.6C1.5,100-0.1,96.6,0,93.1c0-3.5,1.5-6.9,4.2-9.1
		c3-2.5,7.3-3.8,12.5-3.8c2,0,4.1,0.2,6,0.7l-0.3-46.3l58-6v58.6c0,3.5-1.5,6.9-4.2,9.1c-3,2.5-7.3,3.8-12.5,3.8
		c-5.3,0-9.6-1.3-12.5-3.6c-2.8-2.2-4.3-5.7-4.3-9.2c0-3.5,1.5-6.9,4.2-9.1c3-2.5,7.3-3.8,12.5-3.8c2,0,4.1,0.2,6,0.7V42.8
		l-36.2,3.7v46.5c0,3.5-1.5,6.9-4.2,9.1C26.4,104.6,22,105.9,16.8,105.9z M16.8,81.8c-4.8,0-8.8,1.2-11.5,3.4
		c-2.4,1.9-3.7,4.8-3.7,7.8c0,7,5.7,11.2,15.2,11.2c4.8,0,8.8-1.2,11.5-3.4c2.4-1.9,3.7-4.8,3.7-7.8V45L71.4,41v36.3l-1.1-0.4
		c-2.1-0.7-4.4-1-6.6-0.9c-4.8,0-8.8,1.2-11.5,3.4c-2.4,1.9-3.7,4.8-3.7,7.8c0,7,5.7,11.2,15.2,11.2c4.8,0,8.8-1.2,11.5-3.4
		c2.4-1.9,3.7-4.8,3.7-7.8V30.4l-54.8,5.7l0.3,47l-1.1-0.4C21.2,82.1,19,81.8,16.8,81.8z"/>
	<path id="Tracé_87" d="M578.6,107.6h-0.3c-3.9,0-8-0.8-8.6-2.9c-10.2-5.2-31.8-6.2-48.2-6.2c-1.3,0-2.4-1-2.4-2.3
		c0-0.1,0-0.1,0-0.2V21.3c0-1.3,1-2.4,2.3-2.4c0.1,0,0.1,0,0.2,0h3.4v-3.1c0-1.3,1-2.4,2.3-2.4c0.1,0,0.1,0,0.2,0h0.3
		c15.5,0,28.1,1.6,37.4,4.9c7.2,2.5,11.2,5.5,13.4,7.8c2.2-2.3,6.2-5.3,13.4-7.8c9.4-3.2,22-4.9,37.4-4.9h0.3c1.3,0,2.4,1,2.4,2.3
		c0,0.1,0,0.1,0,0.2v3.1h3.4c1.3,0,2.4,1,2.4,2.3c0,0.1,0,0.1,0,0.2V96c0,1.1-0.6,2.4-3.4,2.4c-16.5,0-38.1,1.1-48.3,6.3
		C585.6,106.4,582.4,107.6,578.6,107.6z M521.5,20.5c-0.4,0-0.8,0.2-0.8,0.6c0,0.1,0,0.1,0,0.2V96c0,0.4,0.2,0.8,0.6,0.8
		c0.1,0,0.1,0,0.2,0c13.8,0,25.2,0.7,34,2.2c6.6,1.1,11.8,2.6,15.3,4.4l0.4,0.2v0.5c0,0.6,2.3,1.8,7,1.8h0.3c3.9,0,6.2-1.3,6.4-2
		l0.1-0.4l0.3-0.2c3.5-1.9,8.7-3.4,15.3-4.4c8.8-1.4,20.2-2.2,34-2.2c1.8,0,1.8-0.5,1.8-0.8V21.3c0-0.4-0.2-0.8-0.6-0.8
		c-0.1,0-0.1,0-0.2,0h-5.1v-4.7c0-0.4-0.2-0.8-0.6-0.8c-0.1,0-0.1,0-0.2,0h-0.3c-15.3,0-27.7,1.6-36.9,4.8c-7.6,2.6-11.5,5.8-13.3,8
		l-0.6,0.7l-0.6-0.7c-1.9-2.2-5.7-5.4-13.3-8c-9.2-3.2-21.6-4.8-36.9-4.8h-0.3c-0.4,0-0.8,0.2-0.8,0.6c0,0.1,0,0.1,0,0.2v4.7
		L521.5,20.5z M580.7,97.6V30.9l0.1-0.2c0.5-0.9,2.5-4.1,9.6-7.1c8.5-3.5,20.7-5.5,36.4-5.8l0.8,0v68.8l-0.8,0
		c-14.5,0.2-34.1,2.1-44.8,9.9L580.7,97.6z M582.3,31.3v63.1c4.3-2.7,9.1-4.7,14.1-5.9c8-2.1,18-3.3,29.6-3.5V19.6
		c-15.1,0.3-26.9,2.2-35,5.6C584.7,27.8,582.8,30.6,582.3,31.3L582.3,31.3z M577.1,97.6l-1.3-1c-10.7-7.9-30.3-9.8-44.8-9.9l-0.8,0
		V18.2l0.8,0c15.8,0.1,28.1,2.1,36.6,5.8c6.4,2.8,8.8,5.8,9.5,7l0.1,0.2L577.1,97.6z M531.8,85.1c11.6,0.2,21.6,1.4,29.6,3.5
		c5,1.2,9.7,3.2,14.1,5.9V31.7c-1.5-2.3-9.6-11.4-43.7-11.8L531.8,85.1z"/>
	<path id="Tracé_88" d="M225.1,0l5.7,9.9l-72.2,41.6h83.3v54.6c0,3.7-3,6.7-6.7,6.7h-73.7c-3.7,0-6.7-3-6.7-6.7V54.2
		c-0.8-0.3-1.3-1.1-1.3-1.9c0-0.4,0.2-0.8,0.5-1.1l-4.3-7.7L225.1,0z M228.6,9.3l-4.1-7.1l-72.6,41.9l4,7L228.6,9.3z M240.3,53.1
		h-83.8v8.2h83.8V53.1z M240.3,64.5h-83.8v41.6c0,2.8,2.2,5,4.9,5.1c0,0,0.1,0,0.1,0h73.7c2.8,0,5-2.2,5.1-4.9c0,0,0-0.1,0-0.1
		L240.3,64.5z"/>
</g>
<path id="Tracé_89" d="M454.8,120.6h-7.2l5.2-7.2h7.2L454.8,120.6z M440.5,120.6h-7.2l5.2-7.2h7.2L440.5,120.6z M426.2,120.6H419
	l5.2-7.2h7.2L426.2,120.6z M411.8,120.6h-7.2l5.2-7.2h7.2L411.8,120.6z M397.5,120.6h-7.2l5.2-7.2h7.2L397.5,120.6z M383.4,120.6
	h-7.2l5.2-7.2h7.2L383.4,120.6z"/>
<path id="Tracé_90" d="M377.9,101.4l5.9-3.3l-1,8.5l-5.9,3.3L377.9,101.4z M390,94.6l5.9-3.3l-1,8.5L389,103L390,94.6z M401.7,87.4
	l5.9-3.3l-1,8.5l-5.9,3.3L401.7,87.4z M413.8,80.5l5.9-3.3l-1,8.5l-5.9,3.3L413.8,80.5z M425.8,73.7l5.9-3.3l-1,8.5l-5.9,3.3
	L425.8,73.7z M437.9,66.8l5.9-3.3l-1,8.5l-5.9,3.3L437.9,66.8z"/>
<path id="Tracé_91" d="M408.4,134.5l19,11.9l-19,11.9V134.5z M424.3,146.4l-14.3-9v17.9L424.3,146.4z"/>
<g id="Groupe_78" transform="translate(45.159 85.555)">
	<path id="Tracé_92" d="M543,24c-3,0.2-5.9,0.6-8.8,1.3c-0.3-2.9,2.6-6.2,8.2-6.5c5.5-0.7,9.1,2.3,9.1,5.2
		C551.9,23.7,547.6,23.7,543,24 M507.8,27.6c-0.3-2.9,2.6-6.2,8.2-6.5c5.5-0.7,9.1,2.3,9.1,5.2c0,0-3.9,0-8.8,0.3
		C513.5,26.6,510.6,26.9,507.8,27.6"/>
	<path id="Tracé_93" d="M597.8,39.6c-5.5-0.7-8.5-3.9-8.2-6.5c2.9,0.7,5.8,1.1,8.8,1.3c4.9,0.3,8.8,0.3,8.8,0.3
		C606.6,37.4,603.4,40.3,597.8,39.6 M562.9,30.8c2.9,0.7,5.8,1.1,8.8,1.3c4.9,0.3,8.8,0.3,8.8,0.3c-0.3,2.9-3.6,5.5-9.1,5.2
		C565.5,37,562.6,33.4,562.9,30.8"/>
	<path id="Tracé_94" d="M595.9,64.1c-4.6,0.4-9.1,0.4-13.7,0c-4.5-0.4-9-1.3-13.4-2.6c0.7-5.9,5.9-11.7,14.7-11.1
		C592,51.4,596.5,58.2,595.9,64.1 M532.3,56c-8.8,0.7-14-4.9-14.7-11.1c4.4-1.3,8.8-2.2,13.4-2.6c4.6-0.4,9.1-0.4,13.7,0
		C545.3,48.5,541.1,55,532.3,56"/>
	<path id="Tracé_95" d="M41.6,1.7c22.7-0.1,41.3,18.2,41.6,40.9c0,13.5-6.2,14.7-12.1,14.7c-0.8,0-1.7,0-2.5-0.1s-1.7-0.1-2.5-0.1
		c-3,0-6,0.3-8.3,2.4c-2.4,2.2-2.3,5.8-2.2,9.6c0.1,4,0.2,8.2-2.6,11.1c-2.2,2.3-6,3.4-11.4,3.4c-11,0-21.6-4.3-29.4-12
		c-16-15.6-16.3-41.3-0.7-57.2c0.2-0.2,0.4-0.4,0.7-0.7C20,5.9,30.6,1.6,41.6,1.7z M71.1,55.6c2.7,0,5.4-0.2,7.3-2
		c2.1-1.9,3.1-5.5,3.1-11C81.1,20.4,62.8,2.9,40.6,3.3c-10.2,0.2-20,4.3-27.3,11.5C-2,29.8-2.3,54.4,12.7,69.7
		c0.2,0.2,0.4,0.4,0.6,0.6c7.5,7.4,17.7,11.5,28.2,11.5c5,0,8.4-0.9,10.3-2.9c2.3-2.4,2.2-6,2.1-9.9c-0.1-4-0.2-8.2,2.7-10.8
		c2.7-2.5,6.2-2.8,9.4-2.8c0.9,0,1.7,0,2.6,0.1C69.4,55.6,70.3,55.6,71.1,55.6z M41.6,9.8c4.4,0,8,3.6,7.9,8s-3.6,8-8,7.9
		c-4.4,0-7.9-3.6-7.9-7.9c-0.1-4.3,3.3-7.9,7.6-8C41.3,9.8,41.5,9.8,41.6,9.8z M41.6,24.2c3.5,0,6.4-2.8,6.4-6.4
		c0-3.5-2.8-6.4-6.4-6.4c-3.4-0.1-6.3,2.6-6.4,6.1c0,0.1,0,0.2,0,0.3C35.3,21.3,38.1,24.1,41.6,24.2L41.6,24.2z M19.8,21.9
		c1.5,0,2.9,0.4,4.2,1.1l0.1,0c3.7,2.4,4.9,7.3,2.9,11.2c-1.4,2.5-4.1,4.1-7,4c-1.5,0-2.9-0.4-4.2-1.1c-1.9-1-3.3-2.8-3.8-5
		c-0.5-2.1-0.2-4.3,0.9-6.2C14.2,23.4,16.9,21.8,19.8,21.9z M23.2,24.4c-1.1-0.6-2.2-0.9-3.4-0.9c-2.3-0.1-4.4,1.2-5.5,3.2
		c-0.9,1.5-1.1,3.4-0.7,5.1c0.4,1.7,1.5,3.1,3,3.9c1.1,0.6,2.3,0.9,3.5,0.9c2.3,0.1,4.4-1.2,5.5-3.2C27.2,30.2,26.2,26.3,23.2,24.4
		L23.2,24.4z M63,21.9c2.9,0,5.5,1.5,7,4l0,0.1c2.1,3.9,0.8,8.8-2.9,11.2l0,0c-1.3,0.7-2.7,1.1-4.2,1.1c-2.9,0-5.5-1.5-7-4l0,0
		c-2.2-3.9-0.9-8.9,2.9-11.2l0,0C60.1,22.3,61.5,21.9,63,21.9L63,21.9z M68.6,26.7c-1.2-2-3.3-3.2-5.6-3.2c-1.2,0-2.3,0.3-3.4,0.9
		c-3.1,1.8-4.2,5.8-2.3,8.9c1.2,2,3.3,3.2,5.7,3.2c1.2,0,2.3-0.3,3.4-0.9C69.3,33.8,70.3,29.8,68.6,26.7L68.6,26.7z M55.2,45
		c1.7-0.1,3.4,0.7,4.4,2.1l0.1,0.1c1.2,2.5-0.3,5.8-3.6,7.6c-1.3,0.7-2.7,1.1-4.2,1.1c-1.7,0.1-3.4-0.7-4.4-2.1
		c-0.6-0.9-0.7-2-0.5-3c0.6-2,2.1-3.7,4-4.7C52.2,45.4,53.7,45,55.2,45z M58.2,47.9c-0.7-0.9-1.8-1.4-3-1.3c-1.2,0-2.4,0.3-3.4,0.9
		c-1.5,0.7-2.7,2.1-3.2,3.7c-0.2,0.6-0.1,1.2,0.2,1.7c0.7,0.9,1.9,1.4,3,1.3c1.2,0,2.4-0.3,3.4-0.9C57.8,51.8,58.8,49.3,58.2,47.9z
		 M19.9,47c2.9,0,5.5,1.5,7,4l0,0c2.1,3.9,0.8,8.7-2.9,11.2l-0.1,0c-1.3,0.7-2.7,1.1-4.2,1.1c-2.9,0-5.5-1.5-7-4l0,0
		c-2.2-3.9-0.9-8.9,2.9-11.2l0,0C17,47.4,18.5,47,19.9,47L19.9,47z M25.6,51.8c-1.2-2-3.3-3.2-5.6-3.2c-1.2,0-2.3,0.3-3.4,0.9
		c-3.1,1.8-4.2,5.8-2.3,8.9c1.2,2,3.3,3.2,5.6,3.2c1.2,0,2.3-0.3,3.3-0.9C26.2,58.9,27.2,55,25.6,51.8z M41.6,59.7
		c4.4,0,8.1,3.5,8.1,8c0,4.4-3.5,8.1-8,8.1c-4.4,0-8.1-3.5-8.1-8c0-2.2,0.8-4.2,2.4-5.8C37.4,60.6,39.5,59.7,41.6,59.7L41.6,59.7z
		 M41.6,74c3.5,0,6.4-2.8,6.4-6.4c0-3.5-2.8-6.4-6.4-6.4c-3.5,0-6.4,2.8-6.4,6.4C35.3,71.2,38.1,74,41.6,74L41.6,74z"/>
	<path id="Tracé_96" d="M69.8,81.1L69.8,81.1c-2.3,0-4.7-0.2-7-0.8l-2.1-0.7l2-0.8c6.3-2.6,7.1-4.7,8.1-7.7c0.5-1.5,1.1-3,1.9-4.3
		c0.8-2,2.7-3.3,4.9-3.3c0.9,0,1.7,0.1,2.5,0.4l0.2,0c0.2-1.1,0.6-2.1,1.2-3l0,0c16.1-23,27.1-37.4,33.5-45.4
		C127.4,0,128.9,0,129.5,0c0.2,0,0.4,0.1,0.6,0.2c0.7,0.5,0.7,1.5-1.5,5.8c-1.6,3.1-4.1,7.5-7.3,12.7c-5.4,8.8-15.2,24.2-31.8,47.8
		c-0.6,1.1-1.5,2-2.6,2.5c0.2,1.6-0.8,3.4-2,5C81.9,80.1,74.1,81.1,69.8,81.1z M65.7,79.1c1.4,0.2,2.7,0.3,4.1,0.3l0,0
		c4,0,11-0.8,13.8-6.2l0-0.1l0-0.1c1.5-2.2,2-3.5,1.6-4.4l-0.6-1.2h1.3c0.7,0,1.5-0.6,2.2-1.9l0,0C104,43,113.7,28,119,19.3
		c5.9-9.6,8.5-14.6,9.4-16.8c-1.8,1.6-5.6,5.8-12.6,14.5c-6.3,7.9-17.1,22.1-32.9,44.6c-1,1.7-1.1,2.3-0.9,2.9l0.4,1.1h-1.1
		c-0.5,0-1-0.1-1.5-0.2c-0.7-0.2-1.4-0.3-2.2-0.3c-1,0-2.4,0.2-3.4,2.4l0,0.1c-0.8,1.3-1.4,2.6-1.8,4C71.5,74.2,70.6,76.6,65.7,79.1
		z"/>
</g>
</svg>
