<?xml version="1.0" encoding="utf-8"?>
<!-- Generator: Adobe Illustrator 25.4.1, SVG Export Plug-In . SVG Version: 6.00 Build 0)  -->
<svg version="1.1" id="Calque_1" xmlns="http://www.w3.org/2000/svg" xmlns:xlink="http://www.w3.org/1999/xlink" x="0px" y="0px"
	 viewBox="0 0 44 35.1" style="enable-background:new 0 0 44 35.1;" xml:space="preserve">
<style type="text/css">
	.st0{fill:none;stroke:#F23D47;stroke-width:0.5;}
	.st1{fill:none;stroke:#F23D47;stroke-width:2;}
	.st2{fill:#F23D47;}
</style>
<path class="st0" d="M6.6,9.2C5,9.4,4,10.9,4.2,12.5L7,29.9c0.2,1.6,1.7,2.6,3.3,2.4L37.4,28c1.6-0.2,2.6-1.7,2.4-3.3L37,7.3
	c-0.2-1.6-1.7-2.6-3.3-2.4L6.6,9.2z"/>
<path class="st1" d="M26.1,5.9l-0.2-1.2c-0.2-1.3-1.3-2.2-2.4-2L15.6,4c-1.1,0.2-1.9,1.3-1.7,2.6L14.1,8"/>
<path class="st2" d="M8.4,7.8C8.2,7.8,8.1,8,8.1,8.2l0.4,2.6c0,0.2,0.2,0.3,0.4,0.3L9.6,11c0.2,0,0.3-0.2,0.3-0.4L9.4,8
	c0-0.2-0.2-0.3-0.4-0.3L8.4,7.8z"/>
<path class="st2" d="M30.8,4c-0.2,0-0.3,0.2-0.3,0.4L31,7c0,0.2,0.2,0.3,0.4,0.3L32,7.2c0.2,0,0.3-0.2,0.3-0.4l-0.4-2.6
	c0-0.2-0.2-0.3-0.4-0.3L30.8,4z"/>
</svg>
