<?xml version="1.0" encoding="utf-8"?>
<!-- Generator: Adobe Illustrator 25.4.1, SVG Export Plug-In . SVG Version: 6.00 Build 0)  -->
<svg version="1.1" id="Calque_1" xmlns="http://www.w3.org/2000/svg" xmlns:xlink="http://www.w3.org/1999/xlink" x="0px" y="0px"
	 viewBox="0 0 44 35.1" style="enable-background:new 0 0 44 35.1;" xml:space="preserve">
<style type="text/css">
	.st0{fill:none;stroke:#F23D47;stroke-width:0.5;}
	.st1{fill:#F23D47;}
	.st2{fill:none;stroke:#F23D47;}
</style>
<polygon class="st0" points="22.2,3 2.8,11.2 22.2,19.4 41.6,11.2 "/>
<g>
	<path class="st0" d="M9.7,16.1v6.1c0,0,3.2,5.8,12.5,5.8s13-5.8,13-5.8v-6.1"/>
	<path class="st1" d="M22.2,11.2c1.1,0,2.1-0.4,2.1-1c0-0.5-0.9-1-2.1-1c-1.1,0-2.1,0.4-2.1,1S21,11.2,22.2,11.2"/>
</g>
<line class="st2" x1="22.2" y1="10.3" x2="31.9" y2="14.7"/>
<line class="st2" x1="32" y1="14.4" x2="32" y2="28.5"/>
<path class="st1" d="M32.1,28.1c1,0,1.7-0.8,1.7-1.7c0-1-0.8-1.7-1.7-1.7c-1,0-1.7,0.8-1.7,1.7C30.3,27.3,31.1,28.1,32.1,28.1"/>
<path class="st1" d="M30.9,27l-0.6,3.9c0,0,0,0.6,0.9,0.6h2.2c0,0,0.7-0.1,0.5-0.9c-0.1-0.8-0.8-3.7-0.8-3.7L30.9,27z"/>
</svg>
