<?xml version="1.0" encoding="utf-8"?>
<!-- Generator: Adobe Illustrator 25.4.1, SVG Export Plug-In . SVG Version: 6.00 Build 0)  -->
<svg version="1.1" id="Calque_1" xmlns="http://www.w3.org/2000/svg" xmlns:xlink="http://www.w3.org/1999/xlink" x="0px" y="0px"
	 viewBox="0 0 1088 800" style="enable-background:new 0 0 1088 800;" xml:space="preserve">
<style type="text/css">
	.st0{fill:#F23D47;}
</style>
<g>
	<path class="st0" d="M58.2,660.8l-0.9-0.3c0.1-0.3,10.8-33,1.7-65.2l1-0.3C69.1,627.4,58.3,660.4,58.2,660.8z"/>
	<path class="st0" d="M304.4,715.4l-0.6-0.1L49.5,659.8l0.4-2l253.7,55.4c1.7-2.5,8.8-13.9,8.8-32.7c0-21.3-9.1-33.1-9.2-33.2
		l1.6-1.2c0.4,0.5,9.6,12.4,9.6,34.4s-9.2,33.9-9.6,34.4L304.4,715.4z"/>
	<polygon class="st0" points="304.1,647.7 303.8,647.7 46.3,593.3 90.3,575.5 91.1,577.3 53.1,592.7 303.9,645.7 540,532.6 
		540.8,534.4 	"/>
	<path class="st0" d="M304.5,715.1l-0.9-1.8l236.7-119.6c0.7-1.6,3.9-10.2,4.2-28.4c0.3-17.7-3.8-28.6-4.7-30.9l-42.1-7.4l0.3-2
		l43.1,7.6l0.2,0.5c0.2,0.5,5.4,11.7,5.1,32.2c-0.3,20.8-4.3,29.2-4.5,29.5l-0.1,0.3l-0.3,0.2L304.5,715.1z"/>
	<g>
		<path class="st0" d="M87.5,589.1l-1-0.3c0.1-0.3,9.3-30.9,1.4-61l1-0.3C96.8,558,87.6,588.8,87.5,589.1z"/>
		<path class="st0" d="M298.4,638.5l-0.6-0.1L82.6,589.7l0.4-2l214.5,48.5c1.5-2.4,7.5-13.1,7.5-30.5c0-11.6-5.1-23.6-7.3-28.8
			c-1.3-3-1.5-3.5-0.7-4.1c0.8-0.5,1.5,0.2,1.7,0.5l-1.4,1.3c0.2,0,0.5,0,0.7-0.1c0.4-0.3,0.5-0.7,0.5-0.9c0.1,0.3,0.5,1.4,1,2.5
			c2.2,5.2,7.5,17.5,7.5,29.5c0,20.6-7.9,31.7-8.2,32.2L298.4,638.5z"/>
		<path class="st0" d="M298.5,638.3l-1-1.8l202.8-111.9c0.6-1.6,3.3-9.7,3.6-26.6c0.2-15.4-2.7-25.2-3.8-28.3L298.1,575.3l-221.6-51
			L301.4,443l0.2,0l199.7,24.4l0.2,0.5c0.2,0.4,4.7,10.9,4.4,30.1c-0.3,19.5-3.7,27.4-3.9,27.7l-0.1,0.3l-0.3,0.2L298.5,638.3z
			 M83.6,523.8l214.2,49.4l199.4-104.2L301.6,445L83.6,523.8z"/>
	</g>
</g>
<path class="st0" d="M473.2,442.4L473.2,442.4c-16,0-25.5-9.5-29.1-28.9l-44.5-262.6c-1.4-6.9,0.2-13.3,4.5-18.6
	c5.4-6.6,14.8-10.7,24.6-10.7h340c17.1,0,24.4,7.3,29.1,28.9l44.4,220.4v0.1c0,16-13,29.1-28.9,29.1L473.2,442.4z M428.6,123.6
	c-9.2,0-18,3.8-23,9.9c-3.9,4.8-5.3,10.6-4.1,17L446,413.1c3.4,18.3,12.3,27.2,27.1,27.3l340-42.3h0.1c14.9,0,26.9-12.1,27-27
	l-44.4-220.2c-4.4-20.7-11-27.3-27.1-27.3H428.6z"/>
<path class="st0" d="M646.7,609.8c-13.4,0-16.2-2.5-22.2-7.8c-1.2-1.1-2.6-2.4-4.3-3.7L505.7,497.6l1.3-1.5l114.4,100.7
	c1.7,1.4,3.1,2.6,4.4,3.8c6.8,6,9.1,8.1,29.6,7l347.4-66.3c8.9-1.8,14.2-4.7,15.3-8.3c1.1-3.7-2.1-7.7-5-10.5L847.1,408.2l-0.1-0.1
	c-0.1-0.1-9.7-10-21.3-10l-335.8,43c-23.4,3.3-22.9,7.3-22,15.2c0.2,1.8,0.5,3.9,0.5,6.2h-2c0-2.2-0.2-4.2-0.4-6
	c-1.1-9.4-0.5-14,23.7-17.4l336-43h0.1c12.1,0,21.7,9.5,22.7,10.5l165.9,114.2l0.1,0.1c4.8,4.6,6.7,8.9,5.6,12.6
	c-1.3,4.5-7,7.7-16.8,9.7l-347.6,66.3l-0.1,0C652.1,609.7,649.2,609.8,646.7,609.8z"/>
<path class="st0" d="M476.3,427.2c-11,0-12.5-7.1-15.3-26.4L423.8,168c-1.7-10.5-0.9-17.4,2.8-21.6c2.8-3.3,7.2-4.9,13.4-4.9h322.5
	c14.2,0,22,0,26.8,17.7L829,360.2c1.6,8.7,0.9,14.9-2.1,19.1c-2.3,3.3-6.1,5.3-11.2,6.1l0,0L479.4,427
	C478.3,427.1,477.3,427.2,476.3,427.2z M440,143.4c-5.6,0-9.5,1.4-11.9,4.2c-3.2,3.7-3.9,10.3-2.3,20L463,400.4
	c3.1,21.9,4.6,25.7,16.2,24.6l336.3-41.5c4.6-0.7,7.8-2.5,9.8-5.3c2.7-3.8,3.2-9.5,1.7-17.6l-39.7-201
	c-4.4-16.2-10.8-16.2-24.8-16.2H440z"/>
<path class="st0" d="M584.2,532c-12.3,0-14.9-2.3-20.2-7c-1.1-1-2.4-2.1-4-3.4l-67-54.8v-0.5c0-12.2,1.9-14.1,16.8-17l315-43.1h0.1
	c10.9,0,19.7,8.6,20.6,9.5l63.5,44.6c4.4,4.2,6.1,8,5.1,11.4c-1.2,4.1-6.3,7-15.3,8.8l0,0l-306.8,51.1l-0.1,0
	C589.1,532,586.5,532,584.2,532z M495.1,465.9l66.2,54.2c1.6,1.3,2.9,2.4,4,3.4c6.1,5.4,8.2,7.2,26.6,6.3l306.6-51.1
	c8-1.6,12.8-4.2,13.7-7.4c0.9-3.2-1.9-6.8-4.5-9.3l-63.5-44.6l-0.1-0.1c-0.1-0.1-8.8-9-19.2-9l-314.8,43.1
	C496.2,454.1,495.1,455.7,495.1,465.9z"/>
<path class="st0" d="M759.3,562.4c-3.8,0-5.4-1.3-7.7-3.5c-0.6-0.5-1.1-1.1-1.8-1.7l-29.7-24.3c-2-2.2-2.7-4.2-2.2-5.9
	c0.6-1.8,2.6-3,5.8-3.6l105.4-17.8c4.7-0.2,7.5,2.5,8,3l35.7,25.3c2.7,2.4,2.8,4.3,2.5,5.5c-0.6,2-2.9,3.5-7.2,4.3l0,0l-103.6,18
	C762.4,562.2,760.7,562.4,759.3,562.4z M721.5,531.5l29.5,24.2c0.7,0.6,1.4,1.2,1.9,1.8c2.7,2.6,3.9,3.8,11.3,2.4l103.6-18
	c4.4-0.9,5.4-2.2,5.6-2.9c0.2-0.9-0.4-2.1-1.9-3.5l-35.7-25.3l-0.1-0.1c-0.1-0.1-2.4-2.6-6.4-2.5l-105.2,17.8
	c-2.4,0.4-3.9,1.2-4.3,2.2C719.5,528.6,720.1,529.9,721.5,531.5z"/>
<g>
	<g>
		<path class="st0" d="M517.6,468.5c-1.2,0-3-0.5-3.5-1.2c-0.1-0.1-0.5-0.4-1-0.8c-3.8-2.8-6-4.7-5.8-5.7c0.1-0.3,0.4-0.5,1-0.6
			c0.7,0,1.9-0.3,3.4-0.6c6.3-1.2,12.1-2.1,13.2-0.2c0.1,0.1,0.7,0.5,1.3,1c3.1,2.2,5.8,4.2,5.5,5.4c-0.1,0.4-0.4,0.6-1,0.7
			c-5,0.8-7.5,1.2-12.2,1.9l-0.4,0.1C518,468.5,517.8,468.5,517.6,468.5z M521.5,458.8c-2.8,0-6.8,0.8-9.6,1.3
			c-1.6,0.3-2.8,0.5-3.5,0.6c-0.3,0-0.5,0.1-0.5,0.2c-0.3,0.9,4.1,4.1,5.6,5.2c0.8,0.6,1.1,0.8,1.1,0.9c0.4,0.6,2.5,1.2,3.6,1l0,0
			l0.4-0.1c4.7-0.8,7.2-1.2,12.2-1.9c0.3,0,0.6-0.1,0.6-0.3c0.2-1-3.7-3.7-5.3-4.9c-1.1-0.8-1.4-1-1.5-1.1
			C524.1,459,523,458.8,521.5,458.8z"/>
		<path class="st0" d="M539.5,464.9c-1.2,0-3-0.5-3.5-1.3c-0.1-0.1-0.7-0.6-1.4-1.1c-3-2.3-5.7-4.4-5.4-5.5c0.1-0.3,0.4-0.5,1-0.6
			c0.6,0,1.8-0.3,3.3-0.6c6.3-1.2,12.1-2.1,13.2-0.2c0.1,0.1,0.9,0.7,1.6,1.2c3,2.1,5.5,4,5.2,5.2c-0.1,0.4-0.4,0.6-1,0.7l-12.5,2
			C539.9,464.9,539.7,464.9,539.5,464.9z M543.3,455.2c-2.9,0-7,0.8-9.7,1.3c-1.5,0.3-2.7,0.5-3.4,0.6c-0.3,0-0.5,0.1-0.5,0.2
			c-0.2,0.8,3.7,3.8,5.2,4.9c1.1,0.8,1.4,1.1,1.5,1.2c0.4,0.7,2.5,1.2,3.5,1l0,0l12.5-2c0.3,0,0.6-0.1,0.6-0.3
			c0.2-0.9-3.3-3.4-5-4.6c-1.2-0.9-1.6-1.2-1.7-1.4C545.9,455.4,544.8,455.2,543.3,455.2z"/>
		<path class="st0" d="M561.3,461.4c-1.2,0-3-0.5-3.5-1.1c-0.1-0.1-0.8-0.6-1.4-1.1c-3-2.3-5.7-4.4-5.4-5.5c0.1-0.3,0.4-0.5,1-0.6
			c0.7,0,2-0.3,3.4-0.6c6.3-1.2,12-2.1,13.1-0.2c0.1,0.1,0.7,0.5,1.3,1c3,2.1,5.8,4.1,5.5,5.3c-0.1,0.4-0.4,0.6-1,0.7l-12.5,2
			C561.7,461.4,561.5,461.4,561.3,461.4z M565.1,451.8c-2.8,0-6.8,0.8-9.6,1.3c-1.6,0.3-2.8,0.5-3.5,0.6c-0.3,0-0.5,0.1-0.5,0.2
			c-0.2,0.8,3.7,3.8,5.2,4.9c1.1,0.8,1.4,1.1,1.5,1.2c0.4,0.5,2.5,1.1,3.5,0.9l0,0l12.5-2c0.3,0,0.6-0.1,0.6-0.3
			c0.2-0.9-3.6-3.6-5.3-4.8c-1.1-0.8-1.4-1-1.5-1.1C567.7,452,566.6,451.8,565.1,451.8z"/>
		<path class="st0" d="M583.2,457.9c-1.2,0-3.1-0.5-3.7-1.2c-0.1-0.1-0.6-0.4-1.1-0.8c-3.7-2.7-6-4.6-5.7-5.6
			c0.1-0.3,0.4-0.5,0.9-0.6c0.6,0,1.8-0.3,3.3-0.6c6.3-1.2,12-2.1,13.1-0.2c0.1,0.1,0.7,0.5,1.3,1c3,2.1,5.8,4.1,5.5,5.3
			c-0.1,0.4-0.4,0.6-1,0.7c-4.8,0.8-7.3,1.2-12,1.9l-0.4,0.1C583.4,457.9,583.3,457.9,583.2,457.9z M586.7,448.3
			c-2.8,0-7,0.8-9.6,1.3c-1.5,0.3-2.7,0.5-3.4,0.6c-0.3,0-0.5,0.1-0.5,0.2c-0.2,0.9,4.1,4.1,5.5,5.1c0.9,0.6,1.1,0.8,1.2,0.9
			c0.5,0.6,2.5,1.1,3.6,1l0.4-0.1c4.7-0.8,7.2-1.2,12-1.9c0.3,0,0.6-0.1,0.6-0.3c0.2-0.9-3.6-3.6-5.3-4.8c-1.1-0.8-1.4-1-1.5-1.1
			C589.3,448.5,588.2,448.3,586.7,448.3z"/>
		<path class="st0" d="M604.7,454.4c-1.2,0-3-0.5-3.5-1.2c-0.1-0.1-0.8-0.6-1.4-1.1c-3-2.2-5.7-4.3-5.4-5.4c0.1-0.3,0.4-0.5,0.9-0.6
			c0.5-0.1,1.5-0.2,2.7-0.5c6.3-1.2,12.5-2.2,13.7-0.3c0.1,0.1,0.9,0.7,1.6,1.2c3,2.1,5.5,3.9,5.2,5.1c-0.1,0.4-0.4,0.6-1,0.7
			c-2.4,0.4-4.3,0.7-6.1,1c-1.9,0.3-3.8,0.6-6.3,1C605.1,454.4,604.9,454.4,604.7,454.4z M608.3,444.8c-3,0-7.3,0.8-10.1,1.4
			c-1.2,0.2-2.2,0.4-2.8,0.5c-0.3,0-0.5,0.1-0.5,0.2c-0.2,0.8,3.7,3.7,5.2,4.8c1.1,0.8,1.4,1.1,1.5,1.2c0.4,0.6,2.5,1.2,3.5,1l0,0
			c2.6-0.4,4.4-0.7,6.3-1c1.8-0.3,3.6-0.6,6.1-1c0.2,0,0.6-0.1,0.6-0.3c0.2-0.9-3.3-3.4-5-4.5c-1.3-0.9-1.7-1.2-1.8-1.4
			C611,445,609.8,444.8,608.3,444.8z"/>
		<path class="st0" d="M626.2,450.9c-1.2,0-2.9-0.5-3.4-1.1c-0.1-0.1-0.8-0.6-1.4-1.1c-3-2.2-5.7-4.3-5.4-5.4
			c0.1-0.3,0.4-0.5,0.9-0.6c0.5-0.1,1.5-0.2,2.7-0.5c6.3-1.2,12.6-2.2,13.7-0.3c0.1,0.1,0.7,0.5,1.4,1c3,2.1,5.7,4,5.5,5.2
			c-0.1,0.4-0.4,0.6-1,0.7c-2.4,0.4-4.3,0.7-6.1,1c-1.9,0.3-3.8,0.6-6.3,1C626.7,450.9,626.5,450.9,626.2,450.9z M629.9,441.4
			c-3,0-7.5,0.8-10.2,1.3c-1.2,0.2-2.2,0.4-2.7,0.5c-0.3,0-0.5,0.1-0.5,0.2c-0.2,0.8,3.7,3.7,5.2,4.8c1.1,0.8,1.4,1.1,1.5,1.2
			c0.5,0.6,2.5,1.1,3.5,0.9l0,0c2.6-0.4,4.4-0.7,6.3-1c1.8-0.3,3.6-0.6,6.1-1c0.2,0,0.6-0.1,0.6-0.3c0.2-0.9-3.6-3.6-5.3-4.7
			c-1.1-0.8-1.4-1-1.5-1.1C632.6,441.6,631.5,441.4,629.9,441.4z"/>
		<path class="st0" d="M647.9,447.5c-1.2,0-2.9-0.5-3.5-1.4c-0.1-0.1-0.5-0.4-1.1-0.8c-3.7-2.7-6-4.5-5.7-5.5
			c0.1-0.3,0.4-0.5,0.9-0.6c0.6,0,1.8-0.3,3.2-0.5c6.1-1.1,12.1-2,13.2-0.2c0.1,0.1,0.7,0.5,1.4,1c3,2.1,5.7,4,5.5,5.2
			c-0.1,0.4-0.4,0.6-1,0.7c-2.5,0.4-4.4,0.7-6.2,1c-1.8,0.3-3.7,0.6-6.2,1C648.3,447.5,648.1,447.5,647.9,447.5z M651.5,438
			c-2.9,0-7,0.7-9.6,1.2c-1.5,0.3-2.6,0.5-3.2,0.5c-0.3,0-0.5,0.1-0.5,0.2c-0.2,0.9,4.1,4,5.5,5c0.9,0.6,1.1,0.8,1.2,0.9
			c0.5,0.8,2.5,1.3,3.6,1.1l0,0c2.5-0.4,4.3-0.7,6.2-1c1.8-0.3,3.7-0.6,6.2-1c0.2,0,0.6-0.1,0.6-0.3c0.2-0.9-3.6-3.6-5.3-4.7
			c-1.1-0.8-1.4-1-1.5-1.1C654.2,438.2,653,438,651.5,438z"/>
		<path class="st0" d="M669.4,444.1c-1.2,0-2.9-0.5-3.4-1.2c0,0-0.4-0.3-0.8-0.6c-3.8-2.7-6.2-4.7-6-5.8c0.1-0.3,0.4-0.5,0.9-0.6
			c0.6,0,1.8-0.3,3.2-0.5c6.1-1.1,12.1-2,13.2-0.2c0.1,0.1,0.6,0.5,1.2,0.8c3,2,5.9,4.1,5.7,5.3c-0.1,0.4-0.4,0.6-1,0.7
			c-4.4,0.6-6.7,1-10.6,1.6L670,444C669.9,444.1,669.7,444.1,669.4,444.1z M673.1,434.7c-2.9,0-7,0.7-9.6,1.2
			c-1.5,0.3-2.6,0.5-3.2,0.5c-0.3,0-0.5,0.1-0.5,0.2c-0.2,0.6,1.8,2.4,5.8,5.2c0.6,0.4,0.8,0.6,0.9,0.7c0.5,0.7,2.6,1.2,3.6,1l0,0
			l1.8-0.3c3.9-0.6,6.2-1,10.6-1.6c0.3,0,0.6-0.1,0.6-0.3c0.2-1-3.9-3.8-5.4-4.8c-0.9-0.6-1.2-0.8-1.3-1
			C675.8,435,674.6,434.7,673.1,434.7z"/>
		<path class="st0" d="M691,440.7c-1.2,0-2.9-0.5-3.4-1.1c-0.1-0.1-0.8-0.6-1.4-1.1c-2.9-2.2-5.6-4.2-5.3-5.3
			c0.1-0.3,0.4-0.5,0.9-0.6c0.6,0,1.8-0.3,3.2-0.5c6.1-1.1,12.1-2,13.2-0.2c0.1,0.1,0.7,0.5,1.4,1c3,2,5.6,3.9,5.4,5.1
			c-0.1,0.4-0.4,0.6-1,0.7c-4.4,0.6-6.8,1-10.7,1.6l-1.7,0.3C691.5,440.7,691.3,440.7,691,440.7z M694.8,431.4c-2.9,0-7,0.7-9.6,1.2
			c-1.5,0.3-2.6,0.5-3.2,0.5c-0.3,0-0.5,0.1-0.5,0.2c-0.2,0.8,3.6,3.7,5.1,4.7c1.1,0.8,1.4,1,1.5,1.2c0.5,0.6,2.5,1.1,3.5,0.9l0,0
			l1.7-0.3c3.9-0.6,6.3-1,10.7-1.6c0.2,0,0.6-0.1,0.6-0.3c0.2-0.9-3.6-3.5-5.2-4.6c-1.1-0.8-1.4-1-1.5-1.1
			C697.5,431.6,696.3,431.4,694.8,431.4z"/>
		<path class="st0" d="M712.8,437.4c-1.2,0-3-0.5-3.5-1.2c-0.1-0.1-0.5-0.4-1.1-0.8c-3.7-2.6-5.9-4.5-5.6-5.4
			c0.1-0.3,0.4-0.5,0.9-0.6c0.6,0,1.8-0.3,3.2-0.5c6.4-1.1,12.2-2,13.2-0.2c0.1,0.1,0.7,0.5,1.4,1c3,2,5.6,3.9,5.4,5.1
			c-0.1,0.4-0.4,0.6-1,0.7c-2.5,0.4-4.4,0.7-6.2,1c-1.8,0.3-3.7,0.5-6.2,0.9C713.2,437.4,713,437.4,712.8,437.4z M716.5,428.1
			c-2.9,0-7,0.7-9.7,1.2c-1.5,0.3-2.6,0.5-3.3,0.5c-0.3,0-0.5,0.1-0.5,0.2c-0.2,0.9,4,3.9,5.4,4.9c0.9,0.6,1.1,0.8,1.2,0.9
			c0.4,0.6,2.5,1.2,3.6,1l0,0c2.5-0.4,4.4-0.7,6.2-1c1.8-0.3,3.7-0.5,6.2-0.9c0.2,0,0.6-0.1,0.6-0.3c0.2-0.9-3.6-3.5-5.2-4.6
			c-1.1-0.8-1.4-1-1.5-1.1C719.2,428.3,718.1,428.1,716.5,428.1z"/>
		<path class="st0" d="M734.4,434.1c-1.2,0-2.9-0.5-3.4-1.2c0,0-0.4-0.3-0.8-0.6c-3.7-2.6-6.2-4.6-5.9-5.6c0.1-0.3,0.4-0.5,1-0.6
			c0.6,0,1.8-0.3,3.2-0.5c6.4-1.1,12.2-2,13.2-0.2c0.1,0.1,0.7,0.5,1.3,1c3,2,5.6,3.9,5.3,5.1c-0.1,0.4-0.4,0.6-1,0.7
			c-2.6,0.4-4.5,0.7-6.5,1c-1.8,0.3-3.6,0.5-5.9,0.9C734.8,434.1,734.6,434.1,734.4,434.1z M738.2,424.8c-2.9,0-7,0.7-9.7,1.2
			c-1.5,0.3-2.6,0.5-3.3,0.5c-0.3,0-0.5,0.1-0.5,0.2c-0.2,0.6,1.8,2.3,5.7,5.1c0.6,0.4,0.8,0.6,0.9,0.7c0.5,0.6,2.5,1.2,3.5,1l0,0
			c2.4-0.4,4.2-0.6,5.9-0.9c2-0.3,3.9-0.6,6.5-1c0.2,0,0.6-0.1,0.6-0.3c0.2-0.9-3.5-3.5-5.1-4.6c-1.1-0.8-1.4-1-1.5-1.1
			C740.9,425,739.8,424.8,738.2,424.8z"/>
		<path class="st0" d="M756,430.8c-1.2,0-2.9-0.5-3.4-1.2c-0.1-0.1-0.5-0.4-1-0.8c-3.6-2.6-5.8-4.4-5.6-5.4c0.1-0.3,0.4-0.5,1-0.6
			c0.6,0,1.8-0.2,3.3-0.5c6.4-1.1,12.2-1.9,13.3-0.1c0.1,0.1,0.7,0.5,1.3,1c3,2,5.6,3.9,5.3,5.1c-0.1,0.4-0.4,0.6-1,0.7
			c-2.5,0.4-4.4,0.6-6.3,0.9c-1.9,0.3-3.7,0.5-6.2,0.9C756.5,430.8,756.3,430.8,756,430.8z M759.9,421.6c-2.9,0-7,0.7-9.6,1.1
			c-1.5,0.3-2.6,0.5-3.3,0.5c-0.3,0-0.5,0.1-0.5,0.2c-0.2,0.9,4,3.9,5.4,4.9c0.8,0.6,1.1,0.8,1.1,0.9c0.5,0.7,2.5,1.2,3.6,1l0,0
			c2.5-0.3,4.4-0.6,6.2-0.9c1.9-0.3,3.8-0.5,6.3-0.9c0.2,0,0.6-0.1,0.6-0.3c0.2-0.9-3.5-3.5-5.1-4.6c-1.1-0.8-1.4-1-1.5-1.1
			C762.7,421.8,761.5,421.6,759.9,421.6z"/>
		<path class="st0" d="M777.8,427.6c-1.2,0-3-0.5-3.4-1.1c-0.1-0.1-0.7-0.6-1.4-1.1c-2.9-2.1-5.5-4.1-5.2-5.2c0.1-0.3,0.4-0.5,1-0.6
			c0.6,0,1.7-0.2,3.1-0.5c6.2-1.1,12.4-1.9,13.4-0.1c0.1,0.1,0.7,0.5,1.3,1c2.9,2,5.6,3.9,5.3,5c-0.1,0.4-0.4,0.6-1,0.7
			c-2.5,0.4-4.4,0.6-6.3,0.9c-1.9,0.3-3.7,0.5-6.2,0.9C778.3,427.6,778.1,427.6,777.8,427.6z M781.7,418.5c-2.9,0-7,0.7-9.7,1.2
			c-1.4,0.2-2.5,0.4-3.2,0.5c-0.3,0-0.5,0.1-0.5,0.2c-0.2,0.8,3.5,3.5,5,4.6c1.1,0.8,1.4,1,1.5,1.2c0.4,0.6,2.5,1.1,3.5,0.9l0,0
			c2.5-0.3,4.4-0.6,6.2-0.9c1.9-0.3,3.8-0.5,6.3-0.9c0.2,0,0.6-0.1,0.6-0.3c0.2-0.9-3.5-3.4-5.1-4.5c-1.1-0.8-1.4-1-1.5-1.1
			C784.5,418.7,783.3,418.5,781.7,418.5z"/>
		<path class="st0" d="M800,424.5c-1.2,0-3.2-0.5-3.7-1.2c-0.1-0.1-0.5-0.4-1.1-0.8c-3.6-2.6-5.8-4.4-5.5-5.4c0.1-0.3,0.4-0.5,1-0.5
			c0.6,0,1.7-0.2,3.1-0.5c6.2-1,12.4-1.9,13.4-0.1c0.1,0.1,0.7,0.5,1.4,1c2.9,2,5.6,3.9,5.3,5c-0.1,0.4-0.4,0.6-1,0.7
			c-2.5,0.4-4.4,0.6-6.3,0.9c-1.9,0.3-3.7,0.5-6.2,0.9l0,0C800.2,424.5,800.1,424.5,800,424.5z M803.6,415.4c-2.9,0-7.1,0.7-9.8,1.1
			c-1.4,0.2-2.5,0.4-3.1,0.5c-0.4,0-0.5,0.1-0.5,0.2c-0.2,0.8,4,3.8,5.3,4.8c0.9,0.6,1.1,0.8,1.2,0.9c0.4,0.6,2.4,1.1,3.6,1
			c2.5-0.3,4.3-0.6,6.2-0.9c1.9-0.3,3.8-0.6,6.3-0.9c0.2,0,0.6-0.1,0.6-0.3c0.2-0.9-3.5-3.4-5.1-4.5c-1.1-0.8-1.4-1-1.5-1.1
			C806.4,415.7,805.2,415.4,803.6,415.4z"/>
		<path class="st0" d="M821.7,421.1c-1.9,0-3.2-0.3-3.6-1c-0.1-0.1-0.7-0.5-1.3-1c-2.9-2-5.5-3.9-5.2-5c0.1-0.4,0.4-0.6,1-0.7
			c2.5-0.3,4.3-0.6,6.2-0.9c1.9-0.3,3.8-0.6,6.3-0.9c1.2-0.2,3.5,0.4,4,1.2c0.1,0,0.5,0.4,1.1,0.8c3.6,2.6,5.8,4.4,5.5,5.4
			c-0.1,0.3-0.4,0.5-1,0.5c-0.6,0-1.7,0.2-3.1,0.5C827.9,420.6,824.3,421.1,821.7,421.1z M825.6,412.1c-0.2,0-0.3,0-0.5,0l0,0
			c-2.5,0.4-4.4,0.6-6.3,0.9c-1.9,0.3-3.7,0.5-6.2,0.9c-0.2,0-0.6,0.1-0.6,0.3c-0.2,0.9,3.5,3.4,5,4.5c1.1,0.8,1.4,1,1.5,1.1
			c1,1.6,8.8,0.3,12.9-0.4c1.4-0.2,2.5-0.4,3.1-0.5c0.4,0,0.5-0.1,0.5-0.2c0.2-0.8-4-3.8-5.3-4.8c-0.9-0.6-1.1-0.8-1.2-0.9
			C828.3,412.7,826.8,412.1,825.6,412.1z"/>
		<path class="st0" d="M867.6,475.1c-1.5,0-2.8-0.2-3.7-0.9c-2.6-2-3.6-3.1-3.4-3.9c0.2-0.8,1.7-0.9,3.5-1.1
			c1.1-0.1,2.3-0.2,3.4-0.5c0.8-0.6,3.4,0.8,4.1,1.2c0.4,0.2,4.1,2.3,3.9,3.6c-0.1,0.4-0.4,0.6-1,0.7c-0.4,0.1-1,0.1-1.6,0.2
			C871.3,474.7,869.4,475.1,867.6,475.1z M867.9,469.1c-0.1,0-0.2,0-0.2,0.1l-0.1,0.1c-1.1,0.3-2.4,0.4-3.5,0.5
			c-1.4,0.1-2.9,0.2-3,0.7c-0.1,0.4,0.4,1.2,3.2,3.3c1.8,1.3,5.8,0.7,8.5,0.2c0.6-0.1,1.2-0.2,1.6-0.2c0.1,0,0.5-0.1,0.5-0.3
			c0.1-0.5-1.3-1.8-3.6-3.1C869.6,469.5,868.4,469.1,867.9,469.1z"/>
		<path class="st0" d="M881.4,473c-1.5,0-2.8-0.2-3.7-0.9c-2.6-1.9-3.6-3.1-3.3-3.9c0.2-0.8,1.7-0.9,3.5-1.1
			c1.1-0.1,2.3-0.2,3.4-0.5c1-0.7,4.3,1.3,4.7,1.5c0.8,0.5,3.6,2.2,3.3,3.3c-0.1,0.4-0.4,0.6-1,0.7c-0.5,0.1-1,0.2-1.7,0.3
			C885.1,472.7,883.1,473,881.4,473z M881.8,467c-0.1,0-0.2,0-0.3,0.1l-0.1,0c-1.1,0.3-2.4,0.4-3.5,0.5c-1.4,0.1-2.9,0.2-3.1,0.7
			c-0.1,0.4,0.4,1.2,3.2,3.3c1.8,1.3,5.8,0.6,8.5,0.2c0.6-0.1,1.2-0.2,1.7-0.3c0.1,0,0.5-0.1,0.5-0.3c0.1-0.4-1-1.5-3.1-2.8
			C884,467.6,882.5,467,881.8,467z"/>
		<path class="st0" d="M872.8,466.7c-1.5,0-2.8-0.2-3.7-0.9c-2.6-1.9-3.6-3.1-3.3-3.9c0.2-0.8,1.7-0.9,3.5-1.1
			c1.1-0.1,2.3-0.2,3.4-0.5c0.9-0.5,3.8,0.9,5.4,2c1.3,0.8,2.8,2,2.6,2.8c-0.1,0.3-0.4,0.5-1,0.6c-0.5,0.1-1,0.2-1.7,0.3
			C876.5,466.4,874.5,466.7,872.8,466.7z M873.2,460.7c-0.1,0-0.2,0-0.3,0.1l-0.1,0c-1.1,0.3-2.4,0.4-3.5,0.5
			c-1.4,0.1-2.9,0.2-3.1,0.7c-0.1,0.4,0.4,1.2,3.2,3.3c1.8,1.3,5.8,0.7,8.5,0.2c0.6-0.1,1.2-0.2,1.7-0.3c0.3,0,0.5-0.1,0.5-0.2
			c0.1-0.3-0.5-1.1-2.4-2.3C875.9,461.5,873.9,460.7,873.2,460.7z"/>
		<path class="st0" d="M895.4,470.8c-1.4,0-2.8-0.2-3.7-0.9c-2.6-1.9-3.6-3-3.4-3.8c0.2-0.8,1.7-0.9,3.5-1.1
			c1.1-0.1,2.4-0.2,3.4-0.5c0.9-0.5,3.7,1,5.2,1.9c1.1,0.7,3,2.1,2.8,2.9c-0.1,0.3-0.4,0.5-1,0.6c-0.5,0.1-1,0.1-1.7,0.3
			C899.1,470.5,897.1,470.8,895.4,470.8z M895.8,464.9c-0.1,0-0.2,0-0.2,0l-0.1,0c-1.1,0.3-2.4,0.4-3.6,0.5c-1.4,0.1-2.9,0.2-3,0.7
			c-0.1,0.3,0.4,1.2,3.2,3.3c1.8,1.3,5.8,0.7,8.5,0.2c0.6-0.1,1.2-0.2,1.7-0.3c0.4,0,0.5-0.1,0.5-0.2c0.1-0.3-0.6-1.1-2.6-2.4
			C898.1,465.6,896.4,464.9,895.8,464.9z"/>
		<path class="st0" d="M534.8,482.1c-2.7,0-7.7-4.2-11-7.1c-1.1-0.9-2-1.7-2.6-2.1c-0.6-0.4-0.9-1-0.7-1.5c0.1-0.4,0.5-0.7,1.1-0.8
			c0.7,0,1.9-0.3,3.5-0.6c4.8-0.9,12-2.3,13.9-0.5c1.9,1.7,3.5,3.2,4.8,4.3c3.7,3.2,5,4.4,4.8,5.3c-0.2,0.8-1.6,1-4.5,1.3
			c-2.1,0.3-5,0.7-8.6,1.4C535.2,482.1,535,482.1,534.8,482.1z M535.1,469.2c-3,0-7.2,0.8-10.1,1.3c-1.6,0.3-2.8,0.5-3.5,0.6
			c-0.3,0-0.6,0.2-0.6,0.4c-0.1,0.3,0.1,0.7,0.5,0.9c0.6,0.4,1.5,1.2,2.6,2.1c3.3,2.9,9,7.6,11.2,6.9l0,0c3.7-0.8,6.6-1.2,8.7-1.5
			c2.3-0.3,3.9-0.5,4-1c0.2-0.6-1.6-2.2-4.6-4.8c-1.3-1.2-2.9-2.6-4.8-4.3C537.9,469.4,536.7,469.2,535.1,469.2z"/>
		<path class="st0" d="M557.2,478c-1.6,0-2.6-0.2-2.9-0.8c-0.1-0.1-0.9-0.7-1.7-1.2c-5.9-4.2-9.5-7-9.1-8.3c0.1-0.4,0.4-0.6,1-0.6
			l0,0c0.9,0,2.8-0.3,4.9-0.7c6.6-1.1,11.7-1.8,12.4-0.2c0.2,0.1,0.9,0.7,1.7,1.3c5.8,4.2,9.3,7.1,9,8.3c-0.1,0.3-0.4,0.5-0.9,0.5
			c-0.7,0-2.4,0.3-4.3,0.6C563.3,477.4,559.6,478,557.2,478z M544.5,467.5c-0.2,0-0.5,0.1-0.5,0.2c-0.3,1.2,6.4,6,8.9,7.8
			c1.6,1.1,1.8,1.3,1.8,1.4c0.5,1.3,8.3,0.1,12.5-0.6c2-0.3,3.6-0.6,4.4-0.6c0.3,0,0.5-0.1,0.5-0.2c0.3-1.1-6.5-6.1-8.8-7.7
			c-1.6-1.2-1.8-1.3-1.9-1.5c-0.5-1.4-7.6-0.2-11.8,0.5C547.3,467.1,545.4,467.4,544.5,467.5z"/>
		<path class="st0" d="M581.7,474.3c-3.9,0-6.3-1.9-13.9-8.2l-0.8-0.7c-0.6-0.4-0.9-0.8-0.8-1.2c0.4-1.5,6.3-2.3,12.6-3
			c0.8-0.1,1.5-0.1,1.7-0.2c0.9-0.7,4.3,1.7,11.2,6.8c1.3,1,2.5,1.9,3.1,2.2c0.6,0.3,0.9,0.8,0.8,1.3c-0.1,0.4-0.5,0.8-1.1,0.9
			c-2.3,0.4-4.2,0.7-5.8,1.1C585.6,473.9,583.5,474.3,581.7,474.3z M581,461.4c-0.1,0-0.1,0-0.2,0c-0.1,0.1-0.2,0.1-1.9,0.3
			c-2.9,0.3-11.9,1.2-12.2,2.6c-0.1,0.2,0.3,0.5,0.6,0.7l0,0l0.8,0.7c10.8,8.9,10.8,8.9,20.4,7.1c1.7-0.3,3.6-0.7,5.9-1.1
			c0.4-0.1,0.6-0.2,0.7-0.5c0-0.2-0.2-0.5-0.6-0.8c-0.6-0.4-1.7-1.2-3.1-2.3C588.9,466.3,582.3,461.4,581,461.4z"/>
		<path class="st0" d="M604.4,470.6c-3.9,0-6.3-1.9-13.8-8.2l-0.8-0.7c-0.6-0.4-0.8-0.8-0.7-1.2c0.3-1.4,5.2-2.2,12.5-3
			c0.8-0.1,1.5-0.2,1.7-0.2c0.9-0.7,4.3,1.7,11.2,6.8c1.3,1,2.5,1.9,3.1,2.2c0.6,0.3,0.9,0.8,0.8,1.3c-0.1,0.4-0.5,0.8-1.1,0.9
			c-2.3,0.4-4.2,0.7-5.8,1.1C608.3,470.2,606.2,470.6,604.4,470.6z M603.5,457.8c-0.1,0.1-0.3,0.1-2,0.3c-2.9,0.3-11.7,1.2-12,2.6
			c-0.1,0.2,0.3,0.5,0.5,0.7l0,0l0.8,0.7c10.8,8.9,10.8,8.9,20.3,7.1c1.7-0.3,3.5-0.7,5.8-1.1c0.4-0.1,0.6-0.2,0.7-0.5
			c0-0.2-0.2-0.5-0.6-0.8c-0.6-0.4-1.7-1.2-3.1-2.3C611.4,462.6,604.3,457.3,603.5,457.8z"/>
		<path class="st0" d="M627.3,466.8c-3.9,0-6.3-1.9-13.9-8.2l-0.8-0.7c-0.6-0.4-0.8-0.8-0.7-1.2c0.3-1.4,5.2-2.2,12.5-2.9
			c0.8-0.1,1.5-0.1,1.7-0.2c0.9-0.7,4.5,1.8,11.3,6.8c1.3,1,2.4,1.8,3,2.1c0.6,0.3,0.9,0.8,0.8,1.3c-0.1,0.4-0.5,0.8-1.1,0.9
			c-2.3,0.4-4.2,0.7-5.8,1C631.1,466.4,629,466.8,627.3,466.8z M626.4,454.1c-0.1,0-0.1,0-0.2,0c-0.1,0.1-0.2,0.1-1.9,0.3
			c-2.9,0.3-11.7,1.2-12,2.5c-0.1,0.2,0.3,0.5,0.5,0.6l0,0l0.8,0.7c10.8,8.9,10.8,8.9,20.3,7.1c1.7-0.3,3.6-0.7,5.8-1
			c0.4-0.1,0.6-0.2,0.7-0.5c0-0.2-0.2-0.5-0.6-0.8c-0.6-0.4-1.6-1.2-3-2.2C634.4,459,627.7,454.1,626.4,454.1z"/>
		<path class="st0" d="M649.8,463.2c-3.9,0-6.3-1.9-13.9-8.2l-0.8-0.7c-0.6-0.4-0.8-0.8-0.7-1.2c0.3-1.4,5.2-2.2,12.4-2.9
			c0.8-0.1,1.5-0.1,1.7-0.2c0.9-0.7,4.6,1.8,11.3,6.8c1.3,1,2.4,1.8,3,2.1c0.6,0.3,0.9,0.8,0.8,1.3c-0.1,0.4-0.5,0.8-1.1,0.9
			c-2.3,0.4-4.2,0.7-5.8,1C653.7,462.8,651.6,463.2,649.8,463.2z M648.8,450.6c-0.1,0.1-0.3,0.1-2,0.3c-2.9,0.3-11.6,1.1-11.9,2.5
			c-0.1,0.2,0.3,0.5,0.5,0.7l0,0l0.8,0.7c10.8,8.9,10.8,8.9,20.3,7.1c1.7-0.3,3.5-0.7,5.8-1c0.4-0.1,0.6-0.2,0.7-0.5
			c0-0.2-0.2-0.5-0.6-0.8c-0.6-0.4-1.6-1.2-3-2.2C656.8,455.3,649.6,450,648.8,450.6z"/>
		<path class="st0" d="M672.5,459.4c-3.9,0-6.3-1.9-13.9-8.1l-0.8-0.6c-0.6-0.4-0.8-0.8-0.7-1.1c0.3-1.3,4.8-2.1,11.8-2.8
			c1.1-0.1,2.1-0.2,2.3-0.3c0.8-0.7,4.5,1.7,11.3,6.7c1.3,1,2.4,1.7,2.9,2.1c0.6,0.4,0.9,0.9,0.8,1.4c-0.1,0.2-0.3,0.7-1.1,0.8
			c-2.3,0.4-4.2,0.7-5.8,1C676.3,459,674.3,459.4,672.5,459.4z M671.7,446.8c-0.1,0-0.1,0-0.2,0c-0.1,0.1-0.3,0.2-2.6,0.4
			c-3,0.3-11.1,1.2-11.4,2.4c0,0.2,0.2,0.4,0.5,0.6l0,0l0.8,0.6c10.9,8.8,10.9,8.8,20.3,7c1.7-0.3,3.5-0.7,5.8-1
			c0.4-0.1,0.6-0.2,0.7-0.4c0-0.2-0.2-0.5-0.6-0.8c-0.6-0.4-1.6-1.1-2.9-2.1C679.7,451.7,673,446.8,671.7,446.8z"/>
		<path class="st0" d="M693.4,455.7c-1.6,0-2.6-0.2-2.9-0.8c-0.1-0.1-0.8-0.6-1.6-1.2c-5.8-4.1-9.4-6.9-9-8.1
			c0.1-0.3,0.4-0.5,0.9-0.5c0.8,0,2.4-0.3,4.4-0.6c6.9-1.1,12.3-1.8,12.9-0.2c0.1,0.1,1,0.7,2,1.4c5.8,4,9.1,6.5,8.7,7.8
			c-0.1,0.3-0.4,0.6-1,0.6l0,0c-0.9,0-2.8,0.3-5,0.6C698.9,455.2,695.6,455.7,693.4,455.7z M695.2,443.8c-2.7,0-7.2,0.7-10,1.2
			c-2,0.3-3.6,0.6-4.4,0.6c-0.3,0-0.5,0.1-0.5,0.2c-0.3,1.1,6.6,6,8.9,7.6c1.7,1.2,1.7,1.2,1.8,1.3c0.5,1.2,7.5,0.1,11.7-0.5
			c2.2-0.4,4.1-0.7,5.1-0.7c0.2,0,0.5-0.1,0.5-0.2c0.3-1.1-6.1-5.6-8.5-7.2c-2-1.4-2.1-1.5-2.1-1.6
			C697.4,443.9,696.5,443.8,695.2,443.8z"/>
		<path class="st0" d="M716,452.1c-1.6,0-2.6-0.2-2.9-0.9c-0.1-0.1-1-0.8-2-1.5c-5.7-4-8.9-6.6-8.6-7.8c0.1-0.3,0.4-0.5,0.9-0.5
			c0.8,0,2.4-0.3,4.3-0.6c6.9-1.1,12.3-1.8,12.9-0.2c0.1,0.1,1,0.7,1.9,1.4c5.8,4,9.1,6.5,8.7,7.8c-0.1,0.3-0.4,0.6-1,0.6l0,0
			c-0.9,0-2.8,0.3-5,0.6C721.5,451.6,718.2,452.1,716,452.1z M717.8,440.2c-2.7,0-7.2,0.7-10,1.2c-2,0.3-3.6,0.6-4.4,0.6
			c-0.3,0-0.5,0.1-0.5,0.2c-0.3,1,6,5.5,8.4,7.2c2,1.5,2.2,1.6,2.2,1.7c0.5,1.2,7.5,0.1,11.7-0.5c2.2-0.3,4.1-0.7,5-0.7
			c0.2,0,0.5-0.1,0.5-0.2c0.3-1.1-6.1-5.6-8.5-7.2c-2-1.4-2.1-1.5-2.1-1.6C720,440.3,719.1,440.2,717.8,440.2z"/>
		<path class="st0" d="M739.5,449c-1.4,0-5-2.4-10.9-6.8c-1.3-0.9-2.3-1.7-2.8-2c-0.6-0.4-0.9-0.9-0.8-1.4c0.1-0.2,0.3-0.7,1.1-0.8
			c2.3-0.3,4.1-0.7,5.7-1c9.8-1.7,9.8-1.7,20.6,6.9l1,0.8c0.6,0.3,0.8,0.7,0.7,1.1c-0.3,1.3-4.7,2-11.8,2.7
			c-1.2,0.1-2.2,0.2-2.4,0.3l0,0C739.8,449,739.7,449,739.5,449z M738.6,436.7c-1.7,0-3.8,0.4-6.7,0.9c-1.6,0.3-3.5,0.6-5.8,1
			c-0.4,0.1-0.6,0.2-0.7,0.4c0,0.2,0.2,0.5,0.6,0.8c0.5,0.4,1.5,1.1,2.8,2c2.8,2,10.1,7.4,10.8,6.7c0.1-0.1,0.1-0.1,2.7-0.4
			c3-0.3,11.1-1.1,11.3-2.3c0-0.1-0.2-0.4-0.5-0.6l0,0l-1-0.8C744.7,438.5,742.4,436.7,738.6,436.7z"/>
		<path class="st0" d="M761.5,445.1c-1.6,0-2.7-0.2-3-0.9c-0.1-0.1-0.8-0.6-1.6-1.1c-5.8-4.1-9.3-6.8-9-8c0.1-0.3,0.4-0.5,0.9-0.5
			c0.7,0,2.3-0.3,4.2-0.5c6.8-1,12.6-1.7,13.1-0.2c0.1,0.1,1,0.7,1.9,1.4c5.7,3.9,9,6.4,8.6,7.7c-0.1,0.3-0.4,0.6-1,0.6l0,0
			c-0.9,0-2.8,0.3-4.9,0.6C767,444.6,763.7,445.1,761.5,445.1z M763.3,433.4c-2.8,0-7.3,0.7-10.2,1.1c-1.9,0.3-3.5,0.5-4.2,0.5
			c-0.3,0-0.5,0.1-0.5,0.2c-0.3,1.1,6.5,5.9,8.8,7.5c1.7,1.2,1.7,1.2,1.7,1.3c0.5,1.3,7.5,0.2,11.8-0.5c2.2-0.3,4.1-0.6,5-0.6
			c0.3,0,0.5-0.1,0.5-0.2c0.3-1.1-6.1-5.5-8.4-7.1c-2-1.4-2.1-1.5-2.1-1.6C765.5,433.6,764.6,433.4,763.3,433.4z"/>
		<path class="st0" d="M784.9,442.1c-1.3,0-4.8-2.4-10.8-6.8c-1.3-0.9-2.3-1.7-2.9-2.1c-0.6-0.4-0.9-0.9-0.8-1.4
			c0.1-0.2,0.3-0.7,1.1-0.8c2.3-0.3,4.2-0.7,5.8-0.9c9.8-1.7,9.8-1.7,20.5,6.9l0.9,0.8c0.6,0.3,0.8,0.7,0.7,1.1
			c-0.3,1.3-4.8,2-11.9,2.7c-1.1,0.1-2.2,0.2-2.4,0.3C785.2,442.1,785.1,442.1,784.9,442.1z M784.1,429.9c-1.7,0-3.7,0.3-6.7,0.8
			c-1.7,0.3-3.5,0.6-5.8,0.9c-0.4,0.1-0.6,0.2-0.7,0.4c0,0.2,0.2,0.5,0.6,0.8c0.6,0.4,1.6,1.1,2.9,2.1c2.7,2,9.9,7.3,10.6,6.7
			c0.1-0.1,0.3-0.2,2.7-0.4c3.1-0.3,11.2-1.1,11.4-2.3c0-0.1-0.2-0.4-0.5-0.6l0,0l-1-0.8C790.3,431.7,788,429.9,784.1,429.9z"/>
		<path class="st0" d="M807.8,438.5c-1.4,0-4.9-2.4-10.9-6.8c-1.2-0.9-2.2-1.6-2.8-2c-0.6-0.3-0.9-0.8-0.8-1.2
			c0.1-0.4,0.5-0.7,1.1-0.8c2.2-0.3,4-0.6,5.6-0.9c9.9-1.7,9.9-1.7,20.5,6.7l1.1,0.9c0.6,0.4,0.8,0.7,0.7,1.1
			c-0.3,1.2-4.3,2.1-13.3,2.7c-0.5,0-0.9,0.1-1,0.1C808.1,438.5,808,438.5,807.8,438.5z M807,426.5c-1.7,0-3.8,0.3-6.8,0.8
			c-1.6,0.3-3.4,0.6-5.6,0.9c-0.4,0.1-0.6,0.2-0.7,0.4c0,0.2,0.2,0.5,0.6,0.7c0.6,0.4,1.5,1.1,2.8,2c2.7,2,10,7.3,10.7,6.6l0.1,0
			c0.1,0,0.1,0,1.2-0.1c10.3-0.8,12.7-1.7,12.8-2.3c0-0.2-0.2-0.4-0.5-0.6l0,0l-1.2-0.9C813.1,428.3,810.9,426.5,807,426.5z"/>
		<path class="st0" d="M829.2,435.3c-2.1,0-3.5-0.3-4-0.9c-4-3.1-6-4.6-10-7.6c-0.2-0.1-0.8-0.4-0.7-0.9c0.3-1.3,5.9-2.2,16.9-3.4
			c2.8-0.3,5.6-0.6,6.3-0.8l0-0.1l0.2-0.1c2.6-0.7,8,3.8,11.5,6.7c1,0.9,1.9,1.6,2.4,1.9c0.6,0.3,0.9,0.9,0.7,1.4
			c-0.1,0.4-0.5,0.7-1.1,0.7c-0.6,0-2.4,0.4-4.8,0.8C840,434.2,833.4,435.3,829.2,435.3z M838.2,422c-0.3,0.2-1.5,0.4-6.7,1
			c-5.7,0.6-16.2,1.8-16.4,3c0,0.1,0.1,0.2,0.5,0.4c4,3,6,4.5,10,7.6l0,0.1c1.4,2,14.7-0.4,21-1.5c2.4-0.4,4.2-0.8,4.9-0.8
			c0.3,0,0.5-0.1,0.6-0.3c0.1-0.2-0.1-0.5-0.5-0.8c-0.5-0.4-1.4-1.1-2.4-1.9C845.9,426,840.5,421.5,838.2,422z"/>
		<path class="st0" d="M816,452.7c-2.7,0-7.6-4-10.9-6.7c-1.1-0.9-2.1-1.7-2.6-2c-0.6-0.3-0.9-0.8-0.8-1.3c0.1-0.4,0.5-0.7,1.1-0.8
			c0.6,0,1.8-0.2,3.3-0.5c4.8-0.8,12.1-2,14-0.4c1.8,1.6,3.4,2.9,4.6,3.9c3.7,3.1,5.1,4.3,4.8,5.1c-0.2,0.7-1.5,0.9-4.5,1.2
			c-2.1,0.2-4.9,0.6-8.5,1.3C816.4,452.7,816.2,452.7,816,452.7z M816.3,440.8c-3,0-7.2,0.7-10.1,1.2c-1.5,0.2-2.7,0.4-3.3,0.5
			c-0.3,0-0.6,0.2-0.6,0.4c-0.1,0.2,0.1,0.5,0.5,0.8c0.6,0.4,1.5,1.1,2.7,2.1c3.3,2.6,8.8,7.1,11,6.5l0,0c3.6-0.7,6.5-1,8.6-1.3
			c2.3-0.3,3.9-0.4,4-0.9c0.2-0.5-1.7-2.1-4.7-4.6c-1.3-1.1-2.8-2.4-4.6-3.9C819.1,441,817.9,440.8,816.3,440.8z"/>
		<path class="st0" d="M793.4,456.2c-1.4,0-5-2.4-11.1-6.8c-1.2-0.9-2.1-1.5-2.7-1.9c-0.6-0.4-0.9-0.9-0.8-1.4
			c0.1-0.2,0.3-0.7,1.1-0.8c2.3-0.3,4.2-0.7,5.9-0.9c9.7-1.7,9.7-1.7,20.5,6.8l1,0.8c0.6,0.3,0.8,0.7,0.7,1.1
			c-0.3,1.3-4.7,2-11.8,2.7c-1.2,0.1-2.3,0.2-2.4,0.3v0C793.7,456.2,793.6,456.2,793.4,456.2z M792.5,444.1c-1.7,0-3.7,0.3-6.6,0.8
			c-1.7,0.3-3.6,0.6-5.9,0.9c-0.4,0.1-0.6,0.2-0.7,0.4c0,0.2,0.2,0.5,0.6,0.8c0.5,0.3,1.5,1,2.7,1.9c2.5,1.8,10.2,7.4,10.9,6.7
			c0.1-0.1,0.1-0.1,2.7-0.4c3-0.3,11.1-1.1,11.4-2.3c0-0.1-0.2-0.4-0.5-0.6l0,0l-1.1-0.8C798.6,445.8,796.4,444.1,792.5,444.1z"/>
		<path class="st0" d="M770.5,459.6c-2.7,0-7.6-4-10.9-6.7c-1.1-0.9-2.1-1.7-2.6-2c-0.6-0.4-0.9-0.9-0.7-1.4
			c0.1-0.4,0.5-0.7,1.1-0.7c0.6,0,1.8-0.2,3.2-0.5c4.8-0.8,12-2.1,14-0.4c1.9,1.7,3.5,3,4.8,4.1c3.6,3.1,5,4.2,4.7,5.1
			c-0.2,0.7-1.5,0.9-4.4,1.2c-2.1,0.2-4.9,0.6-8.5,1.3C770.9,459.6,770.7,459.6,770.5,459.6z M770.8,447.5c-3,0-7.3,0.7-10.2,1.3
			c-1.5,0.3-2.6,0.5-3.3,0.5c-0.3,0-0.6,0.2-0.6,0.4c-0.1,0.3,0.1,0.6,0.5,0.9c0.6,0.4,1.5,1.1,2.7,2.1c3.3,2.7,8.8,7.1,11,6.5l0,0
			c3.6-0.7,6.5-1.1,8.6-1.3c2.2-0.3,3.8-0.5,4-0.9c0.2-0.5-1.6-2-4.5-4.5c-1.3-1.1-2.9-2.5-4.8-4.1
			C773.6,447.7,772.3,447.5,770.8,447.5z"/>
		<path class="st0" d="M748,463.2c-1.4,0-5-2.4-11.1-6.8c-1.2-0.9-2.1-1.5-2.7-1.9c-0.6-0.4-0.9-0.9-0.8-1.4
			c0.1-0.2,0.3-0.7,1.1-0.8c2.2-0.4,4.1-0.7,5.7-1c9.7-1.7,9.7-1.7,20.7,6.9l0.9,0.7c0.6,0.4,0.9,0.7,0.8,1.1
			c-0.3,1.4-5.2,2.1-12.5,2.8c-0.8,0.1-1.5,0.2-1.7,0.2C748.3,463.2,748.2,463.2,748,463.2z M747,451c-1.7,0-3.7,0.4-6.7,0.9
			c-1.6,0.3-3.5,0.6-5.7,1c-0.4,0.1-0.6,0.2-0.7,0.4c0,0.2,0.2,0.5,0.6,0.8c0.5,0.3,1.5,1,2.7,1.9c2.5,1.8,10.2,7.4,10.9,6.7
			c0.1-0.1,0.2-0.1,2-0.3c2.9-0.3,11.7-1.2,12-2.4c0-0.2-0.2-0.4-0.6-0.6l0,0l-0.9-0.7C753.2,452.8,750.9,451,747,451z"/>
		<path class="st0" d="M725.5,466.8c-1.4,0-5-2.4-11.1-6.9c-1.2-0.9-2.2-1.6-2.7-1.9c-0.6-0.4-0.9-0.9-0.8-1.4
			c0.1-0.2,0.3-0.7,1.1-0.8c2.2-0.4,4.1-0.7,5.7-1c9.7-1.7,9.7-1.7,20.7,6.9l0.9,0.7c0.6,0.4,0.8,0.8,0.7,1.2
			c-0.3,1.4-5.2,2.2-12.4,2.9c-0.8,0.1-1.5,0.2-1.7,0.2C725.8,466.8,725.7,466.8,725.5,466.8z M724.4,454.5c-1.7,0-3.7,0.4-6.7,0.9
			c-1.6,0.3-3.5,0.6-5.7,1c-0.4,0.1-0.6,0.2-0.7,0.4c0,0.2,0.2,0.5,0.6,0.8c0.5,0.3,1.5,1.1,2.7,2c2.8,2,10.3,7.5,10.9,6.8
			c0.1-0.1,0.1-0.1,2-0.3c2.9-0.3,11.6-1.2,11.9-2.5c0.1-0.2-0.3-0.5-0.5-0.6l0,0l-0.9-0.7C730.6,456.3,728.3,454.5,724.4,454.5z"/>
		<path class="st0" d="M702.9,470.4c-1.4,0-5-2.4-11.1-6.9c-1.2-0.9-2.2-1.6-2.7-1.9c-0.6-0.3-0.9-0.8-0.8-1.3
			c0.1-0.4,0.5-0.8,1.1-0.9c2.2-0.4,4.1-0.7,5.7-1c9.7-1.8,9.7-1.8,20.6,6.9l0.9,0.7c0.6,0.4,0.8,0.8,0.7,1.2
			c-0.3,1.4-5.2,2.2-12.4,2.9c-0.8,0.1-1.5,0.2-1.7,0.2C703.2,470.4,703.1,470.4,702.9,470.4z M701.9,458c-1.7,0-3.8,0.4-6.7,0.9
			c-1.6,0.3-3.5,0.6-5.7,1c-0.4,0.1-0.6,0.2-0.7,0.5c0,0.2,0.2,0.5,0.6,0.8c0.5,0.4,1.5,1.1,2.8,2c2.8,2,10.2,7.5,10.9,6.8
			c0.1-0.1,0.1-0.1,1.9-0.3c2.9-0.3,11.6-1.2,11.9-2.5c0.1-0.2-0.3-0.5-0.5-0.6l0,0l-0.9-0.8C708,459.9,705.7,458,701.9,458z"/>
		<path class="st0" d="M680.3,474.2c-1.4,0-5-2.4-11-6.9c-1.3-0.9-2.3-1.7-2.8-2c-0.6-0.3-0.9-0.8-0.8-1.3c0.1-0.4,0.5-0.8,1.1-0.9
			c2.2-0.4,4.1-0.7,5.7-1c9.7-1.8,9.7-1.8,20.7,6.9l0.9,0.7c0.6,0.3,0.8,0.7,0.7,1.1c-0.3,1.3-4.7,2.1-11.7,2.9
			c-1.1,0.1-2.2,0.3-2.4,0.3l0,0C680.6,474.2,680.5,474.2,680.3,474.2z M679.3,461.7c-1.7,0-3.8,0.4-6.7,0.9c-1.6,0.3-3.5,0.6-5.7,1
			c-0.4,0.1-0.6,0.2-0.7,0.5c0,0.2,0.2,0.5,0.6,0.8c0.6,0.4,1.6,1.1,2.9,2.1c2.8,2,10.1,7.5,10.8,6.8c0.1-0.1,0.1-0.1,2.6-0.4
			c3-0.4,11-1.3,11.3-2.5c0-0.2-0.2-0.4-0.5-0.6l0,0l-0.9-0.7C685.4,463.6,683.1,461.7,679.3,461.7z"/>
		<path class="st0" d="M657.6,477.9c-1.4,0-4.9-2.4-10.9-6.8c-1.3-1-2.4-1.7-2.9-2.1c-0.6-0.3-0.9-0.8-0.8-1.3
			c0.1-0.4,0.5-0.8,1.1-0.9c2.2-0.4,4.1-0.7,5.7-1c9.7-1.9,9.7-1.9,20.6,6.9l1,0.8c0.6,0.4,0.8,0.7,0.7,1.1
			c-0.3,1.3-4.8,2.1-11.8,2.9c-1.1,0.1-2.2,0.2-2.3,0.3l0,0C657.9,477.9,657.8,477.9,657.6,477.9z M656.7,465.3
			c-1.7,0-3.8,0.4-6.8,1c-1.6,0.3-3.5,0.7-5.7,1c-0.4,0.1-0.6,0.2-0.7,0.5c0,0.2,0.2,0.5,0.6,0.8c0.6,0.4,1.6,1.1,2.9,2.1
			c2.7,2,9.9,7.3,10.6,6.7c0.1-0.1,0.1-0.1,2.6-0.4c3-0.3,11.1-1.2,11.4-2.5c0-0.2-0.3-0.5-0.5-0.6l0,0l-1-0.8
			C662.8,467.2,660.5,465.3,656.7,465.3z"/>
		<path class="st0" d="M634.8,481.6c-1.4,0-4.9-2.4-10.8-6.8c-1.3-1-2.4-1.8-2.9-2.1c-0.6-0.3-0.9-0.8-0.8-1.3
			c0.1-0.4,0.5-0.8,1.1-0.9c2.2-0.4,4.1-0.7,5.7-1c9.8-1.8,9.8-1.8,20.7,7l1,0.8c0.6,0.4,0.8,0.8,0.7,1.2c-0.3,1.3-4.4,2.2-13.4,3
			c-0.4,0-0.7,0.1-0.9,0.1C635.1,481.5,635,481.6,634.8,481.6z M633.9,469c-1.7,0-3.8,0.4-6.8,0.9c-1.6,0.3-3.5,0.6-5.7,1
			c-0.4,0.1-0.6,0.2-0.7,0.5c0,0.2,0.2,0.5,0.6,0.8c0.6,0.4,1.6,1.2,3,2.1c2.5,1.8,10,7.5,10.6,6.7l0-0.1l0.1,0c0.1,0,0.2,0,1-0.1
			c11-1,12.8-2.1,13-2.6c0.1-0.2-0.3-0.5-0.5-0.6l0,0l-1-0.8C640.1,470.9,637.8,469,633.9,469z"/>
		<path class="st0" d="M612.1,485.4c-1.3,0-4.7-2.3-10.7-6.8c-1.3-1-2.4-1.8-3-2.2c-0.6-0.3-0.9-0.8-0.8-1.3
			c0.1-0.4,0.5-0.8,1.1-0.9c2.2-0.4,4-0.7,5.7-1c9.9-1.9,9.9-1.9,20.9,7.1l0.8,0.7c0.6,0.4,0.8,0.8,0.7,1.1c-0.3,1.5-6.3,2.3-12.6,3
			c-0.8,0.1-1.5,0.2-1.7,0.2C612.4,485.4,612.3,485.4,612.1,485.4z M611.3,472.8c-1.8,0-3.8,0.4-6.9,1c-1.6,0.3-3.5,0.7-5.7,1
			c-0.4,0.1-0.6,0.2-0.7,0.5c0,0.2,0.2,0.5,0.6,0.8c0.6,0.4,1.7,1.2,3.1,2.2c2.7,2,9.8,7.3,10.5,6.7c0.1-0.1,0.2-0.1,1.9-0.3
			c2.9-0.3,11.8-1.2,12.2-2.6c0.1-0.2-0.3-0.5-0.5-0.6l0,0l-0.8-0.7C617.5,474.7,615.2,472.8,611.3,472.8z"/>
		<path class="st0" d="M588.5,488.9c-1.6,0-2.6-0.2-2.9-0.8c-0.1-0.1-0.8-0.6-1.5-1.1c-5.8-4-9.5-7-9.2-8.3c0.1-0.4,0.4-0.6,1-0.6
			l0,0c0.9,0,2.9-0.3,5.2-0.7c6.7-1.1,11.5-1.8,12.1-0.3c0.1,0.1,1,0.8,2,1.5c5.7,4.1,9,6.8,8.6,7.9c-0.1,0.3-0.4,0.5-0.9,0.5
			c-0.7,0.1-2.2,0.3-3.9,0.6C594.7,488.3,590.9,488.9,588.5,488.9z M575.9,478.5c-0.2,0-0.5,0.1-0.5,0.2c-0.3,1.2,6.7,6.1,9,7.8
			c1.6,1.1,1.6,1.2,1.7,1.3c0.5,1.3,8.5,0,12.9-0.8c1.8-0.3,3.2-0.6,4-0.6c0.3,0,0.5-0.1,0.5-0.2c0.3-1-6-5.7-8.4-7.4
			c-2-1.5-2.1-1.6-2.2-1.7c-0.5-1.1-7.4,0-11.5,0.7C578.9,478.2,576.9,478.5,575.9,478.5z"/>
		<path class="st0" d="M551.9,495.6c-2.7,0-7.3-3.9-10.6-6.8c-1.2-1-2.2-1.9-2.8-2.3c-0.6-0.4-0.9-1-0.7-1.5
			c0.1-0.4,0.5-0.7,1.1-0.8c0.6,0,3-0.4,5.9-1c15.8-2.8,25.1-4.1,25.7-2.4c0.2,0.2,1,0.8,1.9,1.4c5.7,4,9.1,6.7,8.8,8
			c-0.1,0.3-0.4,0.6-1,0.6c-6.3,1.1-10.8,1.8-15.6,2.7c-3.6,0.6-7.3,1.2-12,2C552.4,495.6,552.1,495.6,551.9,495.6z M567.9,480.6
			c-5,0-17.6,2.2-23.1,3.2c-3.1,0.6-5.4,0.9-6,1c-0.3,0-0.5,0.2-0.6,0.4c-0.1,0.3,0.1,0.7,0.5,0.9c0.6,0.4,1.6,1.2,2.9,2.3
			c3.2,2.7,8.5,7.3,10.8,6.6l0,0c4.7-0.8,8.5-1.4,12-2c4.8-0.8,9.3-1.6,15.6-2.7c0.2,0,0.5-0.1,0.6-0.2c0.3-1.2-6.1-5.7-8.6-7.4
			c-2-1.4-2.1-1.5-2.1-1.6C569.9,480.7,569.1,480.6,567.9,480.6z"/>
		<path class="st0" d="M838.7,448.6c-1.8,0-2.9-0.2-3.1-0.7c-0.2-0.2-1.1-0.8-2-1.4c-5.7-3.8-8.9-6.3-8.6-7.5c0.1-0.3,0.4-0.5,1-0.6
			c11.3-1.7,17.1-2.5,28.1-4.1c2.4-0.6,7.3,3.3,10.9,6.2c1.3,1.1,2.5,2,3.1,2.4c0.6,0.4,0.9,0.9,0.8,1.4c-0.1,0.4-0.5,0.7-1.1,0.7
			c-0.5,0-2.8,0.4-5.8,0.8C850.9,447.5,842.8,448.6,838.7,448.6z M854.7,434.8c-0.2,0-0.3,0-0.4,0l0,0c-11,1.6-16.8,2.4-28.1,4.1
			c-0.3,0-0.5,0.1-0.6,0.2c-0.3,1.1,6,5.3,8.4,6.9c2,1.4,2.1,1.5,2.2,1.6c0,0.2,0.6,0.9,9.5-0.1c5.3-0.6,11.7-1.6,16.4-2.3
			c3-0.5,5.2-0.8,5.8-0.8c0.3,0,0.5-0.1,0.6-0.3c0.1-0.2-0.1-0.5-0.5-0.8c-0.7-0.4-1.8-1.3-3.2-2.4
			C861.7,438.4,857.1,434.8,854.7,434.8z"/>
		<path class="st0" d="M822.1,467c-1.4,0-5.2-2.5-11.4-6.9c-1.1-0.8-2-1.4-2.5-1.7c-0.6-0.3-0.9-0.8-0.8-1.2
			c0.1-0.4,0.5-0.7,1.1-0.8c2.2-0.3,4-0.7,5.6-0.9c9.9-1.7,9.9-1.7,20.7,6.7l1.1,0.8c0.6,0.3,0.8,0.7,0.7,1.1
			c-0.3,1.3-5.2,2.1-12.4,2.7c-0.9,0.1-1.6,0.2-1.8,0.2C822.4,467,822.3,467,822.1,467z M821.1,455c-1.7,0-3.8,0.4-6.8,0.9
			c-1.6,0.3-3.4,0.6-5.6,0.9c-0.4,0.1-0.6,0.2-0.7,0.4c0,0.2,0.2,0.5,0.6,0.7c0.5,0.3,1.4,1,2.5,1.8c2.6,1.8,10.3,7.4,11.2,6.8
			c0.1-0.1,0.3-0.1,2.1-0.3c2.9-0.3,11.6-1.1,11.9-2.3c0-0.1-0.2-0.4-0.5-0.6l0,0l-1.1-0.8C827.2,456.8,824.9,455,821.1,455z"/>
		<path class="st0" d="M799.1,470.6c-2.7,0-7.7-4-11-6.7c-1.1-0.9-2-1.7-2.6-2c-0.6-0.3-0.9-0.8-0.8-1.3c0.1-0.4,0.5-0.7,1.1-0.8
			c0.6,0,1.8-0.2,3.2-0.5c4.8-0.8,12-2.1,14-0.4c1.9,1.6,3.5,3,4.9,4.1c3.7,3,5,4.2,4.8,5c-0.2,0.7-1.5,0.9-4.4,1.2
			c-2.1,0.2-5,0.6-8.6,1.3C799.5,470.6,799.3,470.6,799.1,470.6z M799.2,458.6c-3,0-7.2,0.7-10.1,1.3c-1.5,0.3-2.6,0.5-3.3,0.5
			c-0.3,0-0.6,0.2-0.6,0.4c-0.1,0.2,0.1,0.5,0.5,0.8c0.6,0.4,1.5,1.1,2.6,2c3.3,2.7,8.9,7.2,11.2,6.5l0,0c3.6-0.7,6.5-1.1,8.6-1.3
			c2.2-0.3,3.8-0.4,3.9-0.9c0.2-0.5-1.6-2-4.6-4.5c-1.3-1.1-3-2.5-4.9-4.1C802,458.8,800.8,458.6,799.2,458.6z"/>
		<path class="st0" d="M776.6,473.9c-1.6,0-3-0.2-3.6-0.8c-1.8-1.6-3.4-2.9-4.7-4c-3.8-3.1-5.2-4.3-4.9-5.2c0.2-0.8,1.6-0.9,4.5-1.3
			c2.1-0.3,4.9-0.6,8.5-1.3c2.6-0.7,8,3.7,11.6,6.6c1.1,0.9,2,1.7,2.6,2c0.6,0.3,0.9,0.8,0.8,1.3c-0.1,0.4-0.5,0.7-1.1,0.8
			c-0.7,0-1.9,0.3-3.5,0.6C783.6,473.2,779.6,473.9,776.6,473.9z M776.9,461.8c-0.2,0-0.3,0-0.5,0.1l0,0c-3.6,0.7-6.4,1.1-8.5,1.3
			c-2.3,0.3-3.9,0.5-4.1,0.9c-0.2,0.6,1.7,2.1,4.8,4.7c1.3,1.1,2.9,2.4,4.7,4c1.8,1.5,9,0.2,13.3-0.6c1.6-0.3,2.8-0.5,3.5-0.6
			c0.3,0,0.6-0.2,0.6-0.4c0.1-0.2-0.1-0.5-0.5-0.8c-0.6-0.4-1.5-1.1-2.6-2C784.4,465.9,779.4,461.8,776.9,461.8z"/>
		<path class="st0" d="M753.8,477.8c-2.6,0-7.3-3.7-10.7-6.4c-1.2-1-2.3-1.8-2.9-2.2c-0.6-0.4-0.9-0.9-0.7-1.4
			c0.1-0.4,0.5-0.7,1.1-0.7c0.7,0,1.9-0.3,3.5-0.6c4.7-0.9,11.8-2.1,13.7-0.5c1.9,1.6,3.5,3,4.8,4.1c3.7,3.1,5,4.2,4.8,5.1
			c-0.2,0.7-1.5,0.9-4.4,1.3c-2.1,0.3-4.9,0.6-8.5,1.4C754.2,477.8,754,477.8,753.8,477.8z M754.1,465.7c-3,0-7.2,0.8-10.1,1.3
			c-1.6,0.3-2.8,0.5-3.5,0.6c-0.3,0-0.6,0.2-0.6,0.4c-0.1,0.3,0.1,0.6,0.5,0.9c0.6,0.4,1.6,1.2,2.9,2.2c3.3,2.6,8.7,6.9,10.9,6.3
			l0,0c3.6-0.8,6.5-1.1,8.6-1.4c2.2-0.3,3.8-0.5,3.9-0.9c0.2-0.5-1.6-2-4.6-4.5c-1.3-1.1-2.9-2.4-4.8-4.1
			C756.7,465.9,755.6,465.7,754.1,465.7z"/>
		<path class="st0" d="M731.2,481.5c-2.7,0-7.7-4-11-6.7c-1.1-0.9-2-1.7-2.6-2c-0.6-0.4-0.9-0.9-0.7-1.4c0.1-0.4,0.5-0.7,1.1-0.7
			c0.7,0,1.9-0.3,3.5-0.6c4.7-0.9,11.8-2.1,13.7-0.5c1.9,1.6,3.5,3,4.7,4.1c3.7,3.1,5.1,4.3,4.8,5.2c-0.2,0.8-1.5,0.9-4.4,1.3
			c-2.1,0.3-4.9,0.6-8.5,1.4C731.6,481.5,731.4,481.5,731.2,481.5z M731.5,469.3c-3,0-7.2,0.8-10.1,1.3c-1.6,0.3-2.8,0.5-3.5,0.6
			c-0.3,0-0.6,0.2-0.6,0.4c-0.1,0.3,0.1,0.6,0.5,0.9c0.6,0.4,1.5,1.1,2.6,2c3.3,2.7,8.9,7.2,11.2,6.5l0,0c3.6-0.7,6.4-1.1,8.5-1.4
			c2.2-0.3,3.8-0.5,4-0.9c0.2-0.6-1.7-2.1-4.7-4.6c-1.3-1.1-2.9-2.4-4.7-4.1C734.1,469.5,733,469.3,731.5,469.3z"/>
		<path class="st0" d="M708.5,485.2c-2.7,0-7.6-4-11-6.7c-1.1-0.9-2.1-1.7-2.6-2.1c-0.6-0.3-0.9-0.9-0.7-1.3
			c0.1-0.4,0.5-0.8,1.1-0.8c0.7,0,1.9-0.3,3.5-0.6c4.7-0.9,11.8-2.1,13.7-0.5c1.8,1.6,3.4,3,4.7,4c3.7,3.1,5.1,4.3,4.8,5.2
			c-0.2,0.8-1.5,0.9-4.4,1.3c-2.1,0.3-4.9,0.6-8.5,1.4C708.9,485.2,708.7,485.2,708.5,485.2z M708.8,472.9c-3,0-7.2,0.8-10.1,1.3
			c-1.6,0.3-2.8,0.5-3.5,0.6c-0.3,0-0.6,0.2-0.6,0.4c-0.1,0.3,0.1,0.6,0.5,0.8c0.6,0.4,1.5,1.1,2.7,2.1c3.3,2.7,8.9,7.2,11.1,6.6
			l0,0c3.6-0.8,6.4-1.1,8.5-1.4c2.2-0.3,3.9-0.5,4-1c0.2-0.6-1.7-2.1-4.7-4.7c-1.3-1.1-2.9-2.4-4.7-4
			C711.4,473.1,710.3,472.9,708.8,472.9z"/>
		<path class="st0" d="M685.9,489c-2.7,0-7.5-4-10.8-6.7c-1.1-0.9-2.1-1.7-2.7-2.1c-0.6-0.3-0.9-0.9-0.7-1.3
			c0.1-0.4,0.5-0.8,1.1-0.8c0.7,0,1.9-0.3,3.5-0.6c4.7-0.9,11.8-2.2,13.7-0.5c1.8,1.6,3.4,2.9,4.7,4c3.7,3.1,5.1,4.3,4.8,5.2
			c-0.2,0.8-1.5,0.9-4.4,1.3c-2.1,0.3-4.9,0.6-8.5,1.4C686.3,489,686.1,489,685.9,489z M686.2,476.7c-3,0-7.1,0.8-10,1.3
			c-1.6,0.3-2.8,0.5-3.5,0.6c-0.3,0-0.6,0.2-0.6,0.4c-0.1,0.3,0.1,0.6,0.5,0.8c0.6,0.4,1.5,1.2,2.7,2.1c3.3,2.7,8.7,7.2,11,6.5l0,0
			c3.6-0.8,6.5-1.1,8.6-1.4c2.3-0.3,3.9-0.5,4-1c0.2-0.6-1.7-2.1-4.7-4.7c-1.3-1.1-2.9-2.4-4.7-4
			C688.9,476.9,687.7,476.7,686.2,476.7z"/>
		<path class="st0" d="M662.3,492.4c-1.4,0-2.3-0.2-2.6-0.8c-0.1-0.1-0.6-0.5-1.3-0.9c-5.9-4.1-9.7-7.1-9.4-8.4
			c0.1-0.3,0.4-0.5,0.9-0.5c0.7-0.1,2.2-0.3,3.9-0.6c6.9-1.2,12.6-2,13.3-0.5c0.1,0.1,0.9,0.7,1.7,1.2c5.8,4,9.3,6.7,9,8
			c-0.1,0.3-0.4,0.6-1,0.6l0,0c-0.9,0-2.9,0.3-5.2,0.7C667.7,491.9,664.4,492.4,662.3,492.4z M664.5,480.4c-2.8,0-7.5,0.8-10.5,1.3
			c-1.8,0.3-3.2,0.6-4,0.6c-0.3,0-0.5,0.1-0.5,0.2c-0.2,0.8,2.9,3.4,9.2,7.8c1.2,0.8,1.3,0.9,1.4,1l0,0.1c0.4,1.2,7.3,0,11.4-0.7
			c2.3-0.4,4.4-0.7,5.3-0.7c0.2,0,0.5-0.1,0.5-0.2c0.3-1.2-6.3-5.7-8.8-7.4c-1.6-1.1-1.8-1.2-1.9-1.4
			C666.6,480.6,665.7,480.4,664.5,480.4z"/>
		<path class="st0" d="M640.4,496.7c-2.7,0-7.6-4.1-11-6.9c-1.1-0.9-1.9-1.6-2.5-2c-0.6-0.3-0.9-0.9-0.7-1.3
			c0.1-0.4,0.5-0.8,1.1-0.8c0.6-0.1,1.6-0.3,2.8-0.5c4.6-0.9,12.4-2.4,14.4-0.6c1.8,1.6,3.4,3,4.7,4.1c3.7,3.2,5.1,4.4,4.8,5.3
			c-0.2,0.8-1.5,0.9-4.4,1.3c-2.1,0.3-5,0.7-8.6,1.5C640.8,496.7,640.6,496.7,640.4,496.7z M640.9,484.2c-3.2,0-7.8,0.9-10.7,1.5
			c-1.3,0.3-2.3,0.5-2.9,0.5c-0.3,0-0.6,0.2-0.6,0.4c-0.1,0.3,0.1,0.6,0.5,0.8c0.5,0.4,1.4,1.1,2.5,2c3.3,2.8,8.8,7.4,11.1,6.7l0,0
			c3.6-0.8,6.5-1.2,8.6-1.5c2.2-0.3,3.9-0.5,4-1c0.2-0.6-1.6-2.1-4.6-4.7c-1.3-1.1-2.8-2.5-4.7-4.1
			C643.6,484.4,642.4,484.2,640.9,484.2z"/>
		<path class="st0" d="M617.6,500.3c-1.6,0-2.9-0.2-3.6-0.8c-1.8-1.6-3.4-3-4.6-4.1c-3.7-3.2-5-4.5-4.8-5.4c0.2-0.8,1.6-1,4.6-1.4
			c2.1-0.3,4.9-0.6,8.4-1.4c2.7-0.8,8.6,4.3,12.2,7.4c0.8,0.7,1.4,1.3,1.9,1.6c0.6,0.3,0.8,0.8,0.7,1.3c-0.1,0.4-0.5,0.8-1.1,0.8
			c-0.7,0.1-2,0.3-3.6,0.6C624.7,499.5,620.6,500.3,617.6,500.3z M618.3,487.7c-0.2,0-0.4,0-0.5,0.1l0,0c-3.6,0.8-6.4,1.1-8.5,1.4
			c-2.3,0.3-4,0.5-4.1,1c-0.2,0.6,1.6,2.2,4.6,4.8c1.3,1.1,2.8,2.5,4.6,4.1c1.7,1.6,9,0.2,13.3-0.7c1.6-0.3,2.9-0.6,3.6-0.6
			c0.3,0,0.6-0.2,0.6-0.4c0.1-0.3-0.1-0.6-0.5-0.8c-0.5-0.3-1.1-0.9-1.9-1.6C626.5,492.4,621,487.7,618.3,487.7z"/>
		<path class="st0" d="M631.6,513.9c-1.6,0-2.9-0.2-3.5-0.8c-1.8-1.6-3.3-3-4.5-4.1c-3.6-3.2-4.9-4.4-4.6-5.3c0.2-0.8,1.6-1,4.5-1.4
			c2.1-0.3,4.9-0.7,8.4-1.4c2.6-0.8,8.1,3.9,11.7,7c1,0.8,1.7,1.5,2.2,1.8c0.5,0.3,0.8,0.9,0.6,1.3c-0.1,0.4-0.5,0.8-1.1,0.8
			c-0.6,0.1-1.6,0.3-2.9,0.5C638.4,513.2,634.4,513.9,631.6,513.9z M632.5,501.3c-0.2,0-0.4,0-0.5,0.1l0,0c-3.6,0.8-6.4,1.2-8.5,1.5
			c-2.3,0.3-4,0.6-4.1,1c-0.2,0.6,1.6,2.2,4.5,4.8c1.2,1.1,2.8,2.5,4.6,4.1c1.8,1.6,9.7,0,13.9-0.8c1.3-0.3,2.4-0.5,3-0.5
			c0.3,0,0.6-0.2,0.6-0.4c0.1-0.3-0.1-0.6-0.4-0.8c-0.5-0.4-1.3-1-2.2-1.8C640.3,505.8,635.1,501.3,632.5,501.3z"/>
		<path class="st0" d="M844.8,478.5c-1.7,0-3.1-0.2-3.7-0.8c-1.9-1.6-3.5-3-4.8-4c-3.6-3-5-4.1-4.8-5c0.2-0.7,1.5-0.9,4.4-1.2
			c2.1-0.2,5-0.6,8.6-1.3c2.6-0.7,8.3,3.8,12,6.8c1,0.8,1.7,1.4,2.2,1.7c0.6,0.3,0.8,0.8,0.7,1.3c-0.1,0.4-0.5,0.7-1.1,0.8
			c-0.7,0-1.9,0.3-3.4,0.5C851.9,477.8,847.8,478.5,844.8,478.5z M845.1,466.6c-0.2,0-0.4,0-0.5,0.1l0,0c-3.6,0.7-6.5,1.1-8.6,1.3
			c-2.3,0.3-3.9,0.5-4,0.9c-0.2,0.5,1.6,2,4.6,4.4c1.3,1.1,2.9,2.4,4.8,4c1.7,1.5,9.1,0.2,13.5-0.5c1.5-0.3,2.7-0.5,3.4-0.5
			c0.3,0,0.6-0.2,0.6-0.4c0.1-0.2-0.1-0.5-0.5-0.8c-0.5-0.4-1.3-1-2.2-1.7C853.1,471,847.7,466.6,845.1,466.6z"/>
		<path class="st0" d="M653.5,510.4c-2.6,0-7.1-3.8-10.5-6.7c-1.2-1-2.2-1.8-2.8-2.2c-0.6-0.3-0.9-0.8-0.8-1.3
			c0.1-0.4,0.5-0.8,1.1-0.9c3.8-0.7,6.6-1.1,9.4-1.6c2.8-0.5,5.6-0.9,9.4-1.6c2.5-0.7,7.9,3.8,11.4,6.8c1,0.9,1.9,1.6,2.5,2
			c0.6,0.3,0.9,0.8,0.8,1.3c-0.1,0.4-0.5,0.8-1.1,0.9c-3.8,0.7-6.6,1.1-9.4,1.6c-2.8,0.5-5.6,1-9.4,1.6
			C653.9,510.4,653.7,510.4,653.5,510.4z M659.8,496.6c-0.2,0-0.3,0-0.5,0.1l0,0c-3.8,0.7-6.6,1.1-9.4,1.6c-2.8,0.5-5.6,1-9.4,1.6
			c-0.4,0.1-0.6,0.2-0.7,0.5c0,0.2,0.2,0.5,0.6,0.8c0.6,0.4,1.6,1.2,2.8,2.3c3.4,2.8,8.4,7.1,10.7,6.5c3.8-0.7,6.6-1.1,9.4-1.6
			c2.8-0.5,5.6-1,9.4-1.6c0.4-0.1,0.6-0.2,0.7-0.5c0-0.2-0.2-0.5-0.6-0.8c-0.6-0.4-1.4-1.1-2.5-2.1
			C667.3,500.8,662.3,496.6,659.8,496.6z"/>
		<path class="st0" d="M816.2,483.2c-2.7,0-7.6-4-10.9-6.6c-1.1-0.9-2-1.6-2.6-2c-0.6-0.3-0.9-0.8-0.8-1.2c0.1-0.4,0.5-0.7,1.1-0.8
			c3.8-0.6,6.6-1,9.4-1.5c2.8-0.4,5.6-0.8,9.3-1.4c2.6-0.7,8,3.6,11.6,6.5c1.1,0.9,2,1.6,2.5,1.9c0.6,0.3,0.9,0.8,0.8,1.2
			c-0.1,0.4-0.5,0.7-1.1,0.8c-3.9,0.6-6.8,1.1-9.7,1.6c-2.7,0.4-5.4,0.9-9,1.4C816.6,483.2,816.4,483.2,816.2,483.2z M822.3,470.1
			c-0.2,0-0.3,0-0.5,0.1l0,0c-3.7,0.6-6.5,1-9.3,1.4c-2.8,0.4-5.6,0.9-9.4,1.5c-0.4,0.1-0.6,0.2-0.7,0.4c0,0.2,0.2,0.5,0.6,0.7
			c0.6,0.4,1.5,1.1,2.6,2c3.3,2.7,8.8,7.1,11.1,6.5c3.6-0.6,6.3-1,9-1.5c2.9-0.5,5.8-0.9,9.7-1.6c0.4-0.1,0.6-0.2,0.7-0.4
			c0-0.2-0.2-0.5-0.6-0.7c-0.6-0.4-1.4-1.1-2.6-2C829.8,474.1,824.8,470.1,822.3,470.1z"/>
		<path class="st0" d="M681.1,505.6c-1.9,0-5.1-2-7.5-3.8c-2.3-1.7-5.9-4.7-5.9-5.2v-0.2l0.2,0c0.9-0.1,87.4-13.1,125.5-22.3l0,0
			c1-0.2,3.6,0.4,4,1.1c0.1,0.1,0.3,0.2,0.7,0.4c7.3,4.7,10.5,7.3,10.2,8.5c-0.1,0.4-0.4,0.6-1,0.6c-37.6,6.1-77.4,12.7-125.5,20.9
			C681.6,505.6,681.4,505.6,681.1,505.6z M668.5,496.8c1.6,1.6,10.3,9.1,13.2,8.3c48.1-8.2,88-14.8,125.5-20.9
			c0.4,0,0.6-0.1,0.6-0.2c0.1-0.5-1-2.2-10-7.9c-0.7-0.4-0.7-0.5-0.8-0.5l-0.1-0.1l0-0.1c-0.1-0.3-2.3-1-3.4-0.8
			C756.9,483.4,675.1,495.8,668.5,496.8z"/>
		<path class="st0" d="M608.6,517.8c-1.6,0-2.8-0.2-3.5-0.8c-1.8-1.6-3.3-3-4.5-4.1c-3.6-3.2-4.9-4.4-4.6-5.3c0.2-0.8,1.6-1,4.5-1.4
			c2.1-0.3,4.9-0.7,8.4-1.4c2.6-0.8,7.9,3.8,11.4,6.8c1.1,0.9,2,1.7,2.5,2c0.5,0.3,0.8,0.9,0.7,1.3c-0.1,0.4-0.5,0.8-1.1,0.8
			c-0.7,0-1.9,0.3-3.5,0.6C615.8,517,611.6,517.8,608.6,517.8z M609.6,505.2c-0.2,0-0.4,0-0.5,0.1l0,0c-3.6,0.8-6.4,1.2-8.5,1.5
			c-2.3,0.3-4,0.6-4.1,1c-0.2,0.6,1.6,2.2,4.5,4.8c1.2,1.1,2.8,2.5,4.6,4.1c1.7,1.6,9,0.1,13.4-0.7c1.6-0.3,2.9-0.6,3.5-0.6
			c0.3,0,0.6-0.2,0.6-0.4c0.1-0.3-0.1-0.6-0.4-0.8c-0.5-0.4-1.4-1.1-2.5-2.1C617,509.4,612.1,505.2,609.6,505.2z"/>
		<path class="st0" d="M585.7,521.9c-1.6,0-2.8-0.2-3.5-0.8c-1.8-1.7-3.4-3.1-4.6-4.2c-3.5-3.1-4.8-4.3-4.6-5.2
			c0.2-0.8,1.6-1,4.6-1.4c2.1-0.3,4.9-0.7,8.4-1.5c2.5-0.8,7.9,3.8,11.4,6.8c1.1,0.9,2,1.7,2.5,2.1c0.5,0.3,0.8,0.9,0.7,1.3
			c-0.1,0.4-0.5,0.8-1.1,0.8c-0.7,0-1.9,0.3-3.5,0.6C592.9,521.1,588.7,521.9,585.7,521.9z M586.7,509.2c-0.2,0-0.4,0-0.5,0.1l0,0
			c-3.6,0.8-6.4,1.2-8.5,1.5c-2.3,0.3-4,0.6-4.2,1.1c-0.2,0.6,1.5,2.1,4.4,4.7c1.3,1.1,2.8,2.5,4.6,4.2c1.7,1.6,9,0.1,13.4-0.7
			c1.6-0.3,2.9-0.6,3.5-0.6c0.3,0,0.6-0.2,0.6-0.4c0.1-0.3-0.1-0.6-0.4-0.8c-0.6-0.4-1.5-1.2-2.6-2.1
			C594.1,513.4,589.2,509.2,586.7,509.2z"/>
		<path class="st0" d="M568.9,508.9c-1.5,0-3.9-1.2-7.2-3.7c-2.7-1.9-6.3-5.1-6.3-5.6c0-0.3,0-0.4,15.4-3.6c9.1-1.9,18.8-4,24.7-5.1
			c2.6-0.8,7.6,3.5,11.3,6.6c1.2,1,2.2,1.8,2.7,2.2c0.6,0.3,0.9,0.8,0.8,1.3c-0.1,0.4-0.5,0.8-1.1,0.9c-6.6,1.2-13.2,2.3-19.9,3.5
			c-6.6,1.1-13.2,2.3-19.8,3.4C569.3,508.9,569.1,508.9,568.9,508.9z M556,499.8c1.4,1.5,10.5,9.4,13.3,8.5
			c6.6-1.2,13.3-2.3,19.9-3.5c6.6-1.1,13.2-2.3,19.8-3.4c0.4-0.1,0.6-0.2,0.7-0.5c0-0.2-0.2-0.5-0.6-0.8c-0.6-0.4-1.6-1.2-2.8-2.3
			c-3.2-2.7-8.5-7.2-10.8-6.5l0,0C583.6,493.8,559,499,556,499.8z"/>
		<path class="st0" d="M845.6,463.5c-2.4,0-7-3.2-9.6-5.2c0,0-4.1-3.1-4.1-3.6v-0.2l0.2,0c0.3-0.1,26.9-5.3,39.1-7.4
			c2.7-0.7,8.3,3.8,12,6.8c1,0.8,1.7,1.4,2.2,1.7c0.6,0.3,0.9,0.8,0.8,1.2c-0.1,0.4-0.5,0.7-1.1,0.8c-12.4,1.8-25.7,3.8-38.9,5.8
			C846,463.5,845.8,463.5,845.6,463.5z M832.6,454.9c1.6,1.6,10.8,8.8,13.5,8.1c13.2-2,26.5-4,38.9-5.8c0.4-0.1,0.6-0.2,0.7-0.4
			c0-0.2-0.2-0.5-0.6-0.7c-0.5-0.4-1.3-1-2.2-1.8c-3.4-2.8-9.1-7.4-11.6-6.7l0,0C859.9,449.5,836,454.2,832.6,454.9z"/>
	</g>
</g>
</svg>
