<?xml version="1.0" encoding="utf-8"?>
<!-- Generator: Adobe Illustrator 25.4.1, SVG Export Plug-In . SVG Version: 6.00 Build 0)  -->
<svg version="1.1" id="qualites" xmlns="http://www.w3.org/2000/svg" xmlns:xlink="http://www.w3.org/1999/xlink" x="0px" y="0px"
	 viewBox="0 0 750 750" style="enable-background:new 0 0 750 750;" xml:space="preserve">
<style type="text/css">
	.st0{fill:#F23D47;stroke:#F23D47;stroke-miterlimit:10;}
</style>
<g>
	<g id="Groupe_13" transform="translate(92.913 593.215)">
		<path id="Tracé_20" class="st0" d="M30.5,15.9c3.5,3.8,4.1,10.3-1.1,15.1s-11.6,3.6-15-0.1c-1.4-1.4-2.3-3.2-2.8-5.2l0.6-0.6
			c0.4,2,1.3,3.8,2.7,5.3c3.1,3.4,9,4.6,13.9,0.1s4.3-10.6,1.1-14c-1.3-1.5-3-2.5-4.9-3l0.6-0.6C27.5,13.3,29.3,14.4,30.5,15.9z"/>
	</g>
	<g id="Groupe_14" transform="translate(83.209 578.921)">
		<path id="Tracé_21" class="st0" d="M25.5,12.9l0.7,0.8l-1.6,13.9l0.1,0.1l7.7-6.3L33,22L16.3,35.5l-2.7-3.3
			c-3-3.7-2.3-6.9,0.2-8.9c2.7-2.2,6-1.8,8.8,1.8l1.5,1.8L25.5,12.9z M22.1,25.5c-2.7-3.4-5.5-3.6-7.8-1.7c-2.3,1.8-2.8,4.6-0.1,7.9
			l2.2,2.7l7.9-6.4L22.1,25.5z"/>
	</g>
	<g id="Groupe_15" transform="translate(65.615 566.612)">
		<path id="Tracé_22" class="st0" d="M11.7,31.2l5.9,0.3l0.4,0.6L12.2,32L11.7,31.2z M22.5,33.5l-6-8.1l0.6-0.4l5.5,7.5l7.6-5.6
			L25,19.8l0.6-0.4l5.2,7.1l7.9-5.8l-5.5-7.5l0.6-0.4l6,8.1L22.5,33.5z"/>
	</g>
	<g id="Groupe_16" transform="translate(62.538 548.347)">
		<path id="Tracé_23" class="st0" d="M25.4,13.7l-4.9,7l5.6,8.4l8.3-1.7l0.4,0.7l-22.7,4.5L11.7,32l13.2-19.1L25.4,13.7z
			 M25.3,29.4l-5.3-8l-7.3,10.5L25.3,29.4z"/>
	</g>
	<g id="Groupe_17" transform="translate(49.732 541.597)">
		<path id="Tracé_24" class="st0" d="M16.2,24.1l3.7,6.2l-0.6,0.4l-7.6-13.1l0.6-0.4l3.7,6.3L33.9,13l0.4,0.7L16.2,24.1z"/>
	</g>
	<g id="Groupe_18" transform="translate(46.655 530.38)">
		<path id="Tracé_25" class="st0" d="M12.1,23.8l-0.4-0.7l18.9-10.2l0.4,0.7L12.1,23.8z"/>
	</g>
	<g id="Groupe_19" transform="translate(36.232 518.071)">
		<path id="Tracé_26" class="st0" d="M34.7,12.9l0.3,0.7l-15.7,17l-0.4-0.7l15-16.1l0,0L12,15.3l-0.3-0.9L34.7,12.9z"/>
	</g>
	<g id="Groupe_20" transform="translate(29.978 496.629)">
		<path id="Tracé_27" class="st0" d="M15.5,30.6l-3.9-9.3l0.6-0.3l3.6,8.6l8.7-3.7l-3.4-8.1l0.6-0.3l3.4,8.1l9-3.8l-3.6-8.6
			l0.7-0.3l3.9,9.3L15.5,30.6z"/>
	</g>
	<g id="Groupe_21" transform="translate(34.148 479.754)">
		<path id="Tracé_28" class="st0" d="M13.7,19.2L11.6,13l0.7-0.2l2.1,6.2L13.7,19.2z"/>
	</g>
	<g id="Groupe_22" transform="translate(12.141 437.405)">
		<path id="Tracé_29" class="st0" d="M24.9,33c-6.3,1.5-11.7-1.8-13-7.3s2.2-10.9,8.3-12.4s11.7,1.8,13,7.3
			C34.7,26.2,31.2,31.5,24.9,33z M20.5,13.9c-6,1.4-9,6.5-7.8,11.5s6.2,8.2,12.1,6.8c6-1.4,9-6.5,7.8-11.5
			C31.5,15.6,26.5,12.5,20.5,13.9L20.5,13.9z"/>
	</g>
	<g id="Groupe_23" transform="translate(8.274 417.713)">
		<path id="Tracé_30" class="st0" d="M31.8,12.9l0.2,1l-8.2,11.3v0.1l9.8-1.6l0.1,0.7l-21.1,3.4l-0.7-4.2c-0.8-4.7,1.4-7.1,4.7-7.6
			c3.4-0.6,6.1,1.4,6.8,5.9l0.4,2.3L31.8,12.9z M22.4,22.1c-0.7-4.3-3-5.9-6-5.4c-2.9,0.5-4.8,2.6-4.1,6.8l0.5,3.4l10-1.6L22.4,22.1
			z"/>
	</g>
	<g id="Groupe_24" transform="translate(4.893 397.76)">
		<path id="Tracé_31" class="st0" d="M32.9,18.9c-0.2-1.8-0.8-3.6-1.7-5.2l-9.7,1.1L21.3,14l10.1-1.1c1.1,1.8,1.8,3.8,2.1,5.9
			c0.6,5.7-3.2,10.7-9.8,11.4s-11.4-3.3-12-8.8c-0.3-2.1,0-4.2,0.9-6.2l0.9-0.1c-0.9,1.9-1.2,4.1-1,6.2c0.6,5.2,5,8.9,11.2,8.2
			S33.5,24.2,32.9,18.9z"/>
	</g>
	<g id="Groupe_25" transform="translate(3.673 376.021)">
		<path id="Tracé_32" class="st0" d="M32.7,13.8L25,17.4l0.5,10.1l8,2.8v0.8l-21.8-7.5v-0.8L32.6,13L32.7,13.8z M24.8,27.3
			l-0.5-9.5l-11.6,5.4L24.8,27.3z"/>
	</g>
	<g id="Groupe_26" transform="translate(3.276 355.77)">
		<path id="Tracé_33" class="st0" d="M33.2,13.2V14L12.8,27.6l0,0L33,27.8v0.8l-21.4-0.2v-0.8l20.2-13.7l0,0l-20.2-0.2v-0.8
			L33.2,13.2z"/>
	</g>
	<g id="Groupe_27" transform="translate(3.871 346.439)">
		<path id="Tracé_34" class="st0" d="M11.7,13.7v-0.8l21.4,1.2v0.8L11.7,13.7z"/>
	</g>
	<g id="Groupe_28" transform="translate(4.437 328.671)">
		<path id="Tracé_35" class="st0" d="M13.7,12.9l0.9,0.1c-1.2,1.3-1.9,2.9-2.1,4.6c-0.3,3.1,1.3,5.4,3.9,5.7c2.6,0.2,4-1.9,5.7-4.8
			s3.3-5.3,6.5-5c3.3,0.3,5.4,3.3,5.1,6.8c-0.2,2.1-1.1,4-2.6,5.6l-1-0.1c1.6-1.5,2.6-3.4,2.9-5.6c0.3-3.2-1.5-5.8-4.3-6.1
			s-4.3,2-6,4.9c-1.8,3-3.3,5.3-6.3,5.1c-3-0.3-5-3-4.7-6.5C11.9,15.9,12.6,14.3,13.7,12.9z"/>
	</g>
	<g id="Groupe_29" transform="translate(0 310.803)">
		<path id="Tracé_36" class="st0" d="M11.8,13.8l4.1,4.3l-0.1,0.7l-4.1-4.1L11.8,13.8z M17.9,22.9l1.4-10L20,13l-1.3,9.2l9.4,1.3
			l1.3-8.7l0.7,0.1l-1.3,8.7l9.7,1.4l1.3-9.2l0.7,0.1l-1.4,10L17.9,22.9z"/>
	</g>
	<g id="Groupe_30" transform="translate(8.835 293.63)">
		<path id="Tracé_37" class="st0" d="M11.7,22.8l1.9-9.9l0.7,0.1l-1.8,9.1l9.3,1.8l1.7-8.6l0.7,0.2l-1.7,8.6l9.6,1.9l1.8-9.1
			l0.7,0.1l-1.9,9.9L11.7,22.8z"/>
	</g>
	<g id="Groupe_31" transform="translate(26.405 275.067)">
		<path id="Tracé_38" class="st0" d="M11.7,19.2l1.6-6.4L14,13l-1.6,6.4L11.7,19.2z"/>
	</g>
	<g id="Groupe_32" transform="translate(20.747 245.783)">
		<path id="Tracé_39" class="st0" d="M11.7,22.6l3.3-9.7l0.7,0.2l-3.1,9l9.1,3.1l3-8.6l0.7,0.2l-3,8.6l9.8,3.3L32,29.4L11.7,22.6z"
			/>
	</g>
	<g id="Groupe_33" transform="translate(26.306 239.033)">
		<path id="Tracé_40" class="st0" d="M11.7,13.6l0.3-0.7l20,7.6l-0.3,0.7L11.7,13.6z"/>
	</g>
	<g id="Groupe_34" transform="translate(31.765 225.235)">
		<path id="Tracé_41" class="st0" d="M34.8,13.9l-8.5-0.1l-4,9.3l6.1,6.1L28,30L11.7,13.6l0.3-0.7l23.1,0.4L34.8,13.9z M21.8,22.5
			l3.8-8.8l-12.8-0.2L21.8,22.5z"/>
	</g>
	<g id="Groupe_35" transform="translate(38.019 203.174)">
		<path id="Tracé_42" class="st0" d="M31.2,17.3c2.8,1.4,4.1,4.7,2.1,8.7l-2.4,5l-19.3-9.3l2.3-4.8c1.8-3.7,4.8-4.8,7.5-3.5
			c2.3,0.9,3.5,3.5,2.8,5.9C26.1,16.8,28.7,16,31.2,17.3z M21,25.3l2.1-4.3c1.7-3.5,0.3-5.9-1.9-6.9c-2.6-1.3-5.1-0.2-6.6,3l-2,4.2
			L21,25.3z M30.9,17.9c-2.5-1.2-5.5-0.2-7.1,3.4l-2.1,4.4l8.9,4.4l2.1-4.3C34.4,22,33.4,19.1,30.9,17.9L30.9,17.9z"/>
	</g>
	<g id="Groupe_36" transform="translate(46.754 193.669)">
		<path id="Tracé_43" class="st0" d="M11.7,13.6l0.4-0.7l18.2,9.9l4.8-8.7l0.6,0.3l-5.2,9.4L11.7,13.6z"/>
	</g>
	<g id="Groupe_37" transform="translate(54.894 171.334)">
		<path id="Tracé_44" class="st0" d="M11.7,21.4l5.3-8.5l0.6,0.4l-4.9,7.9l8.1,5l4.7-7.5l0.6,0.4l-4.7,7.5l8.3,5.2l4.9-7.9l0.6,0.4
			l-5.3,8.5L11.7,21.4z"/>
	</g>
	<g id="Groupe_38" transform="translate(79.115 160.017)">
		<path id="Tracé_45" class="st0" d="M11.7,18.3l3.8-5.4l0.6,0.4l-3.8,5.4L11.7,18.3z"/>
	</g>
	<g id="Groupe_39" transform="translate(82.788 132.555)">
		<path id="Tracé_46" class="st0" d="M11.7,19.6l2.7-3.4c2.8-3.5,6.6-4.5,9.7-1.9c3.3,2.6,3.3,6.5,0.4,10L22.3,27l6.7,5.4L28.4,33
			L11.7,19.6z M23.6,15c-2.9-2.3-6.1-1.5-8.6,1.7l-2.2,2.8l9,7.2L24,24C26.4,20.7,26.4,17.4,23.6,15L23.6,15z"/>
	</g>
	<g id="Groupe_40" transform="translate(97.678 121.105)">
		<path id="Tracé_47" class="st0" d="M33.4,21.3l-8-2.9L18.6,26l3.8,7.6l-0.5,0.6L11.7,13.5l0.5-0.6L34,20.6L33.4,21.3z M18.2,25.3
			l6.4-7.1l-12-4.3L18.2,25.3z"/>
	</g>
	<g id="Groupe_41" transform="translate(104.726 103.138)">
		<path id="Tracé_48" class="st0" d="M17.2,19l-5.1,5.2l-0.5-0.5l10.6-10.8l0.5,0.5l-5.1,5.2l14.8,14.6L32,33.6L17.2,19z"/>
	</g>
	<g id="Groupe_42" transform="translate(119.417 98.869)">
		<path id="Tracé_49" class="st0" d="M11.7,13.4l0.6-0.5L27,28.5L26.3,29L11.7,13.4z"/>
	</g>
	<g id="Groupe_43" transform="translate(126.167 86.56)">
		<path id="Tracé_50" class="st0" d="M11.7,19.5l7.5-6.7l0.5,0.5l-7,6.2l6.3,7.1l6.7-5.8l0.5,0.5l-6.7,5.8l6.5,7.3l7-6.2l0.5,0.5
			L26,35.4L11.7,19.5z"/>
	</g>
	<g id="Groupe_44" transform="translate(139.767 72.167)">
		<path id="Tracé_51" class="st0" d="M36.9,29.9l-0.6,0.5L13,22.9l0,0l12.4,16l-0.6,0.5l-13.1-17l0.7-0.5l23.2,7.4l0,0L23.3,13.4
			l0.6-0.5L36.9,29.9z"/>
	</g>
	<g id="Groupe_45" transform="translate(156.741 60.056)">
		<path id="Tracé_52" class="st0" d="M18,18l-6,4l-0.4-0.6l12.5-8.5l0.4,0.6l-6,4.1l11.6,17.2l-0.6,0.4L18,18z"/>
	</g>
	<g id="Groupe_46" transform="translate(174.212 51.618)">
		<path id="Tracé_53" class="st0" d="M11.7,18.2l8.6-5.3l0.4,0.6l-7.9,4.9l5,8.1l7.5-4.6l0.4,0.6l-7.5,4.6l5.2,8.3l7.9-4.9l0.4,0.6
			L23,36.4L11.7,18.2z"/>
	</g>
	<g id="Groupe_47" transform="translate(202.305 51.916)">
		<path id="Tracé_54" class="st0" d="M11.7,16l5.8-3.1l0.3,0.6L12,16.6L11.7,16z"/>
	</g>
	<g id="Groupe_48" transform="translate(218.062 30.393)">
		<path id="Tracé_55" class="st0" d="M20.4,13.1l0.4,0.8c-1.7-0.4-3.5-0.3-5.1,0.4c-2.9,1.3-4.1,3.8-3,6.2s3.6,2.6,6.9,2.7
			s6.3,0.3,7.5,3.2c1.3,3-0.2,6.3-3.6,7.7c-1.9,0.9-4.1,1-6.2,0.4l-0.4-0.9c2,0.7,4.3,0.6,6.3-0.2c3-1.3,4.3-4.1,3.2-6.8
			c-1.1-2.6-3.8-2.8-7-2.9c-3.5-0.1-6.3-0.3-7.4-3c-1.2-2.8,0.2-5.8,3.4-7.1C17,12.9,18.7,12.7,20.4,13.1z"/>
	</g>
	<g id="Groupe_49" transform="translate(233.474 22.831)">
		<path id="Tracé_56" class="st0" d="M11.7,16.6l9.4-3.7l0.3,0.7L12.6,17l3.4,8.8l8.2-3.2l0.3,0.7l-8.2,3.2l3.6,9.1l8.7-3.4
			l0.3,0.7l-9.4,3.7L11.7,16.6z"/>
	</g>
	<g id="Groupe_50" transform="translate(249.853 18.426)">
		<path id="Tracé_57" class="st0" d="M29.5,31.5l-1,0.3l-12.4-6.4H16l3.1,9.4L18.4,35l-6.8-20.4l4-1.3c4.6-1.5,7.2,0.3,8.3,3.4
			c1.1,3.3-0.4,6.2-4.7,7.6L17,25L29.5,31.5z M19,23.9c4.1-1.4,5.3-3.9,4.3-6.8c-0.9-2.8-3.4-4.3-7.4-2.9l-3.3,1.1l3.2,9.6L19,23.9z
			"/>
	</g>
	<g id="Groupe_51" transform="translate(264.048 10.82)">
		<path id="Tracé_58" class="st0" d="M26.4,35.8L25.6,36l-14-18.4l0.8-0.2l13.3,17.5l0,0L28,13.1l0.8-0.2L26.4,35.8z"/>
	</g>
	<g id="Groupe_52" transform="translate(286.88 9.43)">
		<path id="Tracé_59" class="st0" d="M11.7,13.1l0.7-0.2l4.8,20.9L16.4,34L11.7,13.1z"/>
	</g>
	<g id="Groupe_53" transform="translate(296.905 6.353)">
		<path id="Tracé_60" class="st0" d="M28.7,32.4L24,25.3l-9.9,1.9l-1.7,8.3l-0.8,0.2L16.1,13l0.8-0.1l12.6,19.5H28.7z M14.3,26.5
			l9.4-1.8L16.8,14L14.3,26.5z"/>
	</g>
	<g id="Groupe_54" transform="translate(316.659 3.094)">
		<path id="Tracé_61" class="st0" d="M26,27.7c0.4,3.1-1.7,6-6.2,6.6L14.3,35l-2.8-21.2l5.3-0.7c4-0.5,6.7,1.3,7,4.5
			c0.5,2.4-0.9,4.8-3.3,5.6C23.7,23.2,25.8,25,26,27.7z M13.7,23.6l4.7-0.6c3.8-0.5,5.1-3,4.8-5.4c-0.4-2.9-2.7-4.4-6.1-3.9
			l-4.6,0.6L13.7,23.6z M25.4,27.8c-0.4-2.8-2.8-4.7-6.8-4.2l-4.8,0.6l1.3,9.8l4.8-0.6C23.9,32.9,25.7,30.5,25.4,27.8z"/>
	</g>
	<g id="Groupe_55" transform="translate(336.016 1.489)">
		<path id="Tracé_62" class="st0" d="M11.7,13l0.8-0.1l1.7,20.6l9.9-0.8l0.1,0.7l-10.7,0.9L11.7,13z"/>
	</g>
	<g id="Groupe_56" transform="translate(352.594)">
		<path id="Tracé_63" class="st0" d="M11.7,13.2l10.1-0.3v0.7l-9.3,0.3l0.3,9.5l8.8-0.3v0.7l-8.8,0.3l0.3,9.8l9.3-0.3v0.7
			l-10.1,0.3L11.7,13.2z"/>
	</g>
	<g id="Groupe_58" transform="translate(399.944 1.29)">
		<path id="Tracé_65" class="st0" d="M27,25.2l-13.5-1.5l-1.2,10.6l-0.7-0.1L14,12.9l0.8,0.1l-1.2,9.9l13.5,1.5l1.1-10l0.8,0.1
			l-2.4,21.3l-0.8-0.1L27,25.2z"/>
	</g>
	<g id="Groupe_59" transform="translate(422.575 5.302)">
		<path id="Tracé_66" class="st0" d="M11.9,22.1c1.1-6.3,6.3-10,11.9-9s9.2,6.3,8.1,12.6s-6.3,10-11.9,9
			C14.2,33.7,10.8,28.3,11.9,22.1z M31.1,25.5c1.1-6.1-2.4-10.8-7.5-11.7s-10,2.4-11,8.4C11.5,28.3,15,33,20.1,33.9
			C25.2,34.8,30,31.5,31.1,25.5L31.1,25.5z"/>
	</g>
	<g id="Groupe_60" transform="translate(446.897 9.132)">
		<path id="Tracé_67" class="st0" d="M26.4,37.5l-0.7-0.2l-8.4-23l0,0l-5,19.6l-0.7-0.2L16.9,13l0.8,0.2L26.1,36l0,0l5-19.5
			l0.7,0.2L26.4,37.5z"/>
	</g>
	<g id="Groupe_61" transform="translate(469.132 15.585)">
		<path id="Tracé_68" class="st0" d="M26.2,38.1l-0.7-0.2l-6.8-23.6l0,0l-6.5,19.2l-0.7-0.2L18.3,13l0.8,0.3l6.7,23.4l0,0l6.4-19.1
			l0.7,0.2L26.2,38.1z"/>
	</g>
	<g id="Groupe_62" transform="translate(490.673 18.464)">
		<path id="Tracé_69" class="st0" d="M19.6,17.9l9.4,3.7l-0.3,0.6L20,18.8l-3.5,8.8l8.2,3.2l-0.3,0.7l-8.2-3.2l-3.6,9.1l8.7,3.4
			L21,41.5l-9.4-3.7L19.6,17.9z M29.1,18.7l-0.8-0.3l-1.4-4.8l-4.4,2.6l-0.8-0.3l5.1-3l0.6,0.2L29.1,18.7z"/>
	</g>
	<g id="Groupe_63" transform="translate(510.03 28.886)">
		<path id="Tracé_70" class="st0" d="M20.2,16.5l-6.6-3l0.3-0.6l13.8,6.3l-0.3,0.6l-6.6-3l-8.5,18.9l-0.7-0.3L20.2,16.5z"/>
	</g>
	<g id="Groupe_64" transform="translate(521.644 37.721)">
		<path id="Tracé_71" class="st0" d="M21.4,12.9l8.9,4.6L30,18.1l-8.3-4.3l-4.4,8.4l7.8,4.1l-0.3,0.6L17,22.8l-4.5,8.7l8.3,4.3
			l-0.3,0.6l-8.9-4.6L21.4,12.9z"/>
	</g>
	<g id="Groupe_65" transform="translate(547.255 60.85)">
		<path id="Tracé_72" class="st0" d="M12.1,12.9l5.6,3.4l-0.4,0.6l-5.6-3.4L12.1,12.9z"/>
	</g>
	<g id="Groupe_66" transform="translate(558.671 65.417)">
		<path id="Tracé_73" class="st0" d="M25.8,35.5l2-8.3l-8.2-5.9l-7.1,4.6l-0.7-0.5l19.5-12.5l0.6,0.5l-5.3,22.5L25.8,35.5z
			 M20.1,20.9l7.8,5.6l3-12.4L20.1,20.9z"/>
	</g>
	<g id="Groupe_67" transform="translate(577.134 74.549)">
		<path id="Tracé_74" class="st0" d="M30.3,30.7c-4.1,5.3-10.2,5.7-15.5,1.6l-3.2-2.5l13.2-16.9l3.2,2.5
			C33.4,19.4,34.4,25.4,30.3,30.7z M12.7,29.6l2.7,2.1c4.8,3.8,10.4,3.5,14.4-1.5c3.9-5,2.8-10.5-2-14.3l-2.7-2.1L12.7,29.6z"/>
	</g>
	<g id="Groupe_68" transform="translate(591.23 92.318)">
		<path id="Tracé_75" class="st0" d="M24.6,34.6l2.9-8L20,19.8l-7.6,3.8l-0.6-0.5l20.8-10.2l0.6,0.5l-7.8,21.7L24.6,34.6z
			 M20.6,19.5l7.1,6.4l4.4-12L20.6,19.5z"/>
	</g>
	<g id="Groupe_69" transform="translate(608.105 102.741)">
		<path id="Tracé_76" class="st0" d="M26.6,12.9l3.1,3c3.2,3.2,3.8,6.9,0.9,9.8c-3,3-6.8,2.6-10-0.6l-2.5-2.5l-6,6.1l-0.5-0.5
			L26.6,12.9z M30,25.1c2.6-2.6,2.1-6-0.8-8.7l-2.5-2.5l-8.1,8.2l2.5,2.5C24.1,27.5,27.4,27.8,30,25.1L30,25.1z"/>
	</g>
	<g id="Groupe_70" transform="translate(622.995 113.66)">
		<path id="Tracé_77" class="st0" d="M26.9,18.7L22,13.4l0.5-0.5l10.2,11.2l-0.5,0.5l-4.9-5.4L12,33.2l-0.5-0.6L26.9,18.7z"/>
	</g>
	<g id="Groupe_71" transform="translate(628.356 132.322)">
		<path id="Tracé_78" class="st0" d="M22.7,33.2l4.1-7.5l-6.5-7.8l-8.1,2.6l-0.5-0.6l22-6.9l0.5,0.6L23.2,34L22.7,33.2z M21,17.8
			l6.1,7.3l6.1-11.2L21,17.8z"/>
	</g>
	<g id="Groupe_72" transform="translate(644.04 140.561)">
		<path id="Tracé_79" class="st0" d="M28.3,19L24,13.2l0.6-0.4l9,12.1L33,25.3l-4.4-5.8L12.2,32.1l-0.5-0.6L28.3,19z"/>
	</g>
	<g id="Groupe_73" transform="translate(651.485 157.337)">
		<path id="Tracé_80" class="st0" d="M29.3,12.9l0.4,0.6L12.1,25.7l-0.4-0.6L29.3,12.9z"/>
	</g>
	<g id="Groupe_74" transform="translate(659.128 162.598)">
		<path id="Tracé_81" class="st0" d="M12.1,32.2l-0.4-0.7l13.7-18.6l0.4,0.7l-13,17.8l0,0l21.6-3.9l0.4,0.7L12.1,32.2z"/>
	</g>
	<g id="Groupe_75" transform="translate(666.375 182.849)">
		<path id="Tracé_82" class="st0" d="M30.4,12.9l4.9,8.8L34.7,22l-4.6-8.1l-8.3,4.6l4.3,7.7l-0.6,0.3l-4.3-7.7l-8.6,4.8l4.6,8.1
			l-0.6,0.4l-4.9-8.8L30.4,12.9z"/>
	</g>
</g>
</svg>
