<?xml version="1.0" encoding="utf-8"?>
<!-- Generator: Adobe Illustrator 25.4.1, SVG Export Plug-In . SVG Version: 6.00 Build 0)  -->
<svg version="1.1" id="qualites_x5F_en" xmlns="http://www.w3.org/2000/svg" xmlns:xlink="http://www.w3.org/1999/xlink" x="0px"
	 y="0px" viewBox="0 0 750 750" style="enable-background:new 0 0 750 750;" xml:space="preserve">
<style type="text/css">
	.st0{fill:#F23D47;stroke:#F23D47;stroke-miterlimit:10;}
	.st1{font-family:'HeroNew-Thin';}
	.st2{font-size:28.9954px;}
	.st3{font-size:28.9952px;}
	.st4{font-size:28.9953px;}
	.st5{font-size:28.9958px;}
</style>
<text transform="matrix(-0.6749 -0.738 0.738 -0.6749 132.8282 619.1462)" class="st0 st1 st2">C</text>
<text transform="matrix(-0.6277 -0.7785 0.7785 -0.6277 119.4853 604.4695)" class="st0 st1 st3">R</text>
<text transform="matrix(-0.5884 -0.8085 0.8085 -0.5884 108.6413 591.0815)" class="st0 st1 st2">E</text>
<text transform="matrix(-0.548 -0.8365 0.8365 -0.548 98.8558 577.723)" class="st0 st1 st4">A</text>
<text transform="matrix(-0.5066 -0.8622 0.8622 -0.5066 88.9366 562.5482)" class="st0 st1 st4">T</text>
<text transform="matrix(-0.4748 -0.8801 0.8801 -0.4748 80.3484 547.7264)" class="st0 st1 st2">I</text>
<text transform="matrix(-0.4317 -0.902 0.902 -0.4317 76.2142 540.3923)" class="st0 st1 st4">V</text>
<text transform="matrix(-0.3878 -0.9217 0.9217 -0.3878 67.7062 522.6369)" class="st0 st1 st4">E</text>
<text transform="matrix(-0.3544 -0.9351 0.9351 -0.3544 61.3494 507.3474)" class="st0 st1 st2"> </text>
<text transform="matrix(-0.3206 -0.9472 0.9472 -0.3206 58.0728 498.85)" class="st0 st1 st4">-</text>
<text transform="matrix(-0.2979 -0.9546 0.9546 -0.2979 54.239 487.5056)" class="st0 st1 st4"> </text>
<text transform="matrix(-0.252 -0.9677 0.9677 -0.252 51.3798 478.8512)" class="st0 st1 st4">O</text>
<text transform="matrix(-0.1939 -0.981 0.981 -0.1939 45.2899 454.7299)" class="st0 st1 st4">R</text>
<text transform="matrix(-0.1351 -0.9908 0.9908 -0.1351 41.9253 437.8374)" class="st0 st1 st4">G</text>
<text transform="matrix(-7.569236e-02 -0.9971 0.9971 -7.569236e-02 39.0638 416.8578)" class="st0 st1 st4">A</text>
<text transform="matrix(-1.583076e-02 -0.9999 0.9999 -1.583076e-02 37.5082 396.9331)" class="st0 st1 st2">N</text>
<text transform="matrix(3.229998e-02 -0.9995 0.9995 3.229998e-02 37.3156 373.8223)" class="st0 st1 st4">I</text>
<text transform="matrix(6.849211e-02 -0.9977 0.9977 6.849211e-02 37.4888 365.4124)" class="st0 st1 st2">Z</text>
<text transform="matrix(0.1168 -0.9932 0.9932 0.1168 38.6125 348.6857)" class="st0 st1 st4">E</text>
<text transform="matrix(0.1651 -0.9863 0.9863 0.1651 40.5082 332.2342)" class="st0 st1 st3">D</text>
<text transform="matrix(0.2132 -0.977 0.977 0.2132 44.2175 311.194)" class="st0 st1 st2"> </text>
<text transform="matrix(0.2372 -0.9715 0.9715 0.2372 46.1623 302.2972)" class="st0 st1 st4">-</text>
<text transform="matrix(0.273 -0.962 0.962 0.273 49.0527 290.6728)" class="st0 st1 st4"> </text>
<text transform="matrix(0.3086 -0.9512 0.9512 0.3086 51.4596 281.892)" class="st0 st1 st4">R</text>
<text transform="matrix(0.3555 -0.9347 0.9347 0.3555 56.7719 265.5045)" class="st0 st1 st2">E</text>
<text transform="matrix(0.4018 -0.9157 0.9157 0.4018 62.6242 250.0129)" class="st0 st1 st2">L</text>
<text transform="matrix(0.4246 -0.9054 0.9054 0.4246 68.9552 235.6915)" class="st0 st1 st4">I</text>
<text transform="matrix(0.4696 -0.8829 0.8829 0.4696 72.3946 228.0083)" class="st0 st1 st2">A</text>
<text transform="matrix(0.5134 -0.8582 0.8582 0.5134 81.7446 210.3502)" class="st0 st1 st2">B</text>
<text transform="matrix(0.5559 -0.8312 0.8312 0.5559 91.2897 194.4011)" class="st0 st1 st2">L</text>
<text transform="matrix(0.5868 -0.8097 0.8097 0.5868 99.9979 181.3856)" class="st0 st1 st3">E</text>
<text transform="matrix(0.6169 -0.787 0.787 0.6169 109.8176 168.0574)" class="st0 st1 st2"> </text>
<text transform="matrix(0.646 -0.7633 0.7633 0.646 115.4198 160.8777)" class="st0 st1 st4">-</text>
<text transform="matrix(0.6649 -0.747 0.747 0.6649 123.1688 151.7477)" class="st0 st1 st4"> </text>
<text transform="matrix(0.6923 -0.7216 0.7216 0.6923 129.1927 144.9174)" class="st0 st1 st4">P</text>
<text transform="matrix(0.7272 -0.6864 0.6864 0.7272 140.4156 133.2213)" class="st0 st1 st4">A</text>
<text transform="matrix(0.7602 -0.6497 0.6497 0.7602 153.6363 120.8214)" class="st0 st1 st4">T</text>
<text transform="matrix(0.7836 -0.6212 0.6212 0.7836 166.7403 109.7815)" class="st0 st1 st4">I</text>
<text transform="matrix(0.8059 -0.592 0.592 0.8059 173.3087 104.5306)" class="st0 st1 st4">E</text>
<text transform="matrix(0.8404 -0.5419 0.5419 0.8404 186.6161 94.664)" class="st0 st1 st3">N</text>
<text transform="matrix(0.8716 -0.4902 0.4902 0.8716 206.0698 82.1841)" class="st0 st1 st4">T</text>
<text transform="matrix(0.8888 -0.4584 0.4584 0.8888 220.2821 74.2088)" class="st0 st1 st2"> </text>
<text transform="matrix(0.8995 -0.4369 0.4369 0.8995 228.3687 70.0212)" class="st0 st1 st2">-</text>
<text transform="matrix(0.9146 -0.4043 0.4043 0.9146 239.1508 64.8126)" class="st0 st1 st2"> </text>
<text transform="matrix(0.9329 -0.3601 0.3601 0.9329 247.392 60.9212)" class="st0 st1 st3">H</text>
<text transform="matrix(0.949 -0.3151 0.3151 0.949 268.7109 52.7727)" class="st0 st1 st4">E</text>
<text transform="matrix(0.963 -0.2695 0.2695 0.963 284.4474 47.6259)" class="st0 st1 st3">L</text>
<text transform="matrix(0.9747 -0.2233 0.2233 0.9747 299.5348 43.43)" class="st0 st1 st3">P</text>
<text transform="matrix(0.9843 -0.1766 0.1766 0.9843 316.3943 39.6286)" class="st0 st1 st4">F</text>
<text transform="matrix(0.9931 -0.1174 0.1174 0.9931 332.1438 36.7233)" class="st0 st1 st2">U</text>
<text transform="matrix(0.9976 -6.964622e-02 6.964622e-02 0.9976 354.0105 34.2368)" class="st0 st1 st3">L</text>
<text transform="matrix(0.9994 -3.356151e-02 3.356151e-02 0.9994 368.8236 33.2828)" class="st0 st1 st2"> </text>
<text transform="matrix(1 2.676968e-03 -2.676968e-03 1 378.0732 33.0895)" class="st0 st1 st5">-</text>
<text transform="matrix(0.9996 2.692317e-02 -2.692317e-02 0.9996 389.8987 32.9887)" class="st0 st1 st4"> </text>
<text transform="matrix(0.9971 7.553832e-02 -7.553832e-02 0.9971 399.0104 33.0968)" class="st0 st1 st2">H</text>
<text transform="matrix(0.9889 0.1486 -0.1486 0.9889 421.7799 34.7544)" class="st0 st1 st4">O</text>
<text transform="matrix(0.9778 0.2094 -0.2094 0.9778 446.379 38.5089)" class="st0 st1 st4">N</text>
<text transform="matrix(0.9629 0.2699 -0.2699 0.9629 468.9382 43.5287)" class="st0 st1 st4">E</text>
<text transform="matrix(0.9481 0.3178 -0.3178 0.9481 484.8759 48.0124)" class="st0 st1 st3">S</text>
<text transform="matrix(0.9309 0.3652 -0.3652 0.9309 500.3647 53.1841)" class="st0 st1 st4">T</text>
<text transform="matrix(0.9164 0.4003 -0.4003 0.9164 515.527 59.1671)" class="st0 st1 st3"> </text>
<text transform="matrix(0.9059 0.4234 -0.4234 0.9059 523.8791 62.7898)" class="st0 st1 st2">-</text>
<text transform="matrix(0.8949 0.4463 -0.4463 0.8949 534.7015 67.9147)" class="st0 st1 st4"> </text>
<text transform="matrix(0.871 0.4913 -0.4913 0.871 542.0575 71.4338)" class="st0 st1 st3">A</text>
<text transform="matrix(0.8448 0.535 -0.535 0.8448 559.4708 81.2364)" class="st0 st1 st3">D</text>
<text transform="matrix(0.8091 0.5877 -0.5877 0.8091 577.1395 92.4759)" class="st0 st1 st2">A</text>
<text transform="matrix(0.7782 0.628 -0.628 0.7782 593.2775 104.2533)" class="st0 st1 st2">P</text>
<text transform="matrix(0.7455 0.6666 -0.6666 0.7455 606.7006 115.1425)" class="st0 st1 st3">T</text>
<text transform="matrix(0.7197 0.6942 -0.6942 0.7197 619.3996 126.6451)" class="st0 st1 st4">I</text>
<text transform="matrix(0.6931 0.7208 -0.7208 0.6931 625.4891 132.4454)" class="st0 st1 st4">V</text>
<text transform="matrix(0.6468 0.7627 -0.7627 0.6468 639.0828 146.69)" class="st0 st1 st2">E</text>
</svg>
