<svg xmlns="http://www.w3.org/2000/svg" width="1640" height="55.896" viewBox="0 0 1640 55.896">
  <g id="separateur_logo" transform="translate(0 1.5)">
    <g id="icone_mt_seul_bold" transform="translate(795.528)">
      <path id="icone_mt_seul_bold-2" data-name="icone_mt_seul_bold" d="M45.124,53.232A26.663,26.663,0,0,0,56.5,18.44H45.124Zm-32.252-6.3A26.041,26.041,0,0,0,32.846,56.3a31.331,31.331,0,0,0,4.64-.4V31.267L25.151,46.08,12.873,31.21Zm38.985-35.3A26.038,26.038,0,0,0,10.1,16.794L25.151,34.559,37.486,20.086V18.5H26V11.686H51.858Z" transform="translate(-10.1 -3.4)" fill="none" stroke="#f23d47" stroke-width="3"/>
    </g>
    <line id="Ligne_12" data-name="Ligne 12" x2="774" transform="translate(0 28.448)" fill="none" stroke="#f23d47" stroke-width="4"/>
    <line id="Ligne_13" data-name="Ligne 13" x2="774" transform="translate(866 28.448)" fill="none" stroke="#f23d47" stroke-width="4"/>
  </g>
</svg>
