<?xml version="1.0" encoding="utf-8"?>
<!-- Generator: Adobe Illustrator 25.4.1, SVG Export Plug-In . SVG Version: 6.00 Build 0)  -->
<svg version="1.1" id="qualites" xmlns="http://www.w3.org/2000/svg" xmlns:xlink="http://www.w3.org/1999/xlink" x="0px" y="0px"
	 viewBox="0 0 750 750" style="enable-background:new 0 0 750 750;" xml:space="preserve">
<style type="text/css">
	.st0{fill:#F23D47;}
</style>
<path id="logo" class="st0" d="M374.3,693.6c-93.5,0-181.8-41.3-242.2-113.4l-0.2-0.2V388.4l149.4,180.2l149.7-179.7v299.6l-0.6,0.1
	C411.8,691.9,393.1,693.6,374.3,693.6z M133.5,579.5c60.1,71.6,147.9,112.6,240.9,112.6c18.4,0,36.9-1.7,55-4.9V393.2l-148,177.9
	l-0.6-0.7L133.5,392.7V579.5z M521.8,657V235.7h138.6l0.2,0.4c20.5,43.1,31.1,90.2,30.9,137.9c0,118.5-64.6,226.7-168.6,282.4
	L521.8,657z M523.3,237.3v417.1C626.2,598.7,690,491.4,690,374c0.1-47.3-10.3-94-30.6-136.7L523.3,237.3z M281.2,431.6L98.3,216.5
	l0.3-0.5c56.4-99.7,162-161.6,275.7-161.6c87.8,0,169.5,35.4,230.1,99.7l1.2,1.3H292.2v80.3h138.7v20.4l-0.2,0.2L281.2,431.6z
	 M100.2,216.3l181.1,212.8l148-173.6v-18.3H290.7v-83.5H602c-60.1-63-141-97.8-227.7-97.8C261.4,55.9,156.4,117.4,100.2,216.3z"/>
</svg>
