<svg id="logo_big" xmlns="http://www.w3.org/2000/svg" width="661.402" height="712.755" viewBox="0 0 661.402 712.755">
  <path id="logo" d="M447.761,816.255c-104.2,0-202.662-46.08-270.063-126.434l-.229-.229V475.925L344.023,676.868,510.921,476.5V810.524l-.688.115A361.668,361.668,0,0,1,447.761,816.255ZM179.3,689.018C246.36,768.8,344.252,814.536,447.875,814.536a349.488,349.488,0,0,0,61.326-5.5V481.313L344.137,679.619l-.688-.8L179.3,480.74Zm432.949,86.429V305.7H766.77l.229.458a354.987,354.987,0,0,1,34.5,153.716c0,132.166-71.986,252.754-187.99,314.882Zm1.719-468.025V772.467C728.6,710.454,799.782,590.782,799.782,459.878a352.83,352.83,0,0,0-34.159-152.455ZM344.023,524.069,140.1,284.268l.344-.573C203.375,172.506,321.1,103.5,447.875,103.5c97.892,0,189.021,39.432,256.537,111.189l1.376,1.49h-349.5V305.7H510.921v22.7l-.229.229ZM142.163,284.039,344.023,521.318,509.087,327.712v-20.4H354.568V214.23H701.661c-67.057-70.267-157.155-109.011-253.9-109.011C321.9,105.219,204.865,173.767,142.163,284.039Z" transform="translate(-140.1 -103.5)" fill="#f23d47"/>
</svg>
