<svg id="qualites" xmlns="http://www.w3.org/2000/svg" width="690" height="614.415" viewBox="0 0 690 614.415">
  <g id="Groupe_13" data-name="Groupe 13" transform="translate(92.913 593.215)">
    <path id="Tracé_20" data-name="Tracé 20" d="M149.961,647.178c3.474,3.772,4.07,10.324-1.092,15.089s-11.614,3.573-14.989-.1a11.065,11.065,0,0,1-2.779-5.162l.6-.6a10.678,10.678,0,0,0,2.68,5.261c3.077,3.375,9.033,4.566,13.9.1s4.268-10.621,1.092-14A9.728,9.728,0,0,0,144.5,644.8l.6-.6A9.08,9.08,0,0,1,149.961,647.178Z" transform="translate(-131.1 -644.2)" fill="#f23d47"/>
  </g>
  <g id="Groupe_14" data-name="Groupe 14" transform="translate(83.209 578.921)">
    <path id="Tracé_21" data-name="Tracé 21" d="M135.2,629.8l.695.794-1.588,13.9.1.1,7.743-6.254.5.6-16.677,13.5-2.68-3.276c-2.978-3.673-2.283-6.949.2-8.934,2.68-2.184,5.956-1.787,8.835,1.787l1.489,1.787Zm-3.474,12.607c-2.68-3.375-5.46-3.574-7.842-1.687-2.283,1.787-2.779,4.566-.1,7.941l2.184,2.68,7.941-6.353Z" transform="translate(-121.324 -629.8)" fill="#f23d47"/>
  </g>
  <g id="Groupe_15" data-name="Groupe 15" transform="translate(65.615 566.612)">
    <path id="Tracé_22" data-name="Tracé 22" d="M103.6,635.665l5.857.3.4.6-5.757-.1Zm10.82,2.382-5.956-8.14.6-.4,5.46,7.544,7.644-5.559L117,624.349l.6-.4,5.162,7.147,7.941-5.757-5.46-7.544.6-.4,5.956,8.14Z" transform="translate(-103.6 -617.4)" fill="#f23d47"/>
  </g>
  <g id="Groupe_16" data-name="Groupe 16" transform="translate(62.538 548.347)">
    <path id="Tracé_23" data-name="Tracé 23" d="M114.2,599.794l-4.864,7.048,5.559,8.438,8.338-1.687.4.695L100.9,618.754l-.4-.695L113.7,599Zm-.1,15.684-5.261-8.041-7.346,10.522Z" transform="translate(-100.5 -599)" fill="#f23d47"/>
  </g>
  <g id="Groupe_17" data-name="Groupe 17" transform="translate(49.732 541.597)">
    <path id="Tracé_24" data-name="Tracé 24" d="M92.166,603.417l3.673,6.155-.6.4-7.644-13.1.6-.4,3.673,6.254L109.736,592.2l.4.695Z" transform="translate(-87.6 -592.2)" fill="#f23d47"/>
  </g>
  <g id="Groupe_18" data-name="Groupe 18" transform="translate(46.655 530.38)">
    <path id="Tracé_25" data-name="Tracé 25" d="M84.9,591.819l-.4-.695L103.361,580.9l.4.695Z" transform="translate(-84.5 -580.9)" fill="#f23d47"/>
  </g>
  <g id="Groupe_19" data-name="Groupe 19" transform="translate(36.232 518.071)">
    <path id="Tracé_26" data-name="Tracé 26" d="M97.03,568.5l.3.695L81.644,586.169l-.4-.695,14.989-16.081h0L74.3,570.882l-.3-.893Z" transform="translate(-74 -568.5)" fill="#f23d47"/>
  </g>
  <g id="Groupe_20" data-name="Groupe 20" transform="translate(29.978 496.629)">
    <path id="Tracé_27" data-name="Tracé 27" d="M71.571,564.569,67.7,555.238l.6-.3,3.574,8.636L80.6,559.9l-3.375-8.14.6-.3,3.375,8.14,9.033-3.772L86.66,547.2l.695-.3,3.871,9.331Z" transform="translate(-67.7 -546.9)" fill="#f23d47"/>
  </g>
  <g id="Groupe_21" data-name="Groupe 21" transform="translate(34.148 479.754)">
    <path id="Tracé_28" data-name="Tracé 28" d="M73.985,536.253,71.9,530.1l.695-.2,2.085,6.155Z" transform="translate(-71.9 -529.9)" fill="#f23d47"/>
  </g>
  <g id="Groupe_22" data-name="Groupe 22" transform="translate(12.141 437.405)">
    <path id="Tracé_29" data-name="Tracé 29" d="M63,507.351c-6.254,1.489-11.713-1.787-13-7.346s2.184-10.919,8.338-12.408,11.713,1.787,13,7.346C72.73,500.5,69.256,505.862,63,507.351Zm-4.467-19.059c-5.956,1.39-9.033,6.452-7.842,11.515s6.155,8.239,12.11,6.849,9.033-6.452,7.842-11.515C69.553,489.98,64.59,486.8,58.535,488.292Z" transform="translate(-49.73 -487.238)" fill="#f23d47"/>
  </g>
  <g id="Groupe_23" data-name="Groupe 23" transform="translate(8.274 417.713)">
    <path id="Tracé_30" data-name="Tracé 30" d="M65.951,467.4l.2.993-8.239,11.316v.1l9.827-1.588.1.695L46.694,482.29,46,478.121c-.794-4.665,1.39-7.147,4.666-7.644,3.375-.6,6.055,1.39,6.75,5.857l.4,2.283Zm-9.331,9.232c-.695-4.268-2.978-5.857-5.956-5.36-2.879.5-4.765,2.581-4.07,6.849l.5,3.375,10.026-1.588Z" transform="translate(-45.835 -467.4)" fill="#f23d47"/>
  </g>
  <g id="Groupe_24" data-name="Groupe 24" transform="translate(4.893 397.76)">
    <path id="Tracé_31" data-name="Tracé 31" d="M63.643,453.256a13.192,13.192,0,0,0-1.688-5.162l-9.728,1.092-.1-.794L62.253,447.3a14.108,14.108,0,0,1,2.085,5.857c.6,5.658-3.177,10.721-9.827,11.416S43.1,461.3,42.5,455.738a11.537,11.537,0,0,1,.893-6.155l.893-.1a12.048,12.048,0,0,0-.993,6.155c.6,5.162,4.963,8.934,11.217,8.239S64.239,458.616,63.643,453.256Z" transform="translate(-42.429 -447.3)" fill="#f23d47"/>
  </g>
  <g id="Groupe_25" data-name="Groupe 25" transform="translate(3.673 376.021)">
    <path id="Tracé_32" data-name="Tracé 32" d="M62.244,426.293,54.5,429.867l.5,10.125,8.041,2.779v.794L41.2,436.021v-.794L62.145,425.4Zm-7.941,13.5-.5-9.53-11.614,5.36Z" transform="translate(-41.2 -425.4)" fill="#f23d47"/>
  </g>
  <g id="Groupe_26" data-name="Groupe 26" transform="translate(3.276 355.77)">
    <path id="Tracé_33" data-name="Tracé 33" d="M62.341,405.3v.794l-20.35,13.6h0l20.25.2v.794l-21.442-.2v-.794l20.151-13.7h0l-20.151-.2V405Z" transform="translate(-40.8 -405)" fill="#f23d47"/>
  </g>
  <g id="Groupe_27" data-name="Groupe 27" transform="translate(3.871 346.439)">
    <path id="Tracé_34" data-name="Tracé 34" d="M41.4,396.394V395.6l21.442,1.191v.794Z" transform="translate(-41.4 -395.6)" fill="#f23d47"/>
  </g>
  <g id="Groupe_28" data-name="Groupe 28" transform="translate(4.437 328.671)">
    <path id="Tracé_35" data-name="Tracé 35" d="M43.985,377.7l.893.1a8.289,8.289,0,0,0-2.085,4.566c-.3,3.077,1.29,5.36,3.871,5.658,2.581.2,3.971-1.886,5.658-4.765S55.6,378,58.776,378.3c3.276.3,5.36,3.276,5.063,6.849a9.374,9.374,0,0,1-2.581,5.559l-.993-.1a9.2,9.2,0,0,0,2.879-5.559c.3-3.177-1.489-5.757-4.268-6.055s-4.268,1.985-5.956,4.864c-1.787,2.978-3.276,5.261-6.254,5.063-2.978-.3-4.963-2.978-4.666-6.452A10.192,10.192,0,0,1,43.985,377.7Z" transform="translate(-41.97 -377.7)" fill="#f23d47"/>
  </g>
  <g id="Groupe_29" data-name="Groupe 29" transform="translate(0 310.803)">
    <path id="Tracé_36" data-name="Tracé 36" d="M37.6,360.593l4.07,4.268-.1.695-4.07-4.07Zm6.155,9.132,1.39-10.026.695.1-1.29,9.232,9.43,1.29,1.29-8.735.695.1-1.29,8.735,9.728,1.39,1.29-9.232.695.1L65,372.7Z" transform="translate(-37.5 -359.7)" fill="#f23d47"/>
  </g>
  <g id="Groupe_30" data-name="Groupe 30" transform="translate(8.835 293.63)">
    <path id="Tracé_37" data-name="Tracé 37" d="M46.4,352.327l1.886-9.927.695.1-1.787,9.133,9.331,1.787,1.688-8.636.695.2-1.688,8.636,9.629,1.886,1.787-9.133.695.1L67.444,356.4Z" transform="translate(-46.4 -342.4)" fill="#f23d47"/>
  </g>
  <g id="Groupe_31" data-name="Groupe 31" transform="translate(26.405 275.067)">
    <path id="Tracé_38" data-name="Tracé 38" d="M64.1,330.053l1.588-6.353.695.2-1.588,6.353Z" transform="translate(-64.1 -323.7)" fill="#f23d47"/>
  </g>
  <g id="Groupe_32" data-name="Groupe 32" transform="translate(20.747 245.783)">
    <path id="Tracé_39" data-name="Tracé 39" d="M58.4,303.928l3.276-9.728.695.2-3.077,9.033,9.132,3.077,2.978-8.636.695.2-2.978,8.636,9.827,3.276-.2.695Z" transform="translate(-58.4 -294.2)" fill="#f23d47"/>
  </g>
  <g id="Groupe_33" data-name="Groupe 33" transform="translate(26.306 239.033)">
    <path id="Tracé_40" data-name="Tracé 40" d="M64,288.095l.3-.695,20.052,7.643-.3.695Z" transform="translate(-64 -287.4)" fill="#f23d47"/>
  </g>
  <g id="Groupe_34" data-name="Groupe 34" transform="translate(31.765 225.235)">
    <path id="Tracé_41" data-name="Tracé 41" d="M92.629,274.493l-8.537-.1-3.971,9.331,6.055,6.055-.3.794L69.5,274.195l.3-.695,23.129.4Zm-13,8.636,3.772-8.835-12.805-.2Z" transform="translate(-69.5 -273.5)" fill="#f23d47"/>
  </g>
  <g id="Groupe_35" data-name="Groupe 35" transform="translate(38.019 203.174)">
    <path id="Tracé_42" data-name="Tracé 42" d="M95.355,255.668c2.779,1.39,4.07,4.665,2.085,8.735l-2.382,4.963L75.8,260.035l2.283-4.765c1.787-3.673,4.765-4.765,7.544-3.474a4.786,4.786,0,0,1,2.779,5.857C90.293,255.171,92.874,254.377,95.355,255.668Zm-10.224,8.041,2.085-4.268c1.688-3.474.3-5.857-1.886-6.949-2.581-1.29-5.063-.2-6.552,2.978l-1.985,4.169Zm9.927-7.445c-2.482-1.191-5.46-.2-7.147,3.375l-2.085,4.368,8.934,4.368,2.085-4.268C98.532,260.333,97.539,257.454,95.058,256.263Z" transform="translate(-75.8 -251.276)" fill="#f23d47"/>
  </g>
  <g id="Groupe_36" data-name="Groupe 36" transform="translate(46.754 193.669)">
    <path id="Tracé_43" data-name="Tracé 43" d="M84.6,242.395l.4-.695,18.166,9.927,4.765-8.735.6.3-5.162,9.43Z" transform="translate(-84.6 -241.7)" fill="#f23d47"/>
  </g>
  <g id="Groupe_37" data-name="Groupe 37" transform="translate(54.894 171.334)">
    <path id="Tracé_44" data-name="Tracé 44" d="M92.8,227.737l5.261-8.537.6.4-4.864,7.941,8.14,4.963,4.666-7.544.6.4-4.666,7.544,8.338,5.162,4.864-7.941.6.4-5.261,8.537Z" transform="translate(-92.8 -219.2)" fill="#f23d47"/>
  </g>
  <g id="Groupe_38" data-name="Groupe 38" transform="translate(79.115 160.017)">
    <path id="Tracé_45" data-name="Tracé 45" d="M117.2,213.16l3.772-5.36.6.4-3.772,5.36Z" transform="translate(-117.2 -207.8)" fill="#f23d47"/>
  </g>
  <g id="Groupe_39" data-name="Groupe 39" transform="translate(82.788 132.555)">
    <path id="Tracé_46" data-name="Tracé 46" d="M120.9,186.85l2.68-3.375c2.779-3.474,6.552-4.467,9.728-1.886,3.276,2.581,3.276,6.452.4,10.026l-2.184,2.68,6.651,5.36-.5.6Zm11.912-4.566c-2.879-2.283-6.055-1.489-8.636,1.688l-2.184,2.779L131.025,194l2.184-2.779C135.691,187.942,135.691,184.666,132.812,182.284Z" transform="translate(-120.9 -180.135)" fill="#f23d47"/>
  </g>
  <g id="Groupe_40" data-name="Groupe 40" transform="translate(97.678 121.105)">
    <path id="Tracé_47" data-name="Tracé 47" d="M157.639,177.038l-8.041-2.879-6.75,7.544,3.772,7.643-.5.6L135.9,169.2l.5-.6,21.839,7.743Zm-15.188,3.971,6.353-7.147-12.011-4.268Z" transform="translate(-135.9 -168.6)" fill="#f23d47"/>
  </g>
  <g id="Groupe_41" data-name="Groupe 41" transform="translate(104.726 103.138)">
    <path id="Tracé_48" data-name="Tracé 48" d="M148.559,156.654l-5.063,5.162-.5-.5,10.622-10.82.5.5-5.063,5.162,14.791,14.592-.5.5Z" transform="translate(-143 -150.5)" fill="#f23d47"/>
  </g>
  <g id="Groupe_42" data-name="Groupe 42" transform="translate(119.417 98.869)">
    <path id="Tracé_49" data-name="Tracé 49" d="M157.8,146.7l.6-.5,14.691,15.585-.6.5Z" transform="translate(-157.8 -146.2)" fill="#f23d47"/>
  </g>
  <g id="Groupe_43" data-name="Groupe 43" transform="translate(126.167 86.56)">
    <path id="Tracé_50" data-name="Tracé 50" d="M164.6,140.451l7.544-6.651.5.5-7.048,6.155,6.254,7.147,6.651-5.757.5.5-6.651,5.757,6.452,7.346,7.048-6.155.5.5-7.544,6.651Z" transform="translate(-164.6 -133.8)" fill="#f23d47"/>
  </g>
  <g id="Groupe_44" data-name="Groupe 44" transform="translate(139.767 72.167)">
    <path id="Tracé_51" data-name="Tracé 51" d="M203.514,136.275l-.6.5-23.328-7.544h0L192,145.208l-.6.5L178.3,128.73l.695-.5,23.228,7.445h0L189.914,119.8l.6-.5Z" transform="translate(-178.3 -119.3)" fill="#f23d47"/>
  </g>
  <g id="Groupe_45" data-name="Groupe 45" transform="translate(156.741 60.056)">
    <path id="Tracé_52" data-name="Tracé 52" d="M201.753,112.163l-5.956,4.07-.4-.6,12.508-8.537.4.6-5.956,4.07,11.614,17.173-.6.4Z" transform="translate(-195.4 -107.1)" fill="#f23d47"/>
  </g>
  <g id="Groupe_46" data-name="Groupe 46" transform="translate(174.212 51.618)">
    <path id="Tracé_53" data-name="Tracé 53" d="M213,103.861l8.636-5.261.4.6-7.941,4.864,4.963,8.14,7.544-4.566.4.6-7.544,4.566,5.162,8.338,7.941-4.864.4.6-8.636,5.261Z" transform="translate(-213 -98.6)" fill="#f23d47"/>
  </g>
  <g id="Groupe_47" data-name="Groupe 47" transform="translate(202.305 51.916)">
    <path id="Tracé_54" data-name="Tracé 54" d="M241.3,101.977l5.757-3.077.3.6-5.757,3.077Z" transform="translate(-241.3 -98.9)" fill="#f23d47"/>
  </g>
  <g id="Groupe_48" data-name="Groupe 48" transform="translate(218.062 30.393)">
    <path id="Tracé_55" data-name="Tracé 55" d="M265.935,77.4l.4.794a7.872,7.872,0,0,0-5.063.4c-2.879,1.29-4.07,3.772-2.978,6.155s3.574,2.581,6.949,2.68c3.276.1,6.254.3,7.544,3.177,1.29,2.978-.2,6.254-3.574,7.743a8.81,8.81,0,0,1-6.155.4l-.4-.893a9.009,9.009,0,0,0,6.254-.2c2.978-1.29,4.268-4.07,3.177-6.75-1.092-2.581-3.772-2.779-7.048-2.879-3.474-.1-6.254-.3-7.445-2.978-1.191-2.779.2-5.757,3.375-7.147A8.336,8.336,0,0,1,265.935,77.4Z" transform="translate(-257.174 -77.218)" fill="#f23d47"/>
  </g>
  <g id="Groupe_49" data-name="Groupe 49" transform="translate(233.474 22.831)">
    <path id="Tracé_56" data-name="Tracé 56" d="M272.7,73.273l9.43-3.673.3.695-8.735,3.375,3.375,8.835,8.239-3.177.3.695L277.366,83.2l3.574,9.132,8.735-3.375.3.695-9.43,3.673Z" transform="translate(-272.7 -69.6)" fill="#f23d47"/>
  </g>
  <g id="Groupe_50" data-name="Groupe 50" transform="translate(249.853 18.426)">
    <path id="Tracé_57" data-name="Tracé 57" d="M307.068,83.763l-.993.3-12.408-6.353h-.1l3.077,9.43-.695.2-6.75-20.35,3.971-1.29c4.566-1.489,7.246.3,8.338,3.375,1.092,3.276-.4,6.155-4.666,7.644l-2.184.695Zm-10.522-7.644c4.07-1.39,5.261-3.871,4.268-6.75-.893-2.779-3.375-4.268-7.445-2.879l-3.276,1.092,3.177,9.629Z" transform="translate(-289.2 -65.162)" fill="#f23d47"/>
  </g>
  <g id="Groupe_51" data-name="Groupe 51" transform="translate(264.048 10.82)">
    <path id="Tracé_58" data-name="Tracé 58" d="M318.291,80.431l-.794.2-14-18.364.794-.2,13.3,17.471h0L319.879,57.7l.794-.2Z" transform="translate(-303.5 -57.5)" fill="#f23d47"/>
  </g>
  <g id="Groupe_52" data-name="Groupe 52" transform="translate(286.88 9.43)">
    <path id="Tracé_59" data-name="Tracé 59" d="M326.5,56.3l.695-.2,4.765,20.945-.695.2Z" transform="translate(-326.5 -56.1)" fill="#f23d47"/>
  </g>
  <g id="Groupe_53" data-name="Groupe 53" transform="translate(296.905 6.353)">
    <path id="Tracé_60" data-name="Tracé 60" d="M353.674,72.555l-4.666-7.147-9.927,1.886-1.688,8.338-.794.2L341.067,53.1l.794-.1,12.607,19.456ZM339.28,66.6l9.43-1.787-6.949-10.721Z" transform="translate(-336.6 -53)" fill="#f23d47"/>
  </g>
  <g id="Groupe_54" data-name="Groupe 54" transform="translate(316.659 3.094)">
    <path id="Tracé_61" data-name="Tracé 61" d="M370.894,64.491c.4,3.077-1.688,5.956-6.155,6.552l-5.46.695L356.5,50.494l5.261-.695c3.971-.5,6.651,1.29,7.048,4.467a4.878,4.878,0,0,1-3.276,5.559C368.511,60.024,370.6,61.811,370.894,64.491Zm-12.309-4.07,4.666-.6c3.772-.5,5.063-2.978,4.765-5.36-.4-2.879-2.68-4.368-6.055-3.871l-4.566.6ZM370.2,64.59c-.4-2.779-2.779-4.666-6.75-4.169l-4.765.6,1.29,9.827,4.765-.6C368.71,69.752,370.5,67.37,370.2,64.59Z" transform="translate(-356.5 -49.717)" fill="#f23d47"/>
  </g>
  <g id="Groupe_55" data-name="Groupe 55" transform="translate(336.016 1.489)">
    <path id="Tracé_62" data-name="Tracé 62" d="M376,48.2l.794-.1,1.688,20.647,9.927-.794.1.695-10.721.893Z" transform="translate(-376 -48.1)" fill="#f23d47"/>
  </g>
  <g id="Groupe_56" data-name="Groupe 56" transform="translate(352.594)">
    <path id="Tracé_63" data-name="Tracé 63" d="M392.7,46.9l10.125-.3v.695l-9.331.3.3,9.53,8.835-.3v.695l-8.835.3.3,9.827,9.331-.3v.695l-10.125.3Z" transform="translate(-392.7 -46.6)" fill="#f23d47"/>
  </g>
  <g id="Groupe_57" data-name="Groupe 57" transform="translate(364.208 192.974)">
    <path id="Tracé_64" data-name="Tracé 64" d="M404.4,241l2.879.1v.3l-2.879-.1Z" transform="translate(-404.4 -241)" fill="#f23d47"/>
  </g>
  <g id="Groupe_58" data-name="Groupe 58" transform="translate(399.944 1.29)">
    <path id="Tracé_65" data-name="Tracé 65" d="M455.786,60.209l-13.5-1.489-1.191,10.621-.695-.1L442.782,47.9l.794.1-1.191,9.927,13.5,1.489,1.092-10.026.794.1-2.382,21.342-.794-.1Z" transform="translate(-440.4 -47.9)" fill="#f23d47"/>
  </g>
  <g id="Groupe_59" data-name="Groupe 59" transform="translate(422.575 5.302)">
    <path id="Tracé_66" data-name="Tracé 66" d="M463.4,61.132c1.092-6.254,6.254-10.026,11.912-9.033s9.232,6.254,8.14,12.607c-1.092,6.254-6.254,10.026-11.912,9.033C465.781,72.746,462.307,67.386,463.4,61.132Zm19.258,3.375c1.092-6.055-2.382-10.82-7.544-11.713s-10.026,2.382-11.019,8.438c-1.092,6.055,2.382,10.82,7.544,11.713C476.7,73.838,481.564,70.562,482.656,64.507Z" transform="translate(-463.199 -51.941)" fill="#f23d47"/>
  </g>
  <g id="Groupe_60" data-name="Groupe 60" transform="translate(446.897 9.132)">
    <path id="Tracé_67" data-name="Tracé 67" d="M502.491,80.418l-.695-.2-8.438-23.03h0l-4.963,19.555-.695-.2L492.961,55.8l.794.2,8.438,22.831h0l4.963-19.456.695.2Z" transform="translate(-487.7 -55.8)" fill="#f23d47"/>
  </g>
  <g id="Groupe_61" data-name="Groupe 61" transform="translate(469.132 15.585)">
    <path id="Tracé_68" data-name="Tracé 68" d="M524.692,87.514l-.695-.2-6.75-23.625h0l-6.452,19.158-.695-.2,6.849-20.35.794.3,6.651,23.427h0l6.353-19.059.695.2Z" transform="translate(-510.1 -62.3)" fill="#f23d47"/>
  </g>
  <g id="Groupe_62" data-name="Groupe 62" transform="translate(490.673 18.464)">
    <path id="Tracé_69" data-name="Tracé 69" d="M539.741,70.163l9.43,3.673-.3.6-8.735-3.375-3.474,8.835,8.239,3.177-.3.695-8.239-3.177-3.574,9.132,8.735,3.375-.3.695-9.43-3.673Zm9.53.794-.794-.3-1.39-4.765-4.368,2.581-.794-.3,5.063-2.978.6.2Z" transform="translate(-531.8 -65.2)" fill="#f23d47"/>
  </g>
  <g id="Groupe_63" data-name="Groupe 63" transform="translate(510.03 28.886)">
    <path id="Tracé_70" data-name="Tracé 70" d="M559.837,79.274,553.285,76.3l.3-.6,13.8,6.254-.3.6-6.552-2.978-8.537,18.861-.695-.3Z" transform="translate(-551.3 -75.7)" fill="#f23d47"/>
  </g>
  <g id="Groupe_64" data-name="Groupe 64" transform="translate(521.644 37.721)">
    <path id="Tracé_71" data-name="Tracé 71" d="M572.728,84.6l8.934,4.566-.3.6-8.338-4.268-4.368,8.438L576.5,98l-.3.6-7.842-4.07-4.467,8.735,8.338,4.268-.3.6L563,103.56Z" transform="translate(-563 -84.6)" fill="#f23d47"/>
  </g>
  <g id="Groupe_65" data-name="Groupe 65" transform="translate(547.255 60.85)">
    <path id="Tracé_72" data-name="Tracé 72" d="M589.2,107.9l5.559,3.375-.4.6L588.8,108.5Z" transform="translate(-588.8 -107.9)" fill="#f23d47"/>
  </g>
  <g id="Groupe_66" data-name="Groupe 66" transform="translate(558.671 65.417)">
    <path id="Tracé_73" data-name="Tracé 73" d="M614.4,135.133l1.985-8.338-8.239-5.857-7.147,4.566-.695-.5L619.756,112.5l.6.5-5.261,22.533Zm-5.658-14.592,7.842,5.559,2.978-12.408Z" transform="translate(-600.3 -112.5)" fill="#f23d47"/>
  </g>
  <g id="Groupe_67" data-name="Groupe 67" transform="translate(577.134 74.549)">
    <path id="Tracé_74" data-name="Tracé 74" d="M637.562,139.469c-4.07,5.261-10.224,5.658-15.485,1.588l-3.177-2.482L632.1,121.7l3.177,2.482C640.639,128.252,641.632,134.208,637.562,139.469Zm-17.57-1.092,2.68,2.085c4.765,3.772,10.423,3.474,14.394-1.489,3.871-4.963,2.779-10.522-1.985-14.294l-2.68-2.085Z" transform="translate(-618.9 -121.7)" fill="#f23d47"/>
  </g>
  <g id="Groupe_68" data-name="Groupe 68" transform="translate(591.23 92.318)">
    <path id="Tracé_75" data-name="Tracé 75" d="M646,161.339l2.879-8.041-7.544-6.75-7.644,3.772-.6-.5L653.847,139.6l.6.5L646.6,161.836Zm-3.971-15.088,7.147,6.353,4.368-12.011Z" transform="translate(-633.1 -139.6)" fill="#f23d47"/>
  </g>
  <g id="Groupe_69" data-name="Groupe 69" transform="translate(608.105 102.741)">
    <path id="Tracé_76" data-name="Tracé 76" d="M665.089,150.1l3.077,2.978c3.177,3.177,3.772,6.949.893,9.827-2.978,2.978-6.75,2.581-10.026-.6l-2.482-2.482-5.956,6.055-.5-.5Zm3.375,12.21c2.581-2.581,2.085-5.956-.794-8.735l-2.482-2.482-8.14,8.239,2.482,2.482C662.508,164.692,665.883,164.99,668.464,162.31Z" transform="translate(-650.1 -150.1)" fill="#f23d47"/>
  </g>
  <g id="Groupe_70" data-name="Groupe 70" transform="translate(622.995 113.66)">
    <path id="Tracé_77" data-name="Tracé 77" d="M680.387,166.857l-4.864-5.261.5-.5,10.224,11.217-.5.5-4.864-5.36-15.287,14-.5-.6Z" transform="translate(-665.1 -161.1)" fill="#f23d47"/>
  </g>
  <g id="Groupe_71" data-name="Groupe 71" transform="translate(628.356 132.322)">
    <path id="Tracé_78" data-name="Tracé 78" d="M681.519,200.25l4.07-7.544-6.452-7.842L671,187.444l-.5-.6,22.037-6.949.5.6-11.019,20.35Zm-1.687-15.486,6.055,7.346,6.055-11.217Z" transform="translate(-670.5 -179.9)" fill="#f23d47"/>
  </g>
  <g id="Groupe_72" data-name="Groupe 72" transform="translate(644.04 140.561)">
    <path id="Tracé_79" data-name="Tracé 79" d="M702.977,194.354l-4.268-5.757.6-.4,9.033,12.11-.6.4-4.368-5.757L686.8,207.358l-.5-.6Z" transform="translate(-686.3 -188.2)" fill="#f23d47"/>
  </g>
  <g id="Groupe_73" data-name="Groupe 73" transform="translate(651.485 157.337)">
    <path id="Tracé_80" data-name="Tracé 80" d="M711.469,205.1l.4.6L694.2,217.905l-.4-.6Z" transform="translate(-693.8 -205.1)" fill="#f23d47"/>
  </g>
  <g id="Groupe_74" data-name="Groupe 74" transform="translate(659.128 162.598)">
    <path id="Tracé_81" data-name="Tracé 81" d="M701.9,229.658l-.4-.695L715.2,210.4l.4.695-13,17.769h0l21.64-3.871.4.695Z" transform="translate(-701.5 -210.4)" fill="#f23d47"/>
  </g>
  <g id="Groupe_75" data-name="Groupe 75" transform="translate(666.375 182.849)">
    <path id="Tracé_82" data-name="Tracé 82" d="M727.561,230.8l4.864,8.835-.6.3-4.566-8.14-8.338,4.566,4.268,7.743-.6.3-4.268-7.743-8.636,4.765,4.566,8.14-.6.4-4.864-8.835Z" transform="translate(-708.8 -230.8)" fill="#f23d47"/>
  </g>
</svg>
