<svg xmlns="http://www.w3.org/2000/svg" width="64.474" height="64.502" viewBox="0 0 64.474 64.502">
  <path id="Icon_ionic-logo-pinterest" data-name="Icon ionic-logo-pinterest" d="M34.494,2.25A32.247,32.247,0,0,0,21.553,64.032a28.556,28.556,0,0,1,.561-7.4c.619-2.62,4.146-17.576,4.146-17.576a12.31,12.31,0,0,1-1.036-5.1c0-4.779,2.764-8.349,6.218-8.349,2.937,0,4.347,2.2,4.347,4.837,0,2.951-1.886,7.356-2.85,11.444a4.985,4.985,0,0,0,5.1,6.2c6.1,0,10.22-7.845,10.22-17.144,0-7.068-4.765-12.351-13.416-12.351-9.774,0-15.877,7.3-15.877,15.445a9.294,9.294,0,0,0,2.13,6.319,1.576,1.576,0,0,1,.461,1.8c-.158.59-.5,2.015-.662,2.591a1.108,1.108,0,0,1-1.612.806c-4.506-1.843-6.607-6.765-6.607-12.322,0-9.155,7.73-20.138,23.046-20.138,12.307,0,20.412,8.91,20.412,18.468,0,12.653-7.039,22.1-17.4,22.1-3.484,0-6.751-1.886-7.874-4.016,0,0-1.871,7.428-2.274,8.867a26.8,26.8,0,0,1-3.239,6.909A32.25,32.25,0,1,0,34.494,2.25Z" transform="translate(-2.25 -2.25)" fill="#a6d8d6"/>
</svg>
