<svg xmlns="http://www.w3.org/2000/svg" width="64.502" height="64.502" viewBox="0 0 64.502 64.502">
  <g id="Icon_ionic-logo-instagram" data-name="Icon ionic-logo-instagram" transform="translate(-4.5 -4.5)">
    <path id="Tracé_5" data-name="Tracé 5" d="M50.189,9.875A13.478,13.478,0,0,1,63.627,23.313V50.189A13.477,13.477,0,0,1,50.189,63.627H23.313A13.478,13.478,0,0,1,9.875,50.189V23.313A13.478,13.478,0,0,1,23.313,9.875H50.189m0-5.375H23.313A18.869,18.869,0,0,0,4.5,23.313V50.189A18.869,18.869,0,0,0,23.313,69H50.189A18.869,18.869,0,0,0,69,50.189V23.313A18.869,18.869,0,0,0,50.189,4.5Z" transform="translate(0 0)" fill="#a6d8d6"/>
    <path id="Tracé_6" data-name="Tracé 6" d="M27.656,17.063a4.031,4.031,0,1,1,4.031-4.031A4.022,4.022,0,0,1,27.656,17.063Z" transform="translate(26.564 6.25)" fill="#a6d8d6"/>
    <path id="Tracé_7" data-name="Tracé 7" d="M27.376,16.625a10.75,10.75,0,1,1-10.75,10.75,10.76,10.76,0,0,1,10.75-10.75m0-5.375A16.126,16.126,0,1,0,43.5,27.376,16.13,16.13,0,0,0,27.376,11.25Z" transform="translate(9.376 9.376)" fill="#a6d8d6"/>
  </g>
</svg>
