<svg xmlns="http://www.w3.org/2000/svg" width="85.987" height="64.502" viewBox="0 0 85.987 64.502">
  <path id="Icon_ionic-logo-youtube" data-name="Icon ionic-logo-youtube" d="M85.428,18.743C85.428,11.185,79.868,5.1,73,5.1c-9.305-.437-18.8-.6-28.487-.6H41.488c-9.675,0-19.182.168-28.487.6C6.148,5.1.588,11.219.588,18.777c-.42,5.98-.6,11.959-.588,17.939q-.025,8.969.571,17.956c0,7.558,5.56,13.689,12.413,13.689,9.776.454,19.8.655,30,.638q15.318.05,30-.638c6.87,0,12.429-6.131,12.429-13.689.4-6,.588-11.976.571-17.972Q86.033,27.73,85.428,18.743ZM34.77,53.193V20.188L59.125,36.682Z" transform="translate(0 -4.5)" fill="#a6d8d6"/>
</svg>
