<svg xmlns="http://www.w3.org/2000/svg" width="64.503" height="64.502" viewBox="0 0 64.503 64.502">
  <path id="Icon_ionic-logo-linkedin" data-name="Icon ionic-logo-linkedin" d="M63.844,4.5H10.011A5.262,5.262,0,0,0,4.5,9.524V63.475A5.676,5.676,0,0,0,10.011,69H63.827A5.388,5.388,0,0,0,69,63.475V9.524A4.946,4.946,0,0,0,63.844,4.5ZM24.494,58.266H15.253V29.535h9.241Zm-4.3-33.1h-.067a4.743,4.743,0,0,1-4.873-4.957,4.772,4.772,0,0,1,4.99-4.957,4.76,4.76,0,0,1,4.94,4.957A4.772,4.772,0,0,1,20.193,25.166Zm38.073,33.1H49.025V42.556c0-3.764-1.344-6.334-4.688-6.334A5.056,5.056,0,0,0,39.6,39.633,6.222,6.222,0,0,0,39.28,41.9V58.266H30.039V29.535H39.28v4c1.344-1.915,3.444-4.671,8.334-4.671,6.065,0,10.652,4,10.652,12.618V58.266Z" transform="translate(-4.5 -4.5)" fill="#a6d8d6"/>
</svg>
