<svg width="12" height="40" viewBox="0 0 12 40" fill="none" xmlns="http://www.w3.org/2000/svg">
<path d="M5.67079 11.3975C4.58668 11.399 3.52648 11.0788 2.62435 10.4776C1.72223 9.87633 1.01873 9.02101 0.602844 8.01983C0.186957 7.01866 0.0773855 5.91662 0.287991 4.85315C0.498596 3.78969 1.01992 2.81258 1.78599 2.04548C2.55206 1.27837 3.52846 0.755743 4.59164 0.543704C5.65482 0.331664 6.75701 0.43975 7.75874 0.854286C8.76048 1.26882 9.61674 1.97117 10.2192 2.87248C10.8217 3.77379 11.1432 4.83355 11.1432 5.91767C11.1393 7.36854 10.5618 8.75898 9.53653 9.78559C8.5113 10.8122 7.12165 11.3917 5.67079 11.3975V11.3975Z" fill="#098FC9"/>
<path d="M5.67079 25.3556C4.58668 25.357 3.52648 25.0369 2.62435 24.4356C1.72223 23.8344 1.01873 22.9791 0.602844 21.9779C0.186957 20.9767 0.0773855 19.8747 0.287991 18.8112C0.498596 17.7478 1.01992 16.7707 1.78599 16.0035C2.55206 15.2364 3.52846 14.7138 4.59164 14.5018C5.65482 14.2897 6.75701 14.3978 7.75874 14.8124C8.76048 15.2269 9.61674 15.9293 10.2192 16.8306C10.8217 17.7319 11.1432 18.7916 11.1432 19.8758C11.1393 21.3266 10.5618 22.7171 9.53653 23.7437C8.5113 24.7703 7.12165 25.3497 5.67079 25.3556V25.3556Z" fill="#098FC9"/>
<path d="M5.6708 39.3062C4.58636 39.3077 3.52587 38.9873 2.62359 38.3858C1.72131 37.7842 1.01779 36.9284 0.602125 35.9268C0.186455 34.9252 0.077329 33.8228 0.288534 32.7591C0.499738 31.6955 1.0218 30.7184 1.78861 29.9516C2.55542 29.1848 3.53248 28.6627 4.59615 28.4515C5.65982 28.2403 6.76223 28.3494 7.76384 28.7651C8.76545 29.1808 9.62124 29.8843 10.2228 30.7866C10.8244 31.6888 11.1447 32.7493 11.1432 33.8338C11.1393 35.2839 10.5615 36.6736 9.53608 37.6991C8.51064 38.7245 7.12098 39.3023 5.6708 39.3062V39.3062Z" fill="#098FC9"/>
</svg>
