<svg width="12" height="40" viewBox="0 0 12 40" fill="none" xmlns="http://www.w3.org/2000/svg">
<path d="M5.81591 10.8975C4.83092 10.8987 3.86769 10.6078 3.04804 10.0615C2.22824 9.51513 1.58892 8.73785 1.21098 7.82802C0.833043 6.9182 0.733469 5.91672 0.924858 4.95028C1.11625 3.98385 1.59 3.09591 2.28618 2.39879C2.98235 1.70168 3.86965 1.22674 4.83582 1.03405C5.802 0.841355 6.80362 0.939578 7.71395 1.31629C8.62429 1.693 9.40242 2.33127 9.94991 3.15034C10.4973 3.96923 10.7895 4.93205 10.7896 5.91704C10.7859 7.23563 10.2609 8.49926 9.32913 9.43228C8.39737 10.3653 7.13448 10.892 5.81591 10.8975Z" stroke="#098FC9"/>
<path d="M5.81591 24.8556C4.83092 24.8568 3.86769 24.5659 3.04804 24.0196C2.22823 23.4732 1.58892 22.6959 1.21098 21.7861C0.833044 20.8763 0.733469 19.8748 0.924858 18.9084C1.11625 17.9419 1.59 17.054 2.28618 16.3569C2.98235 15.6598 3.86965 15.1848 4.83582 14.9921C5.802 14.7994 6.80362 14.8976 7.71395 15.2744C8.62428 15.6511 9.40242 16.2893 9.94991 17.1084C10.4973 17.9273 10.7895 18.8901 10.7896 19.8751C10.7859 21.1937 10.2609 22.4573 9.32913 23.3903C8.39737 24.3234 7.13448 24.8501 5.81591 24.8556Z" stroke="#098FC9"/>
<path d="M9.32892 37.3455C8.39694 38.2775 7.13393 38.8026 5.81591 38.8062H5.81585C4.83059 38.8074 3.86711 38.5163 3.04735 37.9697C2.22739 37.4231 1.58807 36.6454 1.21033 35.7352C0.832588 34.825 0.733418 33.8231 0.925352 32.8565C1.11728 31.8899 1.59171 31.002 2.28855 30.3051C2.9854 29.6083 3.87331 29.1339 4.83992 28.9419C5.80654 28.75 6.80837 28.8492 7.71858 29.2269C8.6288 29.6047 9.40651 30.244 9.95319 31.0639C10.4999 31.8839 10.7909 32.8476 10.7896 33.8331C10.7859 35.1509 10.2608 36.4137 9.32892 37.3455Z" stroke="#098FC9"/>
</svg>
