<svg width="182" height="177" viewBox="0 0 182 177" fill="none" xmlns="http://www.w3.org/2000/svg">
<path d="M53.6635 152.166L51.9822 151.336L44.2354 167.028L46.4996 168.146L57.2386 158.253L58.0274 157.276L58.162 157.343L57.8663 158.563L56.52 173.093L58.8738 174.255L66.6206 158.563L64.9393 157.733L58.5427 170.69L58.3971 170.646L58.5276 169.93L59.9179 155.254L58.6177 154.612L47.8123 164.64L47.501 164.988L47.3665 164.922L53.6635 152.166Z" fill="#098FC9"/>
<path d="M32.8508 151.937C35.3321 154.226 38.7559 153.271 41.1148 150.788C43.8869 147.87 43.9974 144.596 41.2967 142.03C40.4267 141.204 39.3491 140.559 38.1556 140.219L37.3772 141.582C38.3922 141.857 39.3619 142.433 40.1775 143.208C42.2094 145.207 41.8533 147.179 39.8587 149.388L33.9498 143.775L32.9167 144.862C30.8614 147.461 30.8026 149.992 32.8508 151.937ZM33.9509 150.707C32.809 149.622 32.7818 147.872 34.1556 146.281L38.6326 150.533C37.1409 151.668 35.3647 152.05 33.9509 150.707Z" fill="#098FC9"/>
<path d="M32.6178 132.381L31.5503 130.839L21.2742 137.956L22.3417 139.498L32.6178 132.381ZM19.1878 141.925C19.7016 141.57 19.8485 140.86 19.4927 140.346C19.1226 139.811 18.4206 139.72 17.9068 140.076C17.3518 140.46 17.1907 141.149 17.5608 141.684C17.9166 142.198 18.6329 142.31 19.1878 141.925Z" fill="#098FC9"/>
<path d="M23.9632 119.979C24.3119 120.893 24.147 121.773 23.1073 122.264L9.43236 128.726L10.2335 130.422L23.8632 123.981C25.8749 123.03 26.3925 121.375 25.4952 119.476L23.9632 119.979Z" fill="#098FC9"/>
<path d="M20.0741 108.658C20.2688 109.616 19.9622 110.457 18.8561 110.772L4.30851 114.911L4.82163 116.714L19.3212 112.589C21.4612 111.98 22.2424 110.432 21.6678 108.412L20.0741 108.658Z" fill="#098FC9"/>
<path d="M6.71318 96.9239C7.00539 100.287 10.1786 101.888 13.5947 101.642C17.6093 101.353 19.8968 99.0077 19.6294 95.2923C19.5432 94.0954 19.1809 92.8933 18.5284 91.8374L17.0343 92.321C17.5994 93.2077 17.9278 94.2869 18.0086 95.409C18.1633 98.2552 16.5716 99.4727 13.6097 99.7611L13.0245 91.6321L11.5284 91.7398C8.25843 92.276 6.51033 94.1062 6.71318 96.9239ZM8.35533 96.7556C8.24224 95.1847 9.40105 93.8731 11.4885 93.6225L11.9318 99.7816C10.0651 99.6152 8.49535 98.7006 8.35533 96.7556Z" fill="#098FC9"/>
<path d="M8.9731 70.8377L8.63488 72.682L16.0364 74.0394C18.52 74.4948 19.3248 76.0658 19.0092 77.7871C18.6935 79.5084 17.3881 80.6669 14.9045 80.2114L7.50296 78.854L7.16474 80.6983L14.5663 82.0557C17.9843 82.6825 20.1069 80.8097 20.6075 78.0802C21.1126 75.3261 19.7927 72.822 16.3747 72.1951L8.9731 70.8377Z" fill="#098FC9"/>
<path d="M24.1175 64.6612L24.8602 62.9395L16.2978 59.2461C15.5718 58.0888 15.3418 56.7916 15.8567 55.598L16.0547 55.1389L14.5856 54.5051L14.4668 54.7806C13.932 56.0202 14.1193 57.3534 14.6585 58.3756L14.5532 58.4935L13.3595 57.9786L12.6169 59.7002L24.1175 64.6612Z" fill="#098FC9"/>
<path d="M22.3791 41.4264C20.4415 44.1902 21.843 47.4566 24.618 49.464C27.8791 51.8232 31.139 51.497 33.3223 48.4789C34.0257 47.5066 34.5209 46.3529 34.6997 45.1246L33.2443 44.5346C33.1073 45.5772 32.6651 46.6149 32.0057 47.5264C30.2947 49.8063 28.2929 49.7157 25.8385 48.0328L30.6154 41.4295L29.4001 40.5503C26.5505 38.8592 24.0349 39.1376 22.3791 41.4264ZM23.7453 42.353C24.6685 41.0769 26.3992 40.8171 28.1593 41.9669L24.54 46.97C23.2169 45.6426 22.6024 43.933 23.7453 42.353Z" fill="#098FC9"/>
<path d="M46.4908 18.9607C43.8759 20.5307 43.7269 23.9736 45.5928 27.0814C47.4588 30.1893 50.5033 31.7148 52.9896 30.222C54.3185 29.4241 55.0084 28.1934 55.1067 26.9972L55.261 26.9629L55.9688 28.1417L57.5763 27.1766L51.142 16.4598L49.5345 17.4249L50.0364 18.2608L49.9335 18.3809C48.9473 18.0982 47.7983 18.1757 46.4908 18.9607ZM52.539 28.5972C50.76 29.6653 48.5773 28.4097 47.2003 26.1163C45.8234 23.8229 45.7541 21.3276 47.5331 20.2595C48.6262 19.6032 49.8352 19.4314 50.9114 19.7183L54.1672 25.141C54.3863 26.8173 53.6535 27.928 52.539 28.5972Z" fill="#098FC9"/>
<path d="M73.2561 22.1161C73.9069 24.3742 72.822 25.9358 71.1645 26.4135C70.0114 26.7459 68.9438 26.9235 67.9304 26.7473L67.9134 28.3132C69.2017 28.5403 70.3483 28.3659 71.6454 27.9921C74.2879 27.2304 75.9717 24.7678 75.0578 21.5968L71.3743 8.81709L69.5726 9.33638L69.7526 9.96095C68.8007 9.63693 67.7738 9.59467 66.4286 9.98241C63.4979 10.8271 62.4684 14.1159 63.4724 17.5991C64.4763 21.0823 67.0262 23.3394 69.8127 22.5362C71.182 22.1416 72.1449 21.2396 72.565 20.2599L72.723 20.2664L73.2561 22.1161ZM69.7951 20.8501C67.8013 21.4248 66.0149 19.6501 65.274 17.0798C64.5332 14.5094 65.1079 12.0802 67.1017 11.5056C68.0866 11.2217 69.2817 11.2155 70.2027 11.5224L72.1829 18.3927C71.8496 19.7637 70.9241 20.5247 69.7951 20.8501Z" fill="#098FC9"/>
<path d="M88.3026 6.43041C84.9302 6.57278 83.1894 9.6716 83.2831 13.0953C83.3933 17.1188 85.6346 19.5083 89.3582 19.4064C90.5577 19.3735 91.7747 19.0651 92.8586 18.4602L92.442 16.946C91.531 17.4712 90.4383 17.7512 89.3137 17.782C86.4634 17.81 85.3179 16.1658 85.1615 13.1939L93.3085 12.9708L93.2674 11.4714C92.8772 8.18084 91.1265 6.35308 88.3026 6.43041ZM88.3977 8.07842C89.9721 8.03531 91.2309 9.25131 91.3883 11.3478L85.2156 11.5168C85.4649 9.6593 86.4484 8.1318 88.3977 8.07842Z" fill="#098FC9"/>
<path d="M101.936 19.8417L103.764 20.2616L105.712 11.7825C106.801 10.3911 108.272 9.90819 109.685 10.2329C111.049 10.5465 112.041 11.3644 111.476 13.8253L109.684 21.6221L111.512 22.042L113.303 14.2452C114.082 10.8584 112.637 9.2183 110.566 8.7424C108.836 8.34489 107.336 8.8466 106.334 9.7451L106.199 9.66278L106.563 8.07905L104.736 7.65915L101.936 19.8417Z" fill="#098FC9"/>
<path d="M123.298 19.9805C124.471 17.6043 126.902 16.3509 128.673 17.2252C129.57 17.6678 130.109 18.2129 130.503 18.77L131.56 17.6466C130.985 16.7215 130.3 16.1883 129.404 15.7456C126.669 14.3955 123.244 15.911 121.639 19.1615C120.035 22.412 120.914 26.0524 123.649 27.4025C124.545 27.8452 125.374 28.087 126.447 28.0033L126.707 26.459C125.903 26.5637 125.13 26.3217 124.368 25.9454C122.597 25.0711 122.103 22.4015 123.298 19.9805Z" fill="#098FC9"/>
<path d="M143.949 25.2706C141.302 23.1755 137.96 24.3847 135.795 27.0383C133.25 30.1568 133.386 33.4301 136.272 35.7852C137.202 36.5439 138.325 37.1053 139.541 37.3553L140.214 35.9366C139.181 35.7392 138.171 35.2374 137.3 34.5262C135.123 32.6855 135.33 30.6923 137.153 28.34L143.467 33.4927L144.415 32.3306C146.269 29.5842 146.138 27.0567 143.949 25.2706ZM142.944 26.5806C144.165 27.5763 144.324 29.3193 143.073 31.0095L138.289 27.1055C139.691 25.8618 141.434 25.3477 142.944 26.5806Z" fill="#098FC9"/>
<path d="M166.555 54.3081L165.797 52.7587L155.742 54.451L155.843 54.4295L155.777 54.2948L155.687 54.3387L163.434 47.9309L162.544 46.112L152.8 54.6385L153.69 56.4573L163.105 54.9943L162.937 55.0488L163.003 55.1835L163.149 55.0842L156.218 61.6219L157.097 63.4183L169.819 60.9771L168.929 59.1583L159.116 61.3447L159.306 61.2792L159.241 61.1445L159.072 61.2548L166.555 54.3081Z" fill="#098FC9"/>
<path d="M173.776 75.8848C173.141 72.5697 169.82 71.3021 166.447 71.8968C162.483 72.5958 160.448 75.1632 161.095 78.8316C161.304 80.0133 161.787 81.172 162.544 82.1554L163.981 81.5213C163.328 80.6972 162.891 79.6573 162.696 78.5494C162.25 75.734 163.708 74.3599 166.625 73.7694L168.04 81.7956L169.518 81.5351C172.715 80.6666 174.267 78.6669 173.776 75.8848ZM172.16 76.2205C172.433 77.7716 171.415 79.1951 169.364 79.6582L168.292 73.577C170.166 73.5512 171.821 74.3002 172.16 76.2205Z" fill="#098FC9"/>
<path d="M161.847 96.5517C161.607 99.5923 164.324 101.712 167.938 101.997C171.551 102.283 174.559 100.714 174.789 97.7982C174.911 96.253 174.309 94.9767 173.415 94.2291L173.477 94.0835L180.555 94.6418L180.702 92.7726L162.509 91.3376L162.403 92.6835L163.499 93.0959C162.558 93.8994 161.977 94.9068 161.847 96.5517ZM173.18 97.2199C173.016 99.2884 170.727 100.337 168.085 100.128C165.393 99.916 163.321 98.5238 163.485 96.4552C163.587 95.1592 164.047 94.0921 164.754 93.3955L171.309 93.9125C172.803 94.6824 173.282 95.9239 173.18 97.2199Z" fill="#098FC9"/>
<path d="M151.929 128.172L153.368 128.926L156.618 122.669L159.317 127.752C161.221 131.177 161.928 132.789 164.165 133.961C166.712 135.295 168.789 134.238 169.856 132.201C170.68 130.628 170.692 128.828 170.366 127.134L168.789 127.126C169.108 128.619 169.159 130.029 168.44 131.402C167.848 132.532 166.629 133.135 165.057 132.311C163.252 131.394 162.785 130.614 160.851 127.032L157.286 120.423L156.267 119.89L151.929 128.172Z" fill="#098FC9"/>
<path d="M154.257 140.237C150.458 136.797 146.428 135.475 143.927 138.236C141.411 141.016 143.142 144.877 146.941 148.317C150.741 151.757 154.771 153.079 157.271 150.317C159.771 147.556 158.056 143.676 154.257 140.237ZM152.999 141.627C155.89 144.244 157.843 147.227 156.048 149.21C154.236 151.211 151.074 149.563 148.183 146.946C145.07 144.127 143.32 141.329 145.132 139.327C146.927 137.344 149.885 138.808 152.999 141.627Z" fill="#098FC9"/>
<path d="M126.073 153.128L126.965 154.486L132.842 150.591L132.737 156.346C132.74 160.263 132.577 162.016 133.964 164.126C135.544 166.528 137.873 166.612 139.795 165.348C141.278 164.373 142.161 162.804 142.698 161.164L141.323 160.393C140.878 161.853 140.239 163.111 138.944 163.963C137.878 164.664 136.52 164.6 135.544 163.117C134.411 161.439 134.382 160.53 134.428 156.46L134.516 148.951L133.884 147.99L126.073 153.128Z" fill="#098FC9"/>
<path d="M117.099 157.236L115.351 157.913L121.673 174.231L125.869 172.606L125.273 171.067L122.825 172.016L117.099 157.236Z" fill="#098FC9"/>
</svg>
