<svg xmlns="http://www.w3.org/2000/svg" width="65.502" height="65.502" viewBox="0 0 65.502 65.502">
  <path id="Icon_ionic-logo-facebook" data-name="Icon ionic-logo-facebook" d="M65.441,4.5H8.061A3.563,3.563,0,0,0,4.5,8.061v57.38A3.563,3.563,0,0,0,8.061,69h28.69V43.47h-7.71V34.064h7.71V27.109c0-8.332,5.778-12.867,13.22-12.867,3.561,0,7.391.269,8.281.386v8.7h-5.93c-4.048,0-4.821,1.915-4.821,4.737v6h9.642l-1.26,9.407H47.5V69h17.94A3.563,3.563,0,0,0,69,65.441V8.061A3.563,3.563,0,0,0,65.441,4.5Z" transform="translate(-4 -4)" fill="#a6d8d6" stroke="#a6d8d6" stroke-width="1"/>
</svg>
